<svg width="80" height="80" viewBox="0 0 80 80" fill="none" xmlns="http://www.w3.org/2000/svg">
<rect width="79.8568" height="79.8568" rx="39.9284" fill="#C9C5C5"/>
<path d="M21.2043 50.9287V28.0033H23.9805V38.2123H36.2044V28.0033H38.9805V50.9287H36.2044V40.675H23.9805V50.9287H21.2043ZM44.1353 50.9287V48.9138L51.7025 40.6302C52.5906 39.66 53.3219 38.8168 53.8965 38.1003C54.4712 37.3765 54.8965 36.6974 55.1727 36.063C55.4562 35.4212 55.598 34.7496 55.598 34.0481C55.598 33.2421 55.404 32.5444 55.0159 31.9548C54.6353 31.3653 54.113 30.91 53.4488 30.5891C52.7846 30.2682 52.0383 30.1078 51.21 30.1078C50.3294 30.1078 49.5607 30.2906 48.904 30.6563C48.2547 31.0145 47.751 31.5182 47.3928 32.1675C47.0421 32.8168 46.8667 33.5779 46.8667 34.4511H44.2249C44.2249 33.1078 44.5346 31.9287 45.154 30.9138C45.7734 29.8988 46.6167 29.1078 47.6838 28.5406C48.7585 27.9735 49.9637 27.6899 51.2995 27.6899C52.6428 27.6899 53.8331 27.9735 54.8704 28.5406C55.9077 29.1078 56.7212 29.8727 57.3107 30.8354C57.9003 31.7981 58.1951 32.869 58.1951 34.0481C58.1951 34.8914 58.0421 35.716 57.7361 36.522C57.4376 37.3205 56.9152 38.2123 56.1689 39.1974C55.4301 40.175 54.404 41.369 53.0906 42.7794L47.9413 48.2869V48.466H58.598V50.9287H44.1353Z" fill="white"/>
</svg>
