<svg width="74" height="74" viewBox="0 0 74 74" fill="none" xmlns="http://www.w3.org/2000/svg">
<rect width="73.2021" height="73.2021" rx="36.601" fill="#631515"/>
<path d="M27.3853 48.6006V44.3941L36.2118 36.6665C36.8735 36.0678 37.4367 35.5203 37.9015 35.0241C38.3662 34.5199 38.7207 34.0158 38.9649 33.5116C39.2091 32.9996 39.3312 32.4443 39.3312 31.8456C39.3312 31.176 39.1855 30.6049 38.894 30.1323C38.6025 29.6518 38.2008 29.2815 37.6888 29.0216C37.1767 28.7616 36.5899 28.6317 35.9282 28.6317C35.2586 28.6317 34.6718 28.7695 34.1676 29.0452C33.6635 29.313 33.2696 29.703 32.986 30.215C32.7103 30.727 32.5725 31.3493 32.5725 32.0819H27.0308C27.0308 30.4356 27.401 29.0137 28.1415 27.8164C28.882 26.619 29.9218 25.6974 31.2609 25.0514C32.6079 24.3976 34.1716 24.0707 35.9518 24.0707C37.7872 24.0707 39.3824 24.3779 40.7373 24.9924C42.0922 25.6068 43.1399 26.4654 43.8803 27.5682C44.6287 28.6632 45.0028 29.9354 45.0028 31.3848C45.0028 32.3064 44.8177 33.2202 44.4475 34.1261C44.0773 35.032 43.4116 36.0324 42.4506 37.1273C41.4974 38.2223 40.1425 39.5338 38.3859 41.062L35.491 43.7324V43.886H45.2982V48.6006H27.3853Z" fill="white"/>
</svg>
