<svg width="651" height="392" viewBox="0 0 651 392" fill="none" xmlns="http://www.w3.org/2000/svg">
<path d="M253.458 18.5937H262.741V21.214H253.458V18.5937ZM261.655 18.5937H264.388C264.388 18.5937 264.388 18.6686 264.388 18.8183C264.388 18.9431 264.376 19.1053 264.351 19.3049C264.351 19.5046 264.351 19.6668 264.351 19.7916C264.301 22.5866 264.226 24.8575 264.126 26.6043C264.051 28.3263 263.939 29.6364 263.789 30.5348C263.664 31.4332 263.465 32.0571 263.19 32.4064C262.891 32.7558 262.566 33.0054 262.217 33.1551C261.893 33.3048 261.468 33.4171 260.944 33.492C260.445 33.5419 259.796 33.5669 258.998 33.5669C258.199 33.5419 257.338 33.5045 256.415 33.4546C256.39 33.0553 256.303 32.6186 256.153 32.1444C256.028 31.6453 255.853 31.2086 255.629 30.8343C256.477 30.9341 257.276 30.9965 258.024 31.0214C258.773 31.0214 259.297 31.0214 259.597 31.0214C259.871 31.0214 260.096 30.9965 260.27 30.9466C260.47 30.8967 260.645 30.7844 260.795 30.6097C260.969 30.3851 261.106 29.886 261.206 29.1124C261.331 28.3138 261.418 27.1159 261.468 25.5188C261.543 23.8967 261.606 21.7381 261.655 19.0429V18.5937ZM272.174 6.42803L273.859 4.70612C274.657 5.08045 275.481 5.52964 276.329 6.0537C277.203 6.55281 278.014 7.06439 278.762 7.58845C279.511 8.08755 280.135 8.54923 280.634 8.97346L278.875 10.92C278.4 10.4708 277.789 9.98415 277.04 9.46009C276.292 8.91108 275.493 8.37454 274.645 7.85048C273.796 7.32642 272.973 6.85227 272.174 6.42803ZM277.564 16.5723L280.372 17.2836C278.775 22.1748 276.591 26.4172 273.821 30.0107C271.051 33.6043 267.757 36.5365 263.939 38.8075C263.789 38.6078 263.589 38.3583 263.34 38.0588C263.09 37.7843 262.828 37.4973 262.554 37.1979C262.304 36.9233 262.08 36.6863 261.88 36.4866C265.673 34.4902 268.88 31.8075 271.5 28.4386C274.121 25.0446 276.142 21.0892 277.564 16.5723ZM253.682 10.92H282.655V13.6526H253.682V10.92ZM251.848 10.92H254.768V21.476C254.768 22.7987 254.718 24.2336 254.618 25.7808C254.518 27.3281 254.331 28.9002 254.057 30.4974C253.782 32.0945 253.383 33.6542 252.859 35.1765C252.335 36.6738 251.636 38.0339 250.762 39.2567C250.613 39.057 250.388 38.8324 250.089 38.5829C249.814 38.3333 249.515 38.0962 249.19 37.8716C248.891 37.647 248.629 37.4848 248.404 37.385C249.452 35.8378 250.213 34.1408 250.688 32.2941C251.187 30.4475 251.499 28.5883 251.623 26.7166C251.773 24.82 251.848 23.0607 251.848 21.4386V10.92ZM267.42 4.59382H270.34C270.315 8.0626 270.44 11.3567 270.714 14.4761C270.989 17.5955 271.376 20.4654 271.875 23.0857C272.374 25.681 272.973 27.9395 273.671 29.861C274.395 31.7576 275.181 33.23 276.03 34.2781C276.903 35.3262 277.814 35.8503 278.762 35.8503C279.311 35.8503 279.711 35.3262 279.96 34.2781C280.235 33.205 280.422 31.4207 280.522 28.9252C280.846 29.2246 281.233 29.5241 281.682 29.8236C282.156 30.123 282.58 30.3352 282.955 30.4599C282.78 32.6061 282.531 34.2781 282.206 35.4759C281.907 36.6738 281.457 37.5098 280.859 37.9839C280.285 38.483 279.511 38.7326 278.538 38.7326C277.29 38.7326 276.142 38.3084 275.094 37.4599C274.046 36.6114 273.11 35.4136 272.286 33.8663C271.488 32.3191 270.789 30.4974 270.19 28.4011C269.591 26.2799 269.08 23.9466 268.655 21.4012C268.256 18.8557 267.957 16.1731 267.757 13.3531C267.557 10.5082 267.445 7.58845 267.42 4.59382ZM286.473 22.5242H319.976V25.0322H286.473V22.5242ZM294.596 11.5938H315.147V13.8772H294.596V11.5938ZM294.596 16.9841H315.147V19.2675H294.596V16.9841ZM288.27 36.1497C289.693 35.9501 291.352 35.7005 293.249 35.4011C295.17 35.0767 297.204 34.7398 299.35 34.3904C301.497 34.0161 303.643 33.6542 305.789 33.3048L305.901 35.8128C303.905 36.1622 301.883 36.5116 299.837 36.861C297.816 37.2353 295.869 37.5722 293.997 37.8716C292.151 38.1961 290.466 38.4955 288.944 38.77L288.27 36.1497ZM303.356 23.198C304.703 26.7166 306.824 29.6239 309.719 31.9198C312.614 34.2157 316.233 35.7754 320.575 36.5989C320.375 36.7986 320.163 37.0356 319.938 37.3102C319.714 37.6096 319.502 37.9091 319.302 38.2085C319.102 38.533 318.928 38.8324 318.778 39.1069C315.783 38.3832 313.126 37.3476 310.805 36C308.484 34.6275 306.488 32.9305 304.816 30.9091C303.169 28.8878 301.833 26.542 300.81 23.8717L303.356 23.198ZM316.008 25.3316L318.291 26.9038C317.368 27.5776 316.345 28.2639 315.222 28.9626C314.124 29.6364 313.013 30.2852 311.89 30.9091C310.792 31.5081 309.757 32.0446 308.783 32.5187L306.874 31.0589C307.848 30.5598 308.883 29.9858 309.981 29.3369C311.104 28.6881 312.202 28.0143 313.275 27.3156C314.348 26.6168 315.259 25.9555 316.008 25.3316ZM293.062 6.0537H316.307V8.4494H295.944V23.5723H293.062V6.0537ZM293.062 23.3103H295.944V36.1497L293.062 36.4866V23.3103ZM336.933 19.2301H354.526V21.8129H339.591V34.2781H336.933V19.2301ZM353.553 19.2301H356.286V30.8343C356.286 31.5081 356.198 32.0571 356.024 32.4813C355.874 32.8806 355.55 33.1925 355.05 33.4171C354.576 33.6168 353.94 33.7415 353.141 33.7915C352.368 33.8414 351.419 33.8663 350.297 33.8663C350.247 33.492 350.147 33.0678 349.997 32.5936C349.847 32.1195 349.685 31.6952 349.51 31.3209C350.359 31.3458 351.095 31.3708 351.719 31.3958C352.343 31.3958 352.78 31.3833 353.029 31.3583C353.254 31.3334 353.391 31.2835 353.441 31.2086C353.516 31.1337 353.553 30.9965 353.553 30.7968V19.2301ZM332.928 10.321H357.933V12.9039H332.928V10.321ZM344.981 14.4387H347.751V38.9572H344.981V14.4387ZM342.286 4.40665L344.981 4.96815C343.833 9.33532 342.273 13.3282 340.302 16.9467C338.355 20.5402 335.985 23.5349 333.19 25.9306C333.09 25.7309 332.915 25.4938 332.666 25.2193C332.416 24.9199 332.167 24.6329 331.917 24.3584C331.667 24.0589 331.443 23.8218 331.243 23.6472C333.913 21.526 336.159 18.8058 337.981 15.4868C339.828 12.1428 341.263 8.4494 342.286 4.40665ZM331.805 4.70612L334.462 5.49221C333.664 7.6134 332.716 9.70965 331.618 11.7809C330.519 13.8273 329.334 15.7613 328.061 17.583C326.789 19.4048 325.466 21.0144 324.093 22.4119C324.019 22.1873 323.881 21.9003 323.682 21.5509C323.507 21.2015 323.307 20.8522 323.083 20.5028C322.883 20.1285 322.696 19.8415 322.521 19.6418C323.769 18.419 324.967 17.0091 326.115 15.4119C327.263 13.8148 328.323 12.1053 329.297 10.2836C330.27 8.43693 331.106 6.57776 331.805 4.70612ZM327.912 14.3264L330.569 11.6686L330.607 11.7061V38.9198H327.912V14.3264ZM366.73 6.50289H390.911V16.1606H366.73V13.7274H388.104V8.93603H366.73V6.50289ZM365.082 6.50289H367.853V15.4494C367.853 17.0714 367.79 18.8557 367.665 20.8023C367.541 22.7238 367.291 24.7077 366.917 26.7541C366.567 28.7755 366.056 30.7594 365.382 32.7059C364.708 34.6275 363.797 36.3993 362.649 38.0214C362.525 37.8217 362.312 37.6096 362.013 37.385C361.738 37.1604 361.451 36.9358 361.152 36.7112C360.853 36.5116 360.603 36.3494 360.403 36.2246C361.451 34.7273 362.287 33.0927 362.911 31.3209C363.535 29.5241 363.997 27.7024 364.296 25.8557C364.621 23.984 364.833 22.1623 364.933 20.3905C365.033 18.6187 365.082 16.9716 365.082 15.4494V6.50289ZM366.767 19.3798H391.66V21.8878H366.767V19.3798ZM372.382 24.845H385.184V34.5401H372.382V32.2193H382.564V27.1658H372.382V24.845ZM370.885 24.845H373.505V36.7112H370.885V24.845ZM390.724 19.3798H393.531C393.531 19.3798 393.531 19.4671 393.531 19.6418C393.531 19.7916 393.531 19.9663 393.531 20.1659C393.531 20.3655 393.519 20.5402 393.494 20.69C393.369 23.5598 393.244 26.0054 393.12 28.0268C392.995 30.0232 392.858 31.6827 392.708 33.0054C392.558 34.303 392.384 35.3137 392.184 36.0374C391.984 36.7861 391.735 37.3351 391.435 37.6845C391.086 38.1087 390.712 38.3957 390.312 38.5454C389.913 38.6952 389.426 38.8075 388.852 38.8823C388.328 38.9322 387.617 38.9572 386.719 38.9572C385.82 38.9572 384.86 38.9198 383.836 38.8449C383.811 38.4706 383.724 38.0339 383.574 37.5347C383.45 37.0356 383.275 36.5989 383.05 36.2246C384.048 36.2995 384.959 36.3494 385.783 36.3743C386.631 36.3993 387.23 36.4118 387.58 36.4118C387.929 36.4118 388.204 36.3743 388.403 36.2995C388.603 36.2496 388.79 36.1248 388.965 35.9251C389.264 35.6007 389.514 34.8895 389.713 33.7915C389.938 32.6934 390.125 31.0339 390.275 28.8129C390.449 26.5669 390.599 23.5972 390.724 19.9039V19.3798Z" fill="#D9D9D9"/>
<path d="M151.955 86.5107L151.394 389.581" stroke="#848484" stroke-width="0.560723" stroke-dasharray="7.85 7.85"/>
<path d="M303.351 237.905L0.279384 237.905" stroke="#848484" stroke-width="0.560723" stroke-dasharray="7.85 7.85"/>
<rect x="0.280361" y="86.7911" width="304.472" height="304.472" stroke="#D9D9D9" stroke-width="0.560723"/>
<rect x="191.323" y="129.767" width="73.2021" height="73.2021" rx="36.601" fill="#D9D9D9"/>
<path d="M218.708 178.367V174.161L227.535 166.433C228.196 165.834 228.759 165.287 229.224 164.791C229.689 164.287 230.043 163.782 230.288 163.278C230.532 162.766 230.654 162.211 230.654 161.612C230.654 160.943 230.508 160.372 230.217 159.899C229.925 159.418 229.524 159.048 229.012 158.788C228.5 158.528 227.913 158.398 227.251 158.398C226.581 158.398 225.995 158.536 225.49 158.812C224.986 159.08 224.592 159.47 224.309 159.982C224.033 160.494 223.895 161.116 223.895 161.849H218.354C218.354 160.202 218.724 158.78 219.464 157.583C220.205 156.386 221.245 155.464 222.584 154.818C223.931 154.164 225.494 153.837 227.275 153.837C229.11 153.837 230.705 154.145 232.06 154.759C233.415 155.373 234.463 156.232 235.203 157.335C235.951 158.43 236.326 159.702 236.326 161.151C236.326 162.073 236.14 162.987 235.77 163.893C235.4 164.799 234.734 165.799 233.773 166.894C232.82 167.989 231.465 169.3 229.709 170.829L226.814 173.499V173.653H236.621V178.367H218.708Z" fill="#631515"/>
<path d="M497.17 86.5107L496.609 389.581" stroke="#848484" stroke-width="0.560723" stroke-dasharray="7.85 7.85"/>
<path d="M648.565 237.905L345.494 237.905" stroke="#848484" stroke-width="0.560723" stroke-dasharray="7.85 7.85"/>
<rect x="345.494" y="86.7911" width="304.472" height="304.472" stroke="#D9D9D9" stroke-width="0.560723"/>
<rect x="534.874" y="129.767" width="73.2021" height="73.2021" rx="36.601" fill="#D9D9D9"/>
<path d="M562.259 178.367V174.161L571.085 166.433C571.747 165.834 572.31 165.287 572.775 164.791C573.24 164.287 573.594 163.782 573.838 163.278C574.083 162.766 574.205 162.211 574.205 161.612C574.205 160.943 574.059 160.372 573.768 159.899C573.476 159.418 573.074 159.048 572.562 158.788C572.05 158.528 571.463 158.398 570.802 158.398C570.132 158.398 569.545 158.536 569.041 158.812C568.537 159.08 568.143 159.47 567.86 159.982C567.584 160.494 567.446 161.116 567.446 161.849H561.904C561.904 160.202 562.275 158.78 563.015 157.583C563.755 156.386 564.795 155.464 566.134 154.818C567.481 154.164 569.045 153.837 570.825 153.837C572.661 153.837 574.256 154.145 575.611 154.759C576.966 155.373 578.013 156.232 578.754 157.335C579.502 158.43 579.876 159.702 579.876 161.151C579.876 162.073 579.691 162.987 579.321 163.893C578.951 164.799 578.285 165.799 577.324 166.894C576.371 167.989 575.016 169.3 573.259 170.829L570.365 173.499V173.653H580.172V178.367H562.259Z" fill="#631515"/>
</svg>
