<svg width="80" height="80" viewBox="0 0 80 80" fill="none" xmlns="http://www.w3.org/2000/svg">
<rect width="79.8568" height="79.8568" rx="39.9284" fill="#E27F7F"/>
<path d="M20.7043 50.9287V28.0033H23.4805V38.2123H35.7044V28.0033H38.4805V50.9287H35.7044V40.675H23.4805V50.9287H20.7043ZM51.3816 51.2421C49.904 51.2421 48.5868 50.9884 47.4301 50.4809C46.2809 49.9735 45.3667 49.2683 44.6876 48.3653C44.0159 47.4548 43.6503 46.3989 43.5906 45.1974H46.4115C46.4712 45.9362 46.7249 46.5742 47.1727 47.1115C47.6204 47.6414 48.2062 48.0518 48.9301 48.3429C49.654 48.6339 50.4562 48.7795 51.3368 48.7795C52.3219 48.7795 53.195 48.6078 53.9562 48.2645C54.7174 47.9212 55.3145 47.4436 55.7473 46.8317C56.1801 46.2198 56.3965 45.5108 56.3965 44.7048C56.3965 43.8615 56.1876 43.119 55.7697 42.4772C55.3518 41.828 54.7398 41.3205 53.9339 40.9548C53.1279 40.5891 52.1428 40.4063 50.9786 40.4063H49.1428V37.9436H50.9786C51.8891 37.9436 52.6876 37.7794 53.3742 37.4511C54.0682 37.1227 54.6092 36.66 54.9973 36.063C55.3928 35.466 55.5906 34.7645 55.5906 33.9585C55.5906 33.1824 55.4189 32.5071 55.0756 31.9324C54.7324 31.3578 54.2473 30.91 53.6204 30.5891C53.001 30.2682 52.2697 30.1078 51.4264 30.1078C50.6353 30.1078 49.8891 30.2533 49.1876 30.5444C48.4936 30.8279 47.9264 31.2421 47.4861 31.7869C47.0458 32.3242 46.807 32.9735 46.7697 33.7347H44.0831C44.1279 32.5332 44.4898 31.4809 45.1689 30.5779C45.848 29.6675 46.7361 28.9585 47.8331 28.4511C48.9376 27.9436 50.1503 27.6899 51.4712 27.6899C52.8891 27.6899 54.1055 27.9772 55.1204 28.5518C56.1354 29.119 56.9152 29.869 57.46 30.8018C58.0048 31.7347 58.2771 32.7421 58.2771 33.8242C58.2771 35.1153 57.9376 36.216 57.2585 37.1265C56.5868 38.0369 55.6727 38.6675 54.5159 39.0183V39.1974C55.9637 39.4362 57.0943 40.0518 57.9077 41.0444C58.7212 42.0294 59.1279 43.2496 59.1279 44.7048C59.1279 45.9511 58.7883 47.0705 58.1092 48.063C57.4376 49.0481 56.5197 49.8242 55.3555 50.3914C54.1913 50.9586 52.8667 51.2421 51.3816 51.2421Z" fill="white"/>
</svg>
