<svg width="550" height="556" viewBox="0 0 550 556" fill="none" xmlns="http://www.w3.org/2000/svg">
<path d="M321.923 0.000976562L321.091 449.611" stroke="#848484" stroke-width="0.831842" stroke-dasharray="11.65 11.65"/>
<path d="M546.52 224.599L96.9089 224.599" stroke="#848484" stroke-width="0.831842" stroke-dasharray="11.65 11.65"/>
<rect x="96.9101" y="0.416897" width="451.69" height="451.69" stroke="#232323" stroke-width="0.831842"/>
<rect x="173.854" y="77.3633" width="73.2021" height="73.2021" rx="36.601" fill="#D9D9D9"/>
<path d="M214.929 101.765V125.964H209.092V107.224H208.951L203.539 110.532V105.475L209.506 101.765H214.929Z" fill="white"/>
<rect x="173.854" y="288.65" width="73.2021" height="73.2021" rx="36.601" fill="#D9D9D9"/>
<path d="M209.944 337.582C208.101 337.582 206.467 337.267 205.041 336.637C203.623 335.998 202.504 335.12 201.685 334.002C200.866 332.883 200.448 331.595 200.433 330.138H206.317C206.341 330.666 206.51 331.134 206.825 331.544C207.14 331.946 207.569 332.261 208.113 332.489C208.656 332.718 209.275 332.832 209.968 332.832C210.661 332.832 211.272 332.71 211.799 332.466C212.335 332.213 212.753 331.871 213.052 331.438C213.351 330.996 213.497 330.492 213.489 329.925C213.497 329.358 213.336 328.854 213.005 328.413C212.674 327.972 212.205 327.629 211.599 327.385C211 327.14 210.291 327.018 209.472 327.018H207.12V322.859H209.472C210.189 322.859 210.819 322.741 211.362 322.505C211.914 322.268 212.343 321.938 212.65 321.512C212.957 321.079 213.107 320.583 213.099 320.023C213.107 319.48 212.977 319.003 212.709 318.594C212.449 318.176 212.083 317.853 211.61 317.625C211.146 317.396 210.606 317.282 209.992 317.282C209.346 317.282 208.759 317.396 208.231 317.625C207.711 317.853 207.298 318.176 206.99 318.594C206.683 319.011 206.522 319.496 206.506 320.047H200.917C200.933 318.605 201.335 317.337 202.122 316.242C202.91 315.139 203.981 314.277 205.336 313.655C206.699 313.032 208.251 312.721 209.992 312.721C211.725 312.721 213.249 313.024 214.564 313.631C215.88 314.237 216.904 315.065 217.637 316.112C218.369 317.152 218.735 318.33 218.735 319.645C218.743 321.008 218.298 322.131 217.4 323.013C216.51 323.895 215.364 324.439 213.962 324.643V324.832C215.837 325.053 217.251 325.66 218.204 326.652C219.165 327.645 219.641 328.885 219.633 330.374C219.633 331.776 219.22 333.021 218.393 334.108C217.574 335.187 216.431 336.038 214.966 336.66C213.509 337.275 211.835 337.582 209.944 337.582Z" fill="white"/>
<rect x="392.629" y="77.3633" width="73.2021" height="73.2021" rx="36.601" fill="#D9D9D9"/>
<path d="M420.014 125.964V121.757L428.841 114.03C429.502 113.431 430.066 112.884 430.53 112.387C430.995 111.883 431.35 111.379 431.594 110.875C431.838 110.363 431.96 109.808 431.96 109.209C431.96 108.539 431.814 107.968 431.523 107.496C431.231 107.015 430.83 106.645 430.318 106.385C429.806 106.125 429.219 105.995 428.557 105.995C427.888 105.995 427.301 106.133 426.797 106.409C426.292 106.676 425.899 107.066 425.615 107.578C425.339 108.09 425.201 108.713 425.201 109.445H419.66C419.66 107.799 420.03 106.377 420.77 105.18C421.511 103.982 422.551 103.061 423.89 102.415C425.237 101.761 426.8 101.434 428.581 101.434C430.416 101.434 432.011 101.741 433.366 102.356C434.721 102.97 435.769 103.829 436.509 104.932C437.258 106.026 437.632 107.299 437.632 108.748C437.632 109.67 437.447 110.583 437.076 111.489C436.706 112.395 436.041 113.396 435.079 114.491C434.126 115.586 432.771 116.897 431.015 118.425L428.12 121.096V121.249H437.927V125.964H420.014Z" fill="white"/>
<rect x="392.629" y="288.65" width="73.2021" height="73.2021" rx="36.601" fill="#D9D9D9"/>
<path d="M419.219 333.234V328.673L429.132 313.052H433.185V319.243H430.834L425.032 328.436V328.625H439.389V333.234H419.219ZM430.905 337.251V331.839L431.023 329.842V313.052H436.494V337.251H430.905Z" fill="white"/>
<path d="M230.479 530.094V543.346H227.746V532.715H222.992V530.094H230.479ZM230.479 542.185C231.352 543.558 232.6 544.581 234.222 545.255C235.844 545.928 237.753 546.315 239.949 546.415C240.997 546.44 242.27 546.465 243.767 546.49C245.264 546.49 246.837 546.49 248.484 546.49C250.131 546.465 251.728 546.428 253.275 546.378C254.822 546.328 256.157 546.265 257.28 546.19C257.181 546.39 257.068 546.652 256.944 546.977C256.819 547.301 256.706 547.638 256.607 547.987C256.507 548.337 256.432 548.661 256.382 548.96C255.334 548.985 254.086 549.01 252.639 549.035C251.216 549.085 249.731 549.11 248.184 549.11C246.637 549.135 245.14 549.135 243.692 549.11C242.245 549.085 241.01 549.06 239.986 549.035C237.516 548.936 235.407 548.536 233.66 547.838C231.913 547.139 230.454 546.053 229.281 544.581C228.457 545.379 227.609 546.178 226.735 546.977C225.887 547.8 225.001 548.624 224.077 549.447L222.618 546.677C223.441 546.078 224.327 545.392 225.275 544.618C226.249 543.82 227.159 543.009 228.008 542.185H230.479ZM223.366 517.816L225.5 516.244C226.274 516.818 227.047 517.467 227.821 518.191C228.619 518.914 229.343 519.638 229.992 520.362C230.666 521.085 231.19 521.759 231.564 522.383L229.281 524.142C228.931 523.519 228.432 522.832 227.783 522.084C227.135 521.31 226.423 520.561 225.65 519.838C224.901 519.089 224.14 518.415 223.366 517.816ZM247.174 515.683L250.168 516.319C249.644 517.517 249.07 518.752 248.446 520.025C247.822 521.298 247.236 522.371 246.687 523.244L244.404 522.533C244.728 521.909 245.065 521.198 245.414 520.399C245.764 519.601 246.088 518.79 246.387 517.966C246.712 517.118 246.974 516.356 247.174 515.683ZM238.227 521.148H255.858V523.618H238.227V541.436H235.495V523.282L237.591 521.148H238.227ZM236.992 527.511H254.885V529.87H236.992V527.511ZM236.992 533.838H254.81V536.196H236.992V533.838ZM235.495 540.276H256.457V542.709H235.495V540.276ZM244.778 522.271H247.473V541.249H244.778V522.271ZM238.789 515.383L241.596 516.207C240.872 517.954 240.011 519.651 239.013 521.298C238.015 522.945 236.942 524.479 235.794 525.902C234.646 527.324 233.448 528.572 232.2 529.645C232.051 529.445 231.839 529.221 231.564 528.971C231.315 528.697 231.052 528.422 230.778 528.148C230.503 527.873 230.254 527.649 230.029 527.474C231.876 526.052 233.56 524.28 235.083 522.159C236.63 520.012 237.865 517.754 238.789 515.383ZM267.238 517.592H277.831V520.437H267.238V517.592ZM276.409 517.592H279.254C279.254 518.69 279.303 519.987 279.403 521.485C279.503 522.982 279.715 524.592 280.04 526.314C280.364 528.011 280.863 529.782 281.537 531.629C282.211 533.476 283.122 535.322 284.27 537.169C285.417 538.991 286.852 540.763 288.574 542.485C290.321 544.207 292.43 545.791 294.9 547.239C294.701 547.413 294.439 547.638 294.114 547.912C293.815 548.212 293.528 548.511 293.253 548.811C293.004 549.135 292.792 549.41 292.617 549.634C290.122 548.112 287.975 546.44 286.179 544.618C284.407 542.772 282.922 540.85 281.724 538.854C280.551 536.857 279.603 534.861 278.879 532.864C278.18 530.843 277.644 528.896 277.27 527.025C276.92 525.128 276.683 523.369 276.558 521.747C276.459 520.125 276.409 518.74 276.409 517.592ZM275.323 524.929L278.505 525.49C277.606 529.283 276.434 532.702 274.986 535.747C273.564 538.791 271.829 541.474 269.783 543.795C267.762 546.091 265.366 548.05 262.596 549.672C262.446 549.472 262.209 549.235 261.885 548.96C261.585 548.686 261.261 548.399 260.911 548.1C260.587 547.825 260.3 547.6 260.05 547.426C264.218 545.23 267.525 542.26 269.97 538.517C272.416 534.748 274.2 530.219 275.323 524.929ZM298.981 534.586H313.767V536.757H298.981V534.586ZM297.708 539.303H314.665V541.586H297.708V539.303ZM297.895 518.79H314.74V521.073H297.895V518.79ZM301.526 515.308H303.997V523.581H301.526V515.308ZM308.713 515.308H311.184V523.581H308.713V515.308ZM305.007 525.116H307.366V531.33H305.007V525.116ZM301.152 526.388V530.244H311.296V526.388H301.152ZM298.906 524.405H313.654V532.265H298.906V524.405ZM306.28 541.661C306.654 541.861 307.203 542.21 307.927 542.709C308.651 543.183 309.424 543.707 310.248 544.281C311.096 544.83 311.87 545.354 312.569 545.854C313.268 546.353 313.779 546.715 314.104 546.939L312.419 549.26C312.02 548.886 311.483 548.424 310.809 547.875C310.136 547.326 309.412 546.752 308.638 546.153C307.865 545.554 307.129 544.993 306.43 544.469C305.731 543.92 305.145 543.483 304.67 543.158L306.28 541.661ZM304.895 530.993H307.515V537.394C307.515 538.442 307.416 539.527 307.216 540.65C307.016 541.773 306.629 542.884 306.055 543.982C305.506 545.08 304.67 546.128 303.547 547.126C302.449 548.149 300.977 549.06 299.13 549.859C298.931 549.584 298.656 549.247 298.307 548.848C297.982 548.474 297.671 548.162 297.371 547.912C299.068 547.264 300.416 546.502 301.414 545.629C302.412 544.756 303.161 543.845 303.66 542.896C304.159 541.923 304.483 540.962 304.633 540.014C304.808 539.066 304.895 538.18 304.895 537.356V530.993ZM317.398 530.057H331.51V532.49H317.398V530.057ZM317.398 537.581H331.51V540.014H317.398V537.581ZM317.323 545.217H332.184V547.8H317.323V545.217ZM319.045 515.308L321.628 515.907C321.153 517.754 320.579 519.576 319.906 521.372C319.232 523.169 318.496 524.866 317.697 526.463C316.923 528.036 316.1 529.433 315.227 530.656C315.077 530.506 314.865 530.319 314.59 530.094C314.341 529.87 314.079 529.645 313.804 529.421C313.53 529.196 313.292 529.021 313.093 528.896C313.941 527.773 314.727 526.488 315.451 525.041C316.2 523.569 316.874 522.009 317.473 520.362C318.096 518.69 318.62 517.005 319.045 515.308ZM326.007 515.683L328.702 516.356C328.228 517.679 327.704 519.039 327.13 520.437C326.556 521.834 326.007 523.02 325.483 523.993L323.2 523.356C323.549 522.683 323.898 521.897 324.248 520.998C324.597 520.075 324.922 519.151 325.221 518.228C325.546 517.28 325.808 516.431 326.007 515.683ZM319.082 522.458H331.734V525.003H319.082V549.784H316.499V525.116L318.97 522.458H319.082ZM323.761 523.581H326.307V546.565H323.761V523.581ZM341.991 525.79H368.643V528.11H341.991V525.79ZM342.515 536.72H363.964V539.041H342.515V536.72ZM348.018 522.533H350.713V532.078H359.809V522.533H362.579V534.324H348.018V522.533ZM363.215 536.72H363.777L364.264 536.608L366.023 537.543C365 539.49 363.665 541.174 362.018 542.597C360.371 543.994 358.499 545.167 356.403 546.116C354.306 547.064 352.06 547.825 349.665 548.399C347.269 548.998 344.798 549.447 342.253 549.747C342.178 549.422 342.016 549.023 341.766 548.549C341.542 548.075 341.305 547.688 341.055 547.388C343.426 547.139 345.747 546.777 348.018 546.303C350.289 545.804 352.41 545.142 354.381 544.319C356.378 543.495 358.137 542.497 359.659 541.324C361.182 540.151 362.367 538.754 363.215 537.132V536.72ZM349.178 538.666C350.376 540.338 351.986 541.773 354.007 542.971C356.053 544.169 358.399 545.13 361.044 545.854C363.69 546.577 366.522 547.089 369.542 547.388C369.367 547.588 369.167 547.838 368.943 548.137C368.743 548.436 368.543 548.723 368.344 548.998C368.169 549.297 368.019 549.572 367.895 549.821C364.825 549.422 361.943 548.786 359.248 547.912C356.552 547.064 354.132 545.953 351.986 544.581C349.864 543.183 348.13 541.524 346.782 539.602L349.178 538.666ZM351.948 515.308H354.831V520.437H351.948V515.308ZM339.483 519.014H368.868V521.56H339.483V519.014ZM338.098 519.014H340.793V529.832C340.793 531.28 340.743 532.864 340.643 534.586C340.569 536.308 340.394 538.068 340.119 539.864C339.87 541.661 339.496 543.408 338.996 545.105C338.522 546.802 337.873 548.362 337.05 549.784C336.9 549.634 336.676 549.447 336.376 549.223C336.102 549.023 335.815 548.823 335.515 548.624C335.241 548.449 334.979 548.324 334.729 548.249C335.503 546.902 336.114 545.454 336.563 543.907C337.012 542.335 337.349 540.725 337.574 539.078C337.799 537.431 337.936 535.822 337.986 534.249C338.061 532.652 338.098 531.18 338.098 529.832V519.014Z" fill="#232323"/>
<path d="M17.1068 130.81H20.1015V137.847H17.1068V130.81ZM17.1443 138.708H20.064V165.547H17.1443V138.708ZM1.90908 136.2H35.5987V138.933H1.90908V136.2ZM5.72723 144.023H30.3206V146.756H8.5347V160.793H5.72723V144.023ZM29.2351 144.023H32.1174V157.237C32.1174 158.036 32.0051 158.66 31.7805 159.109C31.5809 159.558 31.1566 159.907 30.5078 160.157C29.8839 160.382 29.023 160.519 27.9249 160.569C26.8518 160.619 25.5167 160.644 23.9196 160.644C23.8697 160.219 23.7324 159.758 23.5078 159.259C23.3082 158.735 23.121 158.273 22.9464 157.874C23.7948 157.899 24.5934 157.924 25.3421 157.948C26.0907 157.948 26.7271 157.948 27.2511 157.948C27.8001 157.948 28.187 157.948 28.4116 157.948C28.736 157.924 28.9481 157.861 29.0479 157.761C29.1727 157.637 29.2351 157.449 29.2351 157.2V144.023ZM12.3903 191.382H35.973V193.815H12.3903V191.382ZM16.6202 196.435H32.9035V198.756H16.6202V196.435ZM18.417 192.28L20.8875 192.916C19.9143 194.988 18.6291 196.909 17.032 198.681C15.4598 200.428 13.8127 201.888 12.0908 203.061C11.966 202.911 11.7789 202.724 11.5293 202.499C11.3047 202.275 11.0677 202.05 10.8181 201.825C10.5685 201.601 10.344 201.439 10.1443 201.339C11.8662 200.291 13.4634 198.981 14.9357 197.408C16.433 195.836 17.5935 194.127 18.417 192.28ZM32.3794 196.435H35.0372C35.0372 196.435 35.0247 196.585 34.9997 196.884C34.9997 197.159 34.9873 197.383 34.9623 197.558C34.7627 200.153 34.5505 202.25 34.3259 203.847C34.1263 205.444 33.9017 206.667 33.6522 207.515C33.4026 208.364 33.1031 208.975 32.7538 209.35C32.4543 209.699 32.1299 209.936 31.7805 210.061C31.4311 210.186 31.0319 210.26 30.5827 210.285C30.1834 210.335 29.6468 210.36 28.973 210.36C28.3242 210.36 27.6255 210.335 26.8768 210.285C26.8768 209.936 26.8144 209.537 26.6896 209.087C26.5649 208.663 26.4151 208.289 26.2404 207.964C26.9392 208.039 27.5756 208.089 28.1495 208.114C28.7235 208.139 29.1477 208.152 29.4222 208.152C29.6718 208.152 29.8839 208.127 30.0586 208.077C30.2582 208.027 30.4204 207.915 30.5452 207.74C30.8197 207.49 31.0568 206.979 31.2565 206.205C31.481 205.432 31.6807 204.296 31.8554 202.799C32.055 201.276 32.2297 199.305 32.3794 196.884V196.435ZM18.6041 184.195V187.152H30.6575V184.195H18.6041ZM18.6041 179.216V182.173H30.6575V179.216H18.6041ZM16.0587 177.12H33.2778V189.285H16.0587V177.12ZM1.98394 184.082H13.0641V186.777H1.98394V184.082ZM6.36359 176.296H9.02132V199.317H6.36359V176.296ZM1.27272 200.777C2.22102 200.378 3.31905 199.904 4.56681 199.355C5.81457 198.806 7.14968 198.207 8.57213 197.558C9.99458 196.909 11.417 196.273 12.8395 195.649L13.4384 198.12C11.5168 199.068 9.58282 200.029 7.63631 201.002C5.6898 201.95 3.93045 202.811 2.35827 203.585L1.27272 200.777ZM27.6255 196.884L29.572 197.932C29.1228 199.505 28.4864 201.102 27.6629 202.724C26.8394 204.346 25.916 205.843 24.8929 207.216C23.8697 208.588 22.7966 209.711 21.6736 210.585C21.4241 210.31 21.0997 210.023 20.7004 209.724C20.3261 209.424 19.9517 209.175 19.5774 208.975C20.7503 208.177 21.8608 207.128 22.9089 205.831C23.982 204.533 24.9178 203.098 25.7164 201.526C26.5399 199.954 27.1763 198.407 27.6255 196.884ZM21.7485 196.959L23.695 198.082C23.0462 199.43 22.2102 200.802 21.187 202.2C20.1888 203.572 19.0783 204.845 17.8555 206.018C16.6327 207.191 15.4099 208.177 14.1871 208.975C13.9625 208.676 13.6755 208.364 13.3261 208.039C13.0017 207.715 12.6648 207.44 12.3154 207.216C13.5382 206.542 14.761 205.656 15.9838 204.558C17.2066 203.46 18.3172 202.25 19.3154 200.927C20.3385 199.604 21.1496 198.282 21.7485 196.959ZM17.818 232.751H19.8769V238.141H17.818V232.751ZM16.5828 238.029C17.4312 237.804 18.4045 237.517 19.5025 237.168C20.6006 236.818 21.7735 236.457 23.0212 236.082L23.3581 237.916C22.31 238.266 21.2868 238.628 20.2886 239.002C19.2904 239.351 18.3172 239.688 17.3689 240.013L16.5828 238.029ZM14.8234 246.414H32.2297V248.473H14.8234V246.414ZM14.8234 251.804H32.2297V254.05H14.8234V251.804ZM11.4919 224.066H22.6469V226.163H11.4919V224.066ZM12.3528 229.494H22.6095V231.628H12.3528V229.494ZM13.5133 241.098H33.6522V255.285H30.9196V243.307H16.1336V255.435H13.5133V241.098ZM16.433 221.109H18.7539V227.173C18.7539 228.296 18.6665 229.482 18.4918 230.729C18.3421 231.977 18.0052 233.225 17.4812 234.473C16.982 235.72 16.2209 236.943 15.1977 238.141C14.1995 239.314 12.8644 240.4 11.1924 241.398C11.0177 241.148 10.7807 240.849 10.4812 240.499C10.1817 240.15 9.90723 239.875 9.65768 239.676C11.2049 238.802 12.4277 237.842 13.3261 236.793C14.2494 235.745 14.9232 234.66 15.3475 233.537C15.7967 232.414 16.0837 231.303 16.2084 230.205C16.3582 229.107 16.433 228.097 16.433 227.173V221.109ZM11.7914 227.061L13.8127 227.248C13.638 228.246 13.4384 229.294 13.2138 230.392C12.9892 231.466 12.7771 232.401 12.5774 233.2L10.5561 232.863C10.7807 232.064 10.9928 231.129 11.1924 230.056C11.417 228.982 11.6167 227.984 11.7914 227.061ZM23.8447 224.066H35.3741V226.163H23.8447V224.066ZM24.2939 229.494H35.7858V231.628H24.2939V229.494ZM28.5613 221.109H30.9196V227.435C30.9196 228.483 30.8322 229.606 30.6575 230.804C30.5078 231.977 30.1959 233.162 29.7217 234.36C29.2725 235.558 28.5987 236.719 27.7003 237.842C26.8019 238.94 25.6041 239.963 24.1068 240.911C23.957 240.662 23.72 240.362 23.3955 240.013C23.0961 239.663 22.8091 239.389 22.5346 239.189C23.9321 238.391 25.0301 237.505 25.8287 236.531C26.6273 235.533 27.2137 234.51 27.588 233.462C27.9873 232.389 28.2493 231.328 28.3741 230.28C28.4989 229.232 28.5613 228.284 28.5613 227.435V221.109ZM24.0319 227.061L26.0533 227.211C25.9285 228.234 25.7663 229.282 25.5667 230.355C25.392 231.428 25.2048 232.364 25.0052 233.162L23.0212 232.826C23.2209 232.027 23.408 231.104 23.5827 230.056C23.7574 228.982 23.9071 227.984 24.0319 227.061ZM3.03206 223.393L4.64168 221.409C5.36538 221.708 6.10156 222.082 6.85022 222.532C7.59887 222.956 8.3101 223.405 8.98389 223.879C9.65768 224.328 10.2067 224.765 10.6309 225.189L8.94646 227.435C8.54717 227.011 8.01064 226.562 7.33684 226.088C6.68801 225.589 5.97678 225.102 5.20317 224.628C4.45451 224.154 3.73081 223.742 3.03206 223.393ZM1.42245 233.499L2.9572 231.441C3.70585 231.715 4.47947 232.052 5.27804 232.451C6.0766 232.851 6.81278 233.262 7.48657 233.687C8.18532 234.111 8.74682 234.523 9.17105 234.922L7.56144 237.205C7.1372 236.806 6.57571 236.382 5.87696 235.933C5.20317 235.483 4.46699 235.047 3.66842 234.622C2.89481 234.198 2.14615 233.824 1.42245 233.499ZM2.17111 253.451C2.69517 252.478 3.25666 251.33 3.85559 250.007C4.47947 248.685 5.09087 247.287 5.6898 245.815C6.31368 244.317 6.87517 242.883 7.37428 241.51L9.62025 242.97C9.17105 244.268 8.65947 245.628 8.0855 247.05C7.53649 248.448 6.97499 249.833 6.40102 251.205C5.82705 252.553 5.26556 253.8 4.71654 254.948L2.17111 253.451ZM28.973 232.713H31.0693V236.981C31.0693 237.28 31.1067 237.48 31.1816 237.58C31.2565 237.654 31.4436 237.692 31.7431 237.692C31.8429 237.692 32.0176 237.692 32.2671 237.692C32.5167 237.692 32.7662 237.692 33.0158 237.692C33.2903 237.692 33.4899 237.692 33.6147 237.692C33.8144 237.692 33.9641 237.629 34.0639 237.505C34.1637 237.38 34.2386 237.093 34.2885 236.644C34.3634 236.195 34.4133 235.483 34.4382 234.51C34.6379 234.685 34.9249 234.847 35.2992 234.997C35.6985 235.146 36.0354 235.271 36.3099 235.371C36.26 236.519 36.1477 237.417 35.973 238.066C35.7983 238.69 35.5488 239.127 35.2243 239.376C34.8999 239.601 34.4632 239.713 33.9142 239.713C33.7894 239.713 33.5523 239.713 33.203 239.713C32.8785 239.713 32.5416 239.713 32.1923 239.713C31.8679 239.713 31.6308 239.713 31.481 239.713C30.4579 239.713 29.7841 239.526 29.4597 239.152C29.1353 238.777 28.973 238.066 28.973 237.018V232.713ZM3.10693 274.157H32.1548V277.04H3.10693V274.157ZM31.0693 274.157H33.9516C33.9516 274.157 33.9516 274.257 33.9516 274.457C33.9516 274.656 33.9391 274.868 33.9142 275.093C33.9142 275.318 33.9017 275.505 33.8768 275.654C33.6771 279.523 33.465 282.817 33.2404 285.537C33.0408 288.257 32.8037 290.503 32.5292 292.275C32.2796 294.022 31.9926 295.407 31.6682 296.43C31.3687 297.428 31.0069 298.152 30.5827 298.601C30.1335 299.15 29.6593 299.524 29.1602 299.724C28.6861 299.923 28.0871 300.061 27.3634 300.136C26.7395 300.186 25.8661 300.198 24.7431 300.173C23.6451 300.148 22.5221 300.111 21.3742 300.061C21.3492 299.636 21.2494 299.15 21.0747 298.601C20.925 298.052 20.7004 297.578 20.4009 297.178C21.6986 297.278 22.884 297.353 23.957 297.403C25.0551 297.428 25.8412 297.44 26.3153 297.44C26.7146 297.44 27.039 297.403 27.2886 297.328C27.5631 297.253 27.8126 297.091 28.0372 296.842C28.3866 296.517 28.6985 295.881 28.973 294.932C29.2725 293.959 29.5345 292.612 29.7591 290.89C30.0087 289.143 30.2333 286.947 30.4329 284.301C30.6575 281.656 30.8696 278.474 31.0693 274.756V274.157ZM15.3475 266.072H18.2672V272.548C18.2672 274.269 18.1924 276.091 18.0426 278.013C17.8929 279.909 17.5685 281.856 17.0694 283.852C16.5703 285.824 15.8092 287.795 14.786 289.767C13.7628 291.738 12.3903 293.647 10.6684 295.494C8.94646 297.316 6.77535 299.013 4.15505 300.585C4.00532 300.335 3.80568 300.073 3.55612 299.799C3.30657 299.524 3.04454 299.25 2.77003 298.975C2.49552 298.726 2.23349 298.526 1.98394 298.376C4.47947 296.879 6.53828 295.282 8.16037 293.585C9.80741 291.888 11.1051 290.141 12.0534 288.344C13.0266 286.523 13.7379 284.701 14.1871 282.879C14.6612 281.057 14.9732 279.273 15.1229 277.526C15.2726 275.779 15.3475 274.12 15.3475 272.548V266.072Z" fill="#232323"/>
<path d="M50.1936 8.35505H76.2169V10.3315H50.1936V8.35505ZM61.9026 5.4802H64.2084V9.31333H61.9026V5.4802ZM51.5412 20.064H73.7913V21.9806H53.7272V33.0607H51.5412V20.064ZM72.8629 20.064H75.1089V30.3656C75.1089 30.9845 75.0191 31.4736 74.8394 31.8329C74.6797 32.1923 74.3602 32.4618 73.8811 32.6415C73.402 32.8212 72.7431 32.921 71.9046 32.941C71.0861 32.9809 70.048 33.0009 68.7902 33.0009C68.7503 32.6814 68.6605 32.3221 68.5207 31.9228C68.381 31.5235 68.2312 31.1741 68.0715 30.8747C69.0498 30.8946 69.9182 30.9046 70.6768 30.9046C71.4555 30.9246 71.9645 30.9246 72.2041 30.9046C72.4636 30.8846 72.6333 30.8347 72.7132 30.7549C72.813 30.675 72.8629 30.5353 72.8629 30.3356V20.064ZM57.5304 23.9271H59.5069V31.803H57.5304V23.9271ZM58.5785 23.9271H68.94V30.2757H58.5785V28.6287H66.9336V25.5742H58.5785V23.9271ZM57.3208 13.6555V16.5304H69.0597V13.6555H57.3208ZM55.1647 12.0085H71.3057V18.2074H55.1647V12.0085Z" fill="#232323"/>
<path d="M73.8212 425.977L75.5581 427.714C74.2205 428.113 72.7032 428.492 71.0063 428.852C69.3093 429.191 67.5525 429.501 65.7357 429.78C63.919 430.04 62.1521 430.259 60.4352 430.439C60.3953 430.199 60.3054 429.9 60.1657 429.541C60.0259 429.181 59.8962 428.882 59.7764 428.642C61.0341 428.502 62.3118 428.343 63.6095 428.163C64.9072 427.963 66.1849 427.744 67.4426 427.504C68.7004 427.265 69.8783 427.025 70.9763 426.785C72.0743 426.526 73.0226 426.256 73.8212 425.977ZM59.1775 428.013L61.3635 428.732V446.31H59.1775V428.013ZM57.1411 445.921C58.5785 445.702 60.2855 445.422 62.2619 445.083C64.2384 444.743 66.2448 444.384 68.2811 444.005L68.4009 446.011C66.5243 446.39 64.6377 446.76 62.7411 447.119C60.8445 447.458 59.1475 447.768 57.6502 448.047L57.1411 445.921ZM60.4053 435.47H76.9656V437.536H60.4053V435.47ZM67.3528 428.672H69.5988C69.6187 430.928 69.7186 433.084 69.8982 435.14C70.0979 437.177 70.3574 439.053 70.6768 440.77C71.0162 442.487 71.3956 443.975 71.8148 445.232C72.254 446.47 72.7232 447.438 73.2223 448.137C73.7214 448.836 74.2205 449.185 74.7196 449.185C75.039 449.185 75.2686 448.856 75.4084 448.197C75.5681 447.538 75.6779 446.48 75.7378 445.023C75.9773 445.262 76.2668 445.492 76.6062 445.712C76.9656 445.911 77.275 446.071 77.5345 446.191C77.4347 447.528 77.265 448.576 77.0255 449.335C76.8059 450.094 76.4964 450.623 76.0971 450.922C75.6978 451.222 75.1788 451.371 74.5399 451.371C73.6415 451.371 72.813 450.972 72.0544 450.174C71.3157 449.375 70.6669 448.267 70.1079 446.849C69.5489 445.432 69.0697 443.765 68.6704 441.848C68.2712 439.932 67.9617 437.856 67.7421 435.62C67.5225 433.384 67.3927 431.068 67.3528 428.672ZM58.0395 449.754H70.7966V451.761H58.0395V449.754ZM56.1529 425.108L58.2791 425.737C57.6402 427.434 56.8816 429.111 56.0032 430.768C55.1247 432.405 54.1764 433.953 53.1583 435.41C52.1401 436.867 51.082 438.155 49.984 439.273C49.9241 439.093 49.8143 438.864 49.6545 438.584C49.5148 438.305 49.3551 438.025 49.1754 437.746C49.0157 437.446 48.866 437.217 48.7262 437.057C49.7244 436.079 50.6827 434.951 51.6011 433.673C52.5194 432.395 53.3679 431.028 54.1465 429.57C54.9251 428.093 55.5939 426.606 56.1529 425.108ZM53.0385 432.805L55.1647 430.678L55.1946 430.708V452.479H53.0385V432.805Z" fill="#232323"/>
<path d="M122.9 468.471L124.637 470.208C123.299 470.607 121.782 470.987 120.085 471.346C118.388 471.685 116.631 471.995 114.814 472.274C112.998 472.534 111.231 472.753 109.514 472.933C109.474 472.693 109.384 472.394 109.244 472.035C109.105 471.675 108.975 471.376 108.855 471.136C110.113 470.997 111.39 470.837 112.688 470.657C113.986 470.457 115.264 470.238 116.521 469.998C117.779 469.759 118.957 469.519 120.055 469.28C121.153 469.02 122.101 468.751 122.9 468.471ZM108.256 470.507L110.442 471.226V488.805H108.256V470.507ZM106.22 488.415C107.657 488.196 109.364 487.916 111.341 487.577C113.317 487.237 115.323 486.878 117.36 486.499L117.48 488.505C115.603 488.884 113.716 489.254 111.82 489.613C109.923 489.953 108.226 490.262 106.729 490.541L106.22 488.415ZM109.484 477.964H126.044V480.03H109.484V477.964ZM116.431 471.166H118.677C118.697 473.422 118.797 475.578 118.977 477.635C119.176 479.671 119.436 481.548 119.755 483.265C120.095 484.981 120.474 486.469 120.893 487.727C121.333 488.964 121.802 489.933 122.301 490.631C122.8 491.33 123.299 491.679 123.798 491.679C124.118 491.679 124.347 491.35 124.487 490.691C124.647 490.032 124.756 488.974 124.816 487.517C125.056 487.756 125.345 487.986 125.685 488.206C126.044 488.405 126.354 488.565 126.613 488.685C126.513 490.022 126.344 491.071 126.104 491.829C125.884 492.588 125.575 493.117 125.176 493.416C124.776 493.716 124.257 493.865 123.619 493.865C122.72 493.865 121.892 493.466 121.133 492.668C120.394 491.869 119.745 490.761 119.186 489.344C118.627 487.926 118.148 486.259 117.749 484.343C117.35 482.426 117.04 480.35 116.821 478.114C116.601 475.878 116.471 473.562 116.431 471.166ZM107.118 492.248H119.875V494.255H107.118V492.248ZM105.232 467.603L107.358 468.231C106.719 469.928 105.96 471.605 105.082 473.262C104.203 474.9 103.255 476.447 102.237 477.904C101.219 479.362 100.161 480.649 99.0626 481.767C99.0027 481.588 98.8929 481.358 98.7332 481.078C98.5934 480.799 98.4337 480.519 98.254 480.24C98.0943 479.94 97.9446 479.711 97.8048 479.551C98.803 478.573 99.7613 477.445 100.68 476.167C101.598 474.89 102.447 473.522 103.225 472.065C104.004 470.587 104.673 469.1 105.232 467.603ZM102.117 475.299L104.243 473.173L104.273 473.203V494.974H102.117V475.299Z" fill="#232323"/>
<path d="M519.299 470.328H545.322V472.304H519.299V470.328ZM531.008 467.453H533.313V471.286H531.008V467.453ZM520.646 482.037H542.896V483.953H522.832V495.033H520.646V482.037ZM541.968 482.037H544.214V492.338C544.214 492.957 544.124 493.446 543.944 493.806C543.785 494.165 543.465 494.434 542.986 494.614C542.507 494.794 541.848 494.894 541.01 494.914C540.191 494.954 539.153 494.974 537.895 494.974C537.855 494.654 537.765 494.295 537.626 493.895C537.486 493.496 537.336 493.147 537.177 492.847C538.155 492.867 539.023 492.877 539.782 492.877C540.56 492.897 541.07 492.897 541.309 492.877C541.569 492.857 541.738 492.807 541.818 492.728C541.918 492.648 541.968 492.508 541.968 492.308V482.037ZM526.635 485.9H528.612V493.776H526.635V485.9ZM527.684 485.9H538.045V492.248H527.684V490.601H536.039V487.547H527.684V485.9ZM526.426 475.628V478.503H538.165V475.628H526.426ZM524.27 473.981H540.411V480.18H524.27V473.981Z" fill="#232323"/>
</svg>
