<svg width="548" height="615" viewBox="0 0 548 615" fill="none" xmlns="http://www.w3.org/2000/svg">
<path d="M316.1 74.0342L315.268 523.645" stroke="#848484" stroke-width="0.831842" stroke-dasharray="11.65 11.65"/>
<path d="M540.697 298.631L91.0861 298.631" stroke="#848484" stroke-width="0.831842" stroke-dasharray="11.65 11.65"/>
<rect x="91.0868" y="74.4501" width="451.69" height="451.69" stroke="#232323" stroke-width="0.831842"/>
<rect x="116" y="418" width="79.8568" height="79.8568" rx="39.9284" fill="#C9C5C5"/>
<path d="M139.704 468.929V446.003H142.48V456.212H154.704V446.003H157.48V468.929H154.704V458.675H142.48V468.929H139.704ZM170.695 446.003V468.929H167.919V448.914H167.785L162.188 452.63V449.809L167.919 446.003H170.695Z" fill="white"/>
<rect x="116" y="260" width="79.8568" height="79.8568" rx="39.9284" fill="#C9C5C5"/>
<path d="M137.204 310.929V288.003H139.98V298.212H152.204V288.003H154.98V310.929H152.204V300.675H139.98V310.929H137.204ZM160.135 310.929V308.914L167.703 300.63C168.591 299.66 169.322 298.817 169.897 298.1C170.471 297.376 170.897 296.697 171.173 296.063C171.456 295.421 171.598 294.75 171.598 294.048C171.598 293.242 171.404 292.544 171.016 291.955C170.635 291.365 170.113 290.91 169.449 290.589C168.785 290.268 168.038 290.108 167.21 290.108C166.329 290.108 165.561 290.291 164.904 290.656C164.255 291.015 163.751 291.518 163.393 292.167C163.042 292.817 162.867 293.578 162.867 294.451H160.225C160.225 293.108 160.535 291.929 161.154 290.914C161.773 289.899 162.617 289.108 163.684 288.541C164.758 287.973 165.964 287.69 167.3 287.69C168.643 287.69 169.833 287.973 170.87 288.541C171.908 289.108 172.721 289.873 173.311 290.835C173.9 291.798 174.195 292.869 174.195 294.048C174.195 294.891 174.042 295.716 173.736 296.522C173.438 297.32 172.915 298.212 172.169 299.197C171.43 300.175 170.404 301.369 169.091 302.779L163.941 308.287V308.466H174.598V310.929H160.135Z" fill="white"/>
<rect x="275" y="418" width="79.8568" height="79.8568" rx="39.9284" fill="#C9C5C5"/>
<path d="M296.204 468.929V446.003H298.98V456.212H311.204V446.003H313.98V468.929H311.204V458.675H298.98V468.929H296.204ZM319.135 468.929V466.914L326.703 458.63C327.591 457.66 328.322 456.817 328.897 456.1C329.471 455.376 329.897 454.697 330.173 454.063C330.456 453.421 330.598 452.75 330.598 452.048C330.598 451.242 330.404 450.544 330.016 449.955C329.635 449.365 329.113 448.91 328.449 448.589C327.785 448.268 327.038 448.108 326.21 448.108C325.329 448.108 324.561 448.291 323.904 448.656C323.255 449.015 322.751 449.518 322.393 450.167C322.042 450.817 321.867 451.578 321.867 452.451H319.225C319.225 451.108 319.535 449.929 320.154 448.914C320.773 447.899 321.617 447.108 322.684 446.541C323.758 445.973 324.964 445.69 326.3 445.69C327.643 445.69 328.833 445.973 329.87 446.541C330.908 447.108 331.721 447.873 332.311 448.835C332.9 449.798 333.195 450.869 333.195 452.048C333.195 452.891 333.042 453.716 332.736 454.522C332.438 455.32 331.915 456.212 331.169 457.197C330.43 458.175 329.404 459.369 328.091 460.779L322.941 466.287V466.466H333.598V468.929H319.135Z" fill="white"/>
<rect x="116" y="102" width="79.8568" height="79.8568" rx="39.9284" fill="#C9C5C5"/>
<path d="M136.704 152.929V130.003H139.48V140.212H151.704V130.003H154.48V152.929H151.704V142.675H139.48V152.929H136.704ZM167.382 153.242C165.904 153.242 164.587 152.988 163.43 152.481C162.281 151.973 161.367 151.268 160.688 150.365C160.016 149.455 159.65 148.399 159.591 147.197H162.411C162.471 147.936 162.725 148.574 163.173 149.112C163.62 149.641 164.206 150.052 164.93 150.343C165.654 150.634 166.456 150.779 167.337 150.779C168.322 150.779 169.195 150.608 169.956 150.265C170.717 149.921 171.314 149.444 171.747 148.832C172.18 148.22 172.397 147.511 172.397 146.705C172.397 145.862 172.188 145.119 171.77 144.477C171.352 143.828 170.74 143.32 169.934 142.955C169.128 142.589 168.143 142.406 166.979 142.406H165.143V139.944H166.979C167.889 139.944 168.688 139.779 169.374 139.451C170.068 139.123 170.609 138.66 170.997 138.063C171.393 137.466 171.591 136.765 171.591 135.959C171.591 135.182 171.419 134.507 171.076 133.932C170.732 133.358 170.247 132.91 169.62 132.589C169.001 132.268 168.27 132.108 167.426 132.108C166.635 132.108 165.889 132.253 165.188 132.544C164.494 132.828 163.926 133.242 163.486 133.787C163.046 134.324 162.807 134.973 162.77 135.735H160.083C160.128 134.533 160.49 133.481 161.169 132.578C161.848 131.667 162.736 130.959 163.833 130.451C164.938 129.944 166.15 129.69 167.471 129.69C168.889 129.69 170.105 129.977 171.12 130.552C172.135 131.119 172.915 131.869 173.46 132.802C174.005 133.735 174.277 134.742 174.277 135.824C174.277 137.115 173.938 138.216 173.258 139.126C172.587 140.037 171.673 140.668 170.516 141.018V141.197C171.964 141.436 173.094 142.052 173.908 143.044C174.721 144.029 175.128 145.25 175.128 146.705C175.128 147.951 174.788 149.07 174.109 150.063C173.438 151.048 172.52 151.824 171.355 152.391C170.191 152.959 168.867 153.242 167.382 153.242Z" fill="white"/>
<rect x="434" y="418" width="79.8568" height="79.8568" rx="39.9284" fill="#C9C5C5"/>
<path d="M454.704 468.929V446.003H457.48V456.212H469.704V446.003H472.48V468.929H469.704V458.675H457.48V468.929H454.704ZM485.382 469.242C483.904 469.242 482.587 468.988 481.43 468.481C480.281 467.973 479.367 467.268 478.688 466.365C478.016 465.455 477.65 464.399 477.591 463.197H480.411C480.471 463.936 480.725 464.574 481.173 465.112C481.62 465.641 482.206 466.052 482.93 466.343C483.654 466.634 484.456 466.779 485.337 466.779C486.322 466.779 487.195 466.608 487.956 466.265C488.717 465.921 489.314 465.444 489.747 464.832C490.18 464.22 490.397 463.511 490.397 462.705C490.397 461.862 490.188 461.119 489.77 460.477C489.352 459.828 488.74 459.32 487.934 458.955C487.128 458.589 486.143 458.406 484.979 458.406H483.143V455.944H484.979C485.889 455.944 486.688 455.779 487.374 455.451C488.068 455.123 488.609 454.66 488.997 454.063C489.393 453.466 489.591 452.765 489.591 451.959C489.591 451.182 489.419 450.507 489.076 449.932C488.732 449.358 488.247 448.91 487.62 448.589C487.001 448.268 486.27 448.108 485.426 448.108C484.635 448.108 483.889 448.253 483.188 448.544C482.494 448.828 481.926 449.242 481.486 449.787C481.046 450.324 480.807 450.973 480.77 451.735H478.083C478.128 450.533 478.49 449.481 479.169 448.578C479.848 447.667 480.736 446.959 481.833 446.451C482.938 445.944 484.15 445.69 485.471 445.69C486.889 445.69 488.105 445.977 489.12 446.552C490.135 447.119 490.915 447.869 491.46 448.802C492.005 449.735 492.277 450.742 492.277 451.824C492.277 453.115 491.938 454.216 491.258 455.126C490.587 456.037 489.673 456.668 488.516 457.018V457.197C489.964 457.436 491.094 458.052 491.908 459.044C492.721 460.029 493.128 461.25 493.128 462.705C493.128 463.951 492.788 465.07 492.109 466.063C491.438 467.048 490.52 467.824 489.355 468.391C488.191 468.959 486.867 469.242 485.382 469.242Z" fill="white"/>
<path d="M237.341 577.138L238.613 575.191C239.487 575.416 240.41 575.703 241.383 576.052C242.357 576.377 243.292 576.726 244.191 577.101C245.114 577.45 245.875 577.774 246.474 578.074L245.239 580.282C244.64 579.933 243.891 579.571 242.993 579.197C242.095 578.822 241.146 578.448 240.148 578.074C239.15 577.699 238.214 577.387 237.341 577.138ZM235.469 585.036C236.817 584.687 238.426 584.25 240.298 583.726C242.194 583.202 244.103 582.678 246.025 582.154L246.325 584.4C244.653 584.949 242.956 585.498 241.234 586.047C239.537 586.571 237.989 587.045 236.592 587.469L235.469 585.036ZM251.565 577.101H266.576V579.234H249.918L251.565 577.101ZM265.864 577.101H266.314L266.763 576.988L268.672 577.55C268.148 578.523 267.549 579.496 266.875 580.469C266.226 581.443 265.565 582.254 264.891 582.903L262.645 582.117C263.219 581.518 263.806 580.806 264.405 579.983C265.004 579.134 265.49 578.311 265.864 577.512V577.101ZM256.207 577.887H258.79C258.565 579.209 258.228 580.395 257.779 581.443C257.355 582.466 256.731 583.377 255.907 584.175C255.109 584.974 254.061 585.66 252.763 586.234C251.465 586.783 249.868 587.245 247.972 587.619C247.847 587.32 247.647 586.97 247.373 586.571C247.098 586.172 246.849 585.847 246.624 585.598C248.346 585.323 249.781 584.961 250.929 584.512C252.102 584.063 253.037 583.539 253.736 582.94C254.46 582.316 255.009 581.592 255.383 580.769C255.783 579.92 256.057 578.96 256.207 577.887ZM258.677 578.523C258.852 579.322 259.127 580.108 259.501 580.881C259.9 581.63 260.487 582.341 261.26 583.015C262.034 583.689 263.082 584.275 264.405 584.774C265.752 585.273 267.474 585.673 269.57 585.972C269.321 586.247 269.046 586.621 268.747 587.095C268.447 587.544 268.235 587.944 268.11 588.293C265.889 587.894 264.068 587.37 262.645 586.721C261.223 586.047 260.1 585.286 259.276 584.437C258.453 583.564 257.816 582.653 257.367 581.705C256.943 580.731 256.606 579.758 256.357 578.785L258.677 578.523ZM252.164 574.368L254.672 574.742C254.048 576.115 253.237 577.475 252.239 578.822C251.266 580.145 250.055 581.368 248.608 582.491C248.358 582.241 248.021 581.979 247.597 581.705C247.198 581.43 246.824 581.231 246.474 581.106C247.872 580.133 249.045 579.047 249.993 577.849C250.941 576.626 251.665 575.466 252.164 574.368ZM243.255 593.908V596.491H262.121V593.908H243.255ZM243.255 598.288V600.908H262.121V598.288H243.255ZM243.255 589.566V592.074H262.121V589.566H243.255ZM240.522 587.657H264.929V602.779H240.522V587.657ZM255.608 604.726L257.891 603.304C259.264 603.728 260.649 604.177 262.046 604.651C263.444 605.125 264.766 605.599 266.014 606.074C267.262 606.573 268.335 607.034 269.233 607.459L266.089 608.881C265.315 608.482 264.367 608.045 263.244 607.571C262.121 607.097 260.911 606.61 259.613 606.111C258.316 605.637 256.98 605.175 255.608 604.726ZM246.774 603.191L249.357 604.352C248.333 604.951 247.161 605.537 245.838 606.111C244.54 606.685 243.193 607.209 241.795 607.683C240.398 608.157 239.075 608.569 237.827 608.918C237.678 608.719 237.478 608.482 237.228 608.207C236.979 607.958 236.717 607.696 236.442 607.421C236.193 607.172 235.956 606.972 235.731 606.822C237.029 606.548 238.351 606.223 239.699 605.849C241.071 605.475 242.369 605.063 243.592 604.614C244.815 604.164 245.875 603.69 246.774 603.191ZM284.768 576.202H306.779V578.748H284.768V576.202ZM283.832 576.202H286.565V586.459C286.565 588.106 286.502 589.89 286.378 591.812C286.278 593.733 286.053 595.692 285.704 597.689C285.355 599.66 284.843 601.594 284.169 603.491C283.52 605.362 282.634 607.084 281.511 608.656C281.362 608.507 281.137 608.332 280.838 608.132C280.563 607.933 280.276 607.746 279.977 607.571C279.677 607.396 279.415 607.259 279.191 607.159C280.239 605.662 281.075 604.04 281.699 602.293C282.322 600.521 282.784 598.724 283.084 596.902C283.408 595.056 283.608 593.247 283.683 591.475C283.782 589.678 283.832 588.006 283.832 586.459V576.202ZM291.281 590.314V593.646H302.736V590.314H291.281ZM291.281 584.999V588.256H302.736V584.999H291.281ZM288.736 582.828H305.356V595.817H288.736V582.828ZM290.084 597.876L292.592 598.512C292.018 600.009 291.294 601.494 290.42 602.967C289.547 604.414 288.661 605.649 287.763 606.672C287.588 606.523 287.363 606.348 287.089 606.148C286.814 605.974 286.54 605.799 286.265 605.624C285.991 605.45 285.741 605.3 285.517 605.175C286.465 604.252 287.326 603.141 288.1 601.844C288.898 600.546 289.559 599.223 290.084 597.876ZM300.677 598.55L303.073 597.576C303.672 598.35 304.258 599.186 304.832 600.084C305.406 600.958 305.93 601.831 306.404 602.705C306.903 603.578 307.278 604.352 307.527 605.025L304.944 606.186C304.72 605.512 304.383 604.738 303.934 603.865C303.485 602.967 302.973 602.056 302.399 601.132C301.825 600.209 301.251 599.348 300.677 598.55ZM295.624 578.223L298.693 578.785C298.394 579.758 298.094 580.756 297.795 581.78C297.52 582.803 297.246 583.651 296.971 584.325L294.501 583.764C294.725 582.965 294.937 582.042 295.137 580.994C295.362 579.945 295.524 579.022 295.624 578.223ZM295.474 594.956H298.169V605.886C298.169 606.56 298.082 607.097 297.907 607.496C297.732 607.895 297.395 608.195 296.896 608.394C296.397 608.569 295.723 608.681 294.875 608.731C294.051 608.781 293.016 608.794 291.768 608.769C291.718 608.419 291.618 608.02 291.469 607.571C291.319 607.122 291.157 606.722 290.982 606.373C291.88 606.398 292.691 606.41 293.415 606.41C294.139 606.41 294.625 606.41 294.875 606.41C295.274 606.385 295.474 606.186 295.474 605.812V594.956ZM274.437 576.726L276.046 574.742C276.795 575.067 277.568 575.466 278.367 575.94C279.166 576.414 279.914 576.901 280.613 577.4C281.312 577.874 281.886 578.336 282.335 578.785L280.65 581.031C280.226 580.557 279.665 580.07 278.966 579.571C278.267 579.047 277.519 578.535 276.72 578.036C275.946 577.537 275.185 577.101 274.437 576.726ZM272.602 586.833L274.175 584.774C274.923 585.074 275.697 585.448 276.495 585.897C277.319 586.321 278.08 586.771 278.779 587.245C279.503 587.694 280.089 588.131 280.538 588.555L278.891 590.801C278.467 590.377 277.905 589.928 277.207 589.453C276.508 588.954 275.747 588.48 274.923 588.031C274.125 587.557 273.351 587.157 272.602 586.833ZM273.388 606.71C273.937 605.712 274.536 604.551 275.185 603.229C275.859 601.881 276.533 600.459 277.207 598.961C277.905 597.464 278.529 596.004 279.078 594.582L281.324 596.154C280.825 597.476 280.264 598.849 279.64 600.271C279.041 601.694 278.417 603.091 277.768 604.464C277.119 605.836 276.495 607.109 275.896 608.282L273.388 606.71ZM320.629 576.052H343.875V578.186H320.629V576.052ZM324.746 583.389H339.645V584.849H324.746V583.389ZM324.746 586.459H339.645V587.956H324.746V586.459ZM323.287 580.133H341.03V590.539H338.372V581.78H325.832V590.539H323.287V580.133ZM319.581 589.603H344.548V594.657H341.966V591.4H322.014V594.657H319.581V589.603ZM324.409 592.523L326.281 593.571C325.782 594.27 325.183 595.018 324.484 595.817C323.811 596.591 323.037 597.252 322.164 597.801L320.442 596.341C321.24 595.892 321.989 595.318 322.688 594.619C323.386 593.895 323.96 593.197 324.409 592.523ZM326.618 592.411H328.976V594.769C328.976 595.118 329.064 595.343 329.238 595.443C329.413 595.542 329.825 595.592 330.474 595.592C330.623 595.592 330.898 595.592 331.297 595.592C331.721 595.592 332.183 595.592 332.682 595.592C333.181 595.592 333.655 595.592 334.105 595.592C334.554 595.592 334.878 595.592 335.078 595.592C335.527 595.592 335.827 595.505 335.976 595.33C336.126 595.131 336.226 594.669 336.276 593.945C336.5 594.07 336.8 594.195 337.174 594.32C337.573 594.419 337.91 594.507 338.185 594.582C338.085 595.655 337.835 596.378 337.436 596.753C337.062 597.127 336.388 597.314 335.415 597.314C335.265 597.314 334.941 597.314 334.442 597.314C333.967 597.314 333.431 597.314 332.832 597.314C332.233 597.314 331.684 597.314 331.185 597.314C330.711 597.314 330.386 597.314 330.212 597.314C329.263 597.314 328.527 597.252 328.003 597.127C327.504 596.977 327.142 596.728 326.917 596.378C326.718 596.004 326.618 595.468 326.618 594.769V592.411ZM329.351 591.624L330.96 590.501C331.684 590.876 332.42 591.337 333.169 591.886C333.917 592.411 334.491 592.91 334.891 593.384L333.206 594.619C332.832 594.145 332.27 593.621 331.522 593.047C330.773 592.473 330.049 591.999 329.351 591.624ZM337.548 593.421L339.345 592.373C340.169 592.997 340.992 593.721 341.816 594.544C342.639 595.343 343.263 596.066 343.687 596.715L341.816 597.838C341.416 597.189 340.805 596.453 339.982 595.63C339.183 594.781 338.372 594.045 337.548 593.421ZM328.565 596.528L331.222 597.09C329.999 598.387 328.515 599.623 326.768 600.796C325.046 601.968 323.012 603.029 320.666 603.977C320.492 603.678 320.242 603.353 319.918 603.004C319.593 602.655 319.294 602.393 319.019 602.218C321.215 601.444 323.124 600.558 324.746 599.56C326.393 598.537 327.666 597.526 328.565 596.528ZM338.26 598.924H338.821L339.308 598.812L341.105 599.785C339.507 602.106 336.937 604.027 333.393 605.549C329.85 607.072 325.458 608.182 320.217 608.881C320.092 608.582 319.893 608.22 319.618 607.795C319.344 607.396 319.082 607.059 318.832 606.785C323.823 606.211 327.991 605.275 331.335 603.977C334.704 602.68 337.012 601.145 338.26 599.373V598.924ZM326.468 599.935C327.591 601.207 329.089 602.305 330.96 603.229C332.857 604.152 335.003 604.888 337.399 605.437C339.794 605.986 342.327 606.373 344.998 606.598C344.723 606.897 344.424 607.271 344.099 607.721C343.8 608.17 343.563 608.582 343.388 608.956C340.668 608.631 338.072 608.12 335.602 607.421C333.156 606.747 330.96 605.861 329.014 604.763C327.067 603.665 325.445 602.343 324.147 600.796L326.468 599.935ZM327.142 598.924H339.046V600.721H325.308L327.142 598.924ZM330.474 577.026L333.581 577.363C333.306 578.086 333.032 578.785 332.757 579.459C332.507 580.133 332.27 580.731 332.046 581.256L329.613 580.844C329.787 580.245 329.95 579.596 330.099 578.897C330.274 578.199 330.399 577.575 330.474 577.026ZM317.335 574.555L319.918 575.266C319.219 577.437 318.383 579.584 317.41 581.705C316.461 583.826 315.426 585.835 314.303 587.731C313.18 589.603 311.994 591.263 310.746 592.71C310.672 592.485 310.547 592.198 310.372 591.849C310.197 591.475 310.01 591.113 309.811 590.764C309.611 590.389 309.436 590.09 309.287 589.865C310.385 588.592 311.433 587.145 312.431 585.523C313.429 583.876 314.34 582.117 315.164 580.245C316.012 578.373 316.736 576.477 317.335 574.555ZM314.303 583.726L316.923 581.143L316.998 581.218V608.806H314.303V583.726ZM368.169 592.448H370.976V604.202C370.976 604.751 371.076 605.113 371.275 605.287C371.5 605.437 371.962 605.512 372.66 605.512C372.835 605.512 373.135 605.512 373.559 605.512C373.983 605.512 374.445 605.512 374.944 605.512C375.468 605.512 375.955 605.512 376.404 605.512C376.878 605.512 377.215 605.512 377.414 605.512C377.889 605.512 378.238 605.387 378.463 605.138C378.712 604.863 378.874 604.327 378.949 603.528C379.049 602.73 379.124 601.519 379.174 599.897C379.373 600.047 379.623 600.209 379.922 600.384C380.247 600.533 380.571 600.671 380.896 600.796C381.22 600.895 381.507 600.983 381.757 601.058C381.657 602.954 381.47 604.427 381.195 605.475C380.946 606.498 380.534 607.209 379.96 607.608C379.411 608.008 378.637 608.207 377.639 608.207C377.464 608.207 377.127 608.207 376.628 608.207C376.129 608.207 375.58 608.207 374.981 608.207C374.382 608.207 373.833 608.207 373.334 608.207C372.86 608.207 372.536 608.207 372.361 608.207C371.238 608.207 370.377 608.082 369.778 607.833C369.179 607.608 368.755 607.197 368.505 606.598C368.281 606.024 368.169 605.225 368.169 604.202V592.448ZM348.329 590.464H381.233V593.197H348.329V590.464ZM354.506 580.207H378.537V582.903H354.506V580.207ZM358.174 592.56H361.094C360.919 594.457 360.62 596.241 360.195 597.913C359.796 599.585 359.185 601.12 358.361 602.517C357.538 603.89 356.415 605.125 354.992 606.223C353.595 607.321 351.798 608.245 349.602 608.993C349.502 608.744 349.34 608.469 349.115 608.17C348.916 607.895 348.703 607.608 348.479 607.309C348.254 607.034 348.03 606.81 347.805 606.635C349.851 605.986 351.523 605.2 352.821 604.277C354.119 603.353 355.129 602.293 355.853 601.095C356.577 599.872 357.101 598.55 357.425 597.127C357.775 595.705 358.024 594.182 358.174 592.56ZM355.254 575.229L358.099 575.828C357.7 577.25 357.213 578.735 356.639 580.282C356.09 581.83 355.441 583.339 354.693 584.812C353.969 586.259 353.17 587.532 352.297 588.63C352.097 588.48 351.848 588.33 351.548 588.181C351.249 588.006 350.949 587.844 350.65 587.694C350.375 587.519 350.113 587.395 349.864 587.32C350.737 586.247 351.511 585.024 352.185 583.651C352.883 582.254 353.495 580.831 354.019 579.384C354.543 577.912 354.955 576.527 355.254 575.229ZM363.34 574.368H366.185V591.362H363.34V574.368ZM391.901 584.849H418.553V587.17H391.901V584.849ZM392.425 595.78H413.874V598.1H392.425V595.78ZM397.928 581.592H400.623V591.138H409.719V581.592H412.489V593.384H397.928V581.592ZM413.125 595.78H413.687L414.174 595.667L415.933 596.603C414.91 598.55 413.575 600.234 411.928 601.656C410.28 603.054 408.409 604.227 406.313 605.175C404.216 606.123 401.97 606.885 399.575 607.459C397.179 608.057 394.708 608.507 392.163 608.806C392.088 608.482 391.926 608.082 391.676 607.608C391.452 607.134 391.215 606.747 390.965 606.448C393.336 606.198 395.657 605.836 397.928 605.362C400.199 604.863 402.32 604.202 404.291 603.378C406.288 602.555 408.047 601.557 409.569 600.384C411.092 599.211 412.277 597.813 413.125 596.191V595.78ZM399.088 597.726C400.286 599.398 401.896 600.833 403.917 602.031C405.963 603.229 408.309 604.189 410.954 604.913C413.6 605.637 416.432 606.148 419.452 606.448C419.277 606.648 419.077 606.897 418.853 607.197C418.653 607.496 418.453 607.783 418.254 608.057C418.079 608.357 417.929 608.631 417.805 608.881C414.735 608.482 411.853 607.845 409.158 606.972C406.462 606.123 404.042 605.013 401.896 603.64C399.774 602.243 398.04 600.583 396.692 598.662L399.088 597.726ZM401.858 574.368H404.74V579.496H401.858V574.368ZM389.393 578.074H418.778V580.619H389.393V578.074ZM388.008 578.074H390.703V588.892C390.703 590.339 390.653 591.924 390.553 593.646C390.479 595.368 390.304 597.127 390.029 598.924C389.78 600.721 389.405 602.468 388.906 604.164C388.432 605.861 387.783 607.421 386.96 608.844C386.81 608.694 386.585 608.507 386.286 608.282C386.012 608.082 385.725 607.883 385.425 607.683C385.151 607.508 384.889 607.384 384.639 607.309C385.413 605.961 386.024 604.514 386.473 602.967C386.922 601.394 387.259 599.785 387.484 598.138C387.708 596.491 387.846 594.881 387.896 593.309C387.971 591.712 388.008 590.239 388.008 588.892V578.074Z" fill="#232323"/>
<path d="M208.227 7.32642L209.5 5.37991C210.373 5.60451 211.296 5.89149 212.27 6.24087C213.243 6.56528 214.179 6.91466 215.077 7.28899C216 7.63836 216.762 7.96278 217.36 8.26224L216.125 10.4708C215.526 10.1214 214.778 9.75955 213.879 9.38523C212.981 9.0109 212.033 8.63657 211.034 8.26224C210.036 7.88791 209.1 7.57597 208.227 7.32642ZM206.355 15.2248C207.703 14.8754 209.312 14.4387 211.184 13.9146C213.081 13.3905 214.99 12.8665 216.911 12.3424L217.211 14.5884C215.539 15.1374 213.842 15.6864 212.12 16.2354C210.423 16.7595 208.876 17.2337 207.478 17.6579L206.355 15.2248ZM222.451 7.28899H237.462V9.42266H220.804L222.451 7.28899ZM236.751 7.28899H237.2L237.649 7.17669L239.558 7.73818C239.034 8.71143 238.435 9.68469 237.761 10.6579C237.113 11.6312 236.451 12.4422 235.777 13.0911L233.531 12.305C234.105 11.7061 234.692 10.9948 235.291 10.1713C235.89 9.32284 236.376 8.49931 236.751 7.70075V7.28899ZM227.093 8.07507H229.676C229.451 9.3977 229.114 10.5831 228.665 11.6312C228.241 12.6544 227.617 13.5652 226.794 14.3638C225.995 15.1624 224.947 15.8486 223.649 16.4226C222.352 16.9716 220.754 17.4333 218.858 17.8076C218.733 17.5082 218.533 17.1588 218.259 16.7595C217.984 16.3602 217.735 16.0358 217.51 15.7862C219.232 15.5117 220.667 15.1499 221.815 14.7007C222.988 14.2515 223.924 13.7274 224.622 13.1285C225.346 12.5046 225.895 11.7809 226.27 10.9574C226.669 10.1089 226.943 9.14815 227.093 8.07507ZM229.564 8.71143C229.738 9.51 230.013 10.2961 230.387 11.0697C230.786 11.8184 231.373 12.5296 232.146 13.2034C232.92 13.8772 233.968 14.4636 235.291 14.9627C236.638 15.4618 238.36 15.8611 240.457 16.1606C240.207 16.4351 239.933 16.8094 239.633 17.2836C239.334 17.7328 239.121 18.132 238.997 18.4814C236.776 18.0821 234.954 17.5581 233.531 16.9092C232.109 16.2354 230.986 15.4743 230.163 14.6258C229.339 13.7524 228.703 12.8415 228.253 11.8932C227.829 10.92 227.492 9.94672 227.243 8.97346L229.564 8.71143ZM223.05 4.55639L225.558 4.93071C224.934 6.30325 224.123 7.66331 223.125 9.0109C222.152 10.3335 220.942 11.5563 219.494 12.6793C219.245 12.4298 218.908 12.1677 218.483 11.8932C218.084 11.6187 217.71 11.4191 217.36 11.2943C218.758 10.321 219.931 9.23549 220.879 8.03764C221.827 6.81483 222.551 5.65442 223.05 4.55639ZM214.141 24.0963V26.6792H233.007V24.0963H214.141ZM214.141 28.476V31.0963H233.007V28.476H214.141ZM214.141 19.7541V22.2621H233.007V19.7541H214.141ZM211.409 17.8451H235.815V32.9679H211.409V17.8451ZM226.494 34.9144L228.778 33.492C230.15 33.9162 231.535 34.3654 232.933 34.8396C234.33 35.3137 235.653 35.7879 236.9 36.262C238.148 36.7611 239.221 37.2228 240.12 37.647L236.975 39.0695C236.202 38.6702 235.253 38.2335 234.13 37.7593C233.007 37.2852 231.797 36.7986 230.499 36.2995C229.202 35.8253 227.867 35.3636 226.494 34.9144ZM217.66 33.3797L220.243 34.5401C219.22 35.139 218.047 35.7255 216.724 36.2995C215.426 36.8734 214.079 37.3975 212.681 37.8716C211.284 38.3458 209.961 38.7576 208.713 39.1069C208.564 38.9073 208.364 38.6702 208.115 38.3957C207.865 38.1462 207.603 37.8841 207.328 37.6096C207.079 37.3601 206.842 37.1604 206.617 37.0107C207.915 36.7362 209.238 36.4118 210.585 36.0374C211.958 35.6631 213.255 35.2513 214.478 34.8021C215.701 34.353 216.762 33.8788 217.66 33.3797ZM255.654 6.3906H277.665V8.93603H255.654V6.3906ZM254.718 6.3906H257.451V16.6472C257.451 18.2943 257.389 20.0786 257.264 22.0001C257.164 23.9217 256.94 25.8806 256.59 27.8771C256.241 29.8485 255.729 31.7826 255.055 33.6792C254.407 35.5508 253.521 37.2727 252.398 38.8449C252.248 38.6952 252.023 38.5205 251.724 38.3208C251.449 38.1212 251.162 37.934 250.863 37.7593C250.563 37.5847 250.301 37.4474 250.077 37.3476C251.125 35.8503 251.961 34.2282 252.585 32.4813C253.209 30.7095 253.67 28.9127 253.97 27.091C254.294 25.2443 254.494 23.435 254.569 21.6632C254.669 19.8664 254.718 18.1944 254.718 16.6472V6.3906ZM262.168 20.5028V23.8343H273.622V20.5028H262.168ZM262.168 15.1873V18.444H273.622V15.1873H262.168ZM259.622 13.0162H276.242V26.0054H259.622V13.0162ZM260.97 28.0642L263.478 28.7006C262.904 30.1979 262.18 31.6827 261.307 33.1551C260.433 34.6025 259.547 35.8378 258.649 36.861C258.474 36.7112 258.25 36.5365 257.975 36.3369C257.701 36.1622 257.426 35.9875 257.152 35.8128C256.877 35.6381 256.628 35.4884 256.403 35.3636C257.351 34.4403 258.212 33.3298 258.986 32.0321C259.784 30.7344 260.446 29.4118 260.97 28.0642ZM271.563 28.738L273.959 27.7648C274.558 28.5384 275.144 29.3744 275.718 30.2728C276.292 31.1462 276.816 32.0196 277.291 32.8931C277.79 33.7665 278.164 34.5401 278.413 35.2139L275.831 36.3743C275.606 35.7005 275.269 34.9269 274.82 34.0535C274.371 33.1551 273.859 32.2442 273.285 31.3209C272.711 30.3975 272.137 29.5366 271.563 28.738ZM266.51 8.41197L269.579 8.97346C269.28 9.94672 268.98 10.9449 268.681 11.9681C268.406 12.9913 268.132 13.8397 267.857 14.5135L265.387 13.952C265.611 13.1535 265.824 12.2301 266.023 11.182C266.248 10.1339 266.41 9.21054 266.51 8.41197ZM266.36 25.1445H269.055V36.0749C269.055 36.7487 268.968 37.2852 268.793 37.6845C268.619 38.0838 268.282 38.3832 267.783 38.5829C267.283 38.7576 266.61 38.8699 265.761 38.9198C264.938 38.9697 263.902 38.9822 262.654 38.9572C262.604 38.6078 262.505 38.2085 262.355 37.7593C262.205 37.3102 262.043 36.9109 261.868 36.5615C262.767 36.5864 263.578 36.5989 264.301 36.5989C265.025 36.5989 265.512 36.5989 265.761 36.5989C266.16 36.574 266.36 36.3743 266.36 36V25.1445ZM245.323 6.91466L246.932 4.93071C247.681 5.25513 248.455 5.65442 249.253 6.12857C250.052 6.60272 250.801 7.08934 251.499 7.58845C252.198 8.0626 252.772 8.52427 253.221 8.97346L251.537 11.2194C251.112 10.7453 250.551 10.2587 249.852 9.75955C249.153 9.23549 248.405 8.72391 247.606 8.22481C246.833 7.7257 246.071 7.28899 245.323 6.91466ZM243.489 17.0215L245.061 14.9627C245.809 15.2622 246.583 15.6365 247.382 16.0857C248.205 16.5099 248.966 16.9591 249.665 17.4333C250.389 17.8825 250.975 18.3192 251.424 18.7434L249.777 20.9894C249.353 20.5652 248.792 20.116 248.093 19.6418C247.394 19.1427 246.633 18.6686 245.809 18.2194C245.011 17.7452 244.237 17.346 243.489 17.0215ZM244.275 36.8984C244.824 35.9002 245.423 34.7398 246.071 33.4171C246.745 32.0695 247.419 30.6471 248.093 29.1498C248.792 27.6525 249.415 26.1926 249.965 24.7701L252.21 26.3423C251.711 27.6649 251.15 29.0375 250.526 30.4599C249.927 31.8824 249.303 33.2799 248.654 34.6524C248.006 36.025 247.382 37.2977 246.783 38.4706L244.275 36.8984ZM288.708 19.3424V32.5936H285.975V21.9627H281.221V19.3424H288.708ZM288.708 31.4332C289.581 32.8057 290.829 33.8289 292.451 34.5027C294.073 35.1765 295.982 35.5633 298.178 35.6631C299.226 35.6881 300.499 35.713 301.996 35.738C303.494 35.738 305.066 35.738 306.713 35.738C308.36 35.713 309.957 35.6756 311.504 35.6257C313.051 35.5758 314.386 35.5134 315.509 35.4385C315.41 35.6381 315.297 35.9002 315.173 36.2246C315.048 36.549 314.936 36.8859 314.836 37.2353C314.736 37.5847 314.661 37.9091 314.611 38.2085C313.563 38.2335 312.315 38.2585 310.868 38.2834C309.445 38.3333 307.961 38.3583 306.413 38.3583C304.866 38.3832 303.369 38.3832 301.921 38.3583C300.474 38.3333 299.239 38.3084 298.215 38.2834C295.745 38.1836 293.636 37.7843 291.889 37.0856C290.142 36.3868 288.683 35.3013 287.51 33.8289C286.686 34.6275 285.838 35.426 284.964 36.2246C284.116 37.0481 283.23 37.8716 282.307 38.6952L280.847 35.9251C281.67 35.3262 282.556 34.6399 283.504 33.8663C284.478 33.0678 285.388 32.2567 286.237 31.4332H288.708ZM281.595 7.06439L283.729 5.49221C284.503 6.06618 285.276 6.71501 286.05 7.43872C286.848 8.16242 287.572 8.88612 288.221 9.60982C288.895 10.3335 289.419 11.0073 289.793 11.6312L287.51 13.3905C287.16 12.7667 286.661 12.0804 286.012 11.3317C285.364 10.5581 284.652 9.80946 283.879 9.08576C283.13 8.33711 282.369 7.66331 281.595 7.06439ZM290.804 7.70075H314.948V9.98415H290.804V7.70075ZM296.082 18.6311H309.445V20.5402H296.082V18.6311ZM301.248 4.55639H303.98V9.08576H301.248V4.55639ZM301.659 15.8985H303.793V23.7969H301.659V15.8985ZM292.189 13.8023H312.028V16.0857H294.772V33.4546H292.189V13.8023ZM297.766 23.2354H299.825V31.4706H297.766V23.2354ZM298.852 23.2354H307.836V30.0482H298.852V28.2514H305.739V25.0322H298.852V23.2354ZM310.98 13.8023H313.6V30.4225C313.6 31.1212 313.513 31.6703 313.338 32.0695C313.189 32.4439 312.877 32.7433 312.403 32.9679C311.878 33.1426 311.23 33.2549 310.456 33.3048C309.682 33.3547 308.734 33.3797 307.611 33.3797C307.561 33.0303 307.449 32.631 307.274 32.1818C307.1 31.7077 306.925 31.3084 306.75 30.984C307.599 31.009 308.36 31.0214 309.034 31.0214C309.707 31.0214 310.169 31.0214 310.419 31.0214C310.643 30.9965 310.793 30.9466 310.868 30.8717C310.943 30.7968 310.98 30.6471 310.98 30.4225V13.8023ZM307.461 9.53496L310.082 10.2088C309.707 10.9824 309.308 11.7435 308.884 12.4922C308.485 13.2159 308.11 13.8397 307.761 14.3638L305.552 13.7649C305.877 13.141 306.214 12.4298 306.563 11.6312C306.937 10.8326 307.237 10.1339 307.461 9.53496ZM295.52 10.321L297.841 9.72212C298.24 10.2961 298.602 10.9574 298.927 11.7061C299.276 12.4547 299.513 13.1036 299.638 13.6526L297.167 14.3264C297.068 13.7774 296.855 13.1285 296.531 12.3799C296.232 11.6312 295.895 10.9449 295.52 10.321ZM339.092 17.9948H350.322V20.7274H339.092V17.9948ZM337.782 17.9948H340.552V34.2781C340.552 34.9768 340.677 35.4385 340.926 35.6631C341.176 35.8627 341.737 35.9626 342.611 35.9626C342.811 35.9626 343.172 35.9626 343.696 35.9626C344.22 35.9626 344.794 35.9626 345.418 35.9626C346.042 35.9626 346.629 35.9626 347.178 35.9626C347.752 35.9626 348.163 35.9626 348.413 35.9626C348.987 35.9626 349.411 35.8004 349.686 35.4759C349.96 35.1515 350.16 34.5401 350.285 33.6417C350.409 32.7433 350.497 31.3958 350.547 29.599C350.796 29.7487 351.071 29.9109 351.37 30.0856C351.67 30.2603 351.982 30.41 352.306 30.5348C352.63 30.6346 352.917 30.722 353.167 30.7968C353.042 32.8182 352.843 34.4029 352.568 35.5508C352.294 36.6738 351.844 37.4599 351.22 37.9091C350.622 38.3832 349.748 38.6203 348.6 38.6203C348.45 38.6203 348.163 38.6203 347.739 38.6203C347.315 38.6203 346.816 38.6203 346.242 38.6203C345.693 38.6203 345.144 38.6203 344.595 38.6203C344.046 38.6203 343.559 38.6203 343.135 38.6203C342.736 38.6203 342.461 38.6203 342.311 38.6203C341.163 38.6203 340.253 38.4955 339.579 38.246C338.93 37.9964 338.468 37.5597 338.194 36.9358C337.919 36.3119 337.782 35.426 337.782 34.2781V17.9948ZM337.67 6.24087H351.744V23.2728H349.049V8.93603H337.67V6.24087ZM320.001 12.8665H334.975V38.3208H332.654V15.2996H322.285V38.8449H320.001V12.8665ZM321.162 27.9894H333.777V30.0856H321.162V27.9894ZM321.162 33.9786H333.777V36.262H321.162V33.9786ZM319.066 6.01627H335.836V8.52427H319.066V6.01627ZM324.456 6.69006H326.477V14.6258H324.456V6.69006ZM328.686 6.69006H330.745V14.6258H328.686V6.69006ZM324.83 14.5884H326.402V18.2943C326.402 19.0679 326.328 19.8914 326.178 20.7648C326.028 21.6383 325.741 22.5117 325.317 23.3851C324.918 24.2336 324.319 25.0197 323.52 25.7434C323.395 25.5687 323.196 25.3691 322.921 25.1445C322.672 24.9199 322.46 24.7452 322.285 24.6204C323.009 23.9965 323.545 23.3227 323.894 22.599C324.269 21.8504 324.518 21.1017 324.643 20.3531C324.768 19.6044 324.83 18.9057 324.83 18.2568V14.5884ZM328.499 14.5884H330.108V22.337C330.108 22.5616 330.133 22.7113 330.183 22.7862C330.233 22.8611 330.37 22.8985 330.595 22.8985C330.67 22.8985 330.795 22.8985 330.969 22.8985C331.144 22.8985 331.331 22.8985 331.531 22.8985C331.73 22.8985 331.88 22.8985 331.98 22.8985C332.304 22.8985 332.492 22.8611 332.541 22.7862C332.716 22.911 332.941 23.0357 333.215 23.1605C333.49 23.2603 333.752 23.3477 334.001 23.4226C333.926 23.7969 333.752 24.0714 333.477 24.2461C333.203 24.4208 332.803 24.5081 332.279 24.5081C332.18 24.5081 331.992 24.5081 331.718 24.5081C331.468 24.5081 331.219 24.5081 330.969 24.5081C330.72 24.5081 330.545 24.5081 330.445 24.5081C329.697 24.5081 329.185 24.3833 328.91 24.1338C328.636 23.8593 328.499 23.2728 328.499 22.3744V14.5884ZM374.391 34.1284H390.338V36.7861H374.391V34.1284ZM374.541 14.9627H388.541V27.6525H374.541V25.0322H385.846V17.6205H374.541V14.9627ZM373.006 6.3906H389.851V9.0109H375.739V38.9946H373.006V6.3906ZM363.199 10.7702H365.894V18.1071C365.894 19.6543 365.794 21.3263 365.595 23.1231C365.395 24.9199 365.008 26.7416 364.434 28.5883C363.885 30.435 363.074 32.2318 362.001 33.9786C360.928 35.7005 359.531 37.2727 357.809 38.6952C357.684 38.4955 357.497 38.2585 357.247 37.9839C356.998 37.7344 356.748 37.4848 356.498 37.2353C356.249 36.9857 356.024 36.811 355.825 36.7112C357.472 35.3886 358.782 33.9412 359.755 32.369C360.753 30.7968 361.49 29.1872 361.964 27.5402C362.463 25.8931 362.787 24.2586 362.937 22.6365C363.112 21.0144 363.199 19.4796 363.199 18.0322V10.7702ZM359.493 9.49753H371.022V12.0804H359.493V9.49753ZM355.974 19.8664H371.546V22.5242H355.974V19.8664ZM364.883 25.2568C365.133 25.4814 365.482 25.8557 365.932 26.3798C366.381 26.8789 366.867 27.4528 367.391 28.1017C367.915 28.7255 368.44 29.3619 368.964 30.0107C369.488 30.6596 369.962 31.246 370.386 31.7701C370.835 32.2692 371.147 32.6435 371.322 32.8931L369.488 35.2139C369.163 34.6898 368.727 34.041 368.178 33.2674C367.629 32.4938 367.03 31.6952 366.381 30.8717C365.757 30.0232 365.158 29.2371 364.584 28.5134C364.01 27.7648 363.548 27.1783 363.199 26.7541L364.883 25.2568ZM359.605 4.51895L362.263 5.00558C362.014 6.67758 361.689 8.32463 361.29 9.94672C360.916 11.5439 360.466 13.0536 359.942 14.4761C359.443 15.8985 358.882 17.1588 358.258 18.2568C358.083 18.1071 357.859 17.9449 357.584 17.7702C357.31 17.5705 357.023 17.3834 356.723 17.2087C356.449 17.0091 356.199 16.8593 355.974 16.7595C356.898 15.2622 357.659 13.428 358.258 11.2569C358.857 9.08576 359.306 6.83979 359.605 4.51895ZM405.685 8.18737H427.172V10.6954H405.685V8.18737ZM404.562 30.984H427.696V33.5294H404.562V30.984ZM414.894 4.59382H417.626V15.5242H414.894V4.59382ZM409.241 21.7381V25.1819H423.503V21.7381H409.241ZM409.241 16.2729V19.6793H423.503V16.2729H409.241ZM406.621 14.0643H426.198V27.4279H406.621V14.0643ZM394.83 6.166H403.626V8.71143H397.338V38.9946H394.83V6.166ZM402.803 6.166H403.29L403.739 6.0537L405.61 7.17669C405.236 8.19985 404.837 9.29788 404.413 10.4708C403.988 11.6187 403.552 12.7667 403.102 13.9146C402.678 15.0625 402.254 16.1356 401.83 17.1338C403.202 18.706 404.101 20.1659 404.525 21.5135C404.974 22.8361 405.199 24.0839 405.199 25.2568C405.199 26.255 405.074 27.1409 404.824 27.9145C404.6 28.6632 404.225 29.2246 403.701 29.599C403.452 29.7986 403.152 29.9484 402.803 30.0482C402.479 30.148 402.129 30.2353 401.755 30.3102C401.38 30.3352 400.969 30.3476 400.52 30.3476C400.07 30.3476 399.621 30.3352 399.172 30.3102C399.172 29.9858 399.11 29.5865 398.985 29.1124C398.86 28.6132 398.698 28.1765 398.498 27.8022C398.922 27.8272 399.309 27.8521 399.659 27.8771C400.033 27.8771 400.37 27.8771 400.669 27.8771C400.894 27.8521 401.106 27.8147 401.306 27.7648C401.505 27.6899 401.68 27.6026 401.83 27.5027C402.129 27.3031 402.341 26.9787 402.466 26.5295C402.591 26.0553 402.653 25.5313 402.653 24.9573C402.653 23.9341 402.416 22.7987 401.942 21.5509C401.493 20.3031 400.594 18.9431 399.247 17.4707C399.596 16.6222 399.933 15.7239 400.257 14.7756C400.607 13.8023 400.931 12.8415 401.231 11.8932C401.555 10.9449 401.842 10.0465 402.092 9.19806C402.366 8.34958 402.603 7.6134 402.803 6.98952V6.166ZM415.043 15.1125H417.477V26.3423H417.626V39.0321H414.894V26.3423H415.043V15.1125Z" fill="#232323"/>
<path d="M13.0641 234.141H35.7858V236.461H13.0641V234.141ZM16.0213 240.055L17.5186 238.371C18.1674 238.72 18.8537 239.132 19.5774 239.606C20.3011 240.08 20.9749 240.554 21.5988 241.028C22.2476 241.502 22.7841 241.927 23.2084 242.301L21.6362 244.248C21.2369 243.848 20.7129 243.399 20.064 242.9C19.4401 242.401 18.7663 241.902 18.0426 241.403C17.3439 240.904 16.6701 240.454 16.0213 240.055ZM28.1495 231.97L29.4971 230.622C30.1959 230.996 30.9196 231.433 31.6682 231.932C32.4418 232.431 33.0408 232.893 33.465 233.317L32.0425 234.777C31.6183 234.353 31.0319 233.879 30.2832 233.355C29.5345 232.83 28.8233 232.369 28.1495 231.97ZM15.7967 235.226H18.3795C18.2298 237.148 17.9678 238.994 17.5935 240.766C17.2441 242.538 16.6826 244.16 15.909 245.633C15.1354 247.08 14.0373 248.328 12.6149 249.376C12.4402 249.076 12.1782 248.739 11.8288 248.365C11.5044 248.016 11.1924 247.729 10.893 247.504C12.1657 246.631 13.1265 245.545 13.7753 244.248C14.4491 242.95 14.9357 241.527 15.2352 239.98C15.5346 238.433 15.7218 236.848 15.7967 235.226ZM22.5346 215.05H25.0426C25.0176 218.768 25.105 222.262 25.3046 225.531C25.5043 228.775 25.8037 231.72 26.203 234.365C26.6023 236.986 27.1139 239.256 27.7378 241.178C28.3866 243.075 29.1228 244.535 29.9463 245.558C30.7698 246.556 31.6807 247.055 32.6789 247.055C33.2279 247.055 33.6147 246.768 33.8393 246.194C34.0639 245.62 34.2261 244.485 34.3259 242.788C34.6005 243.062 34.9249 243.312 35.2992 243.536C35.6735 243.761 36.0104 243.936 36.3099 244.06C36.1602 245.458 35.948 246.543 35.6735 247.317C35.399 248.116 35.0122 248.677 34.5131 249.001C34.014 249.351 33.3402 249.526 32.4917 249.526C30.9944 249.526 29.6843 248.939 28.5613 247.766C27.4633 246.618 26.5274 244.996 25.7538 242.9C25.0052 240.779 24.3938 238.283 23.9196 235.413C23.4455 232.544 23.0961 229.387 22.8715 225.943C22.6718 222.474 22.5595 218.843 22.5346 215.05ZM30.9196 237.023L33.3527 237.921C32.1299 240.517 30.408 242.788 28.187 244.734C25.9659 246.656 23.408 248.215 20.5132 249.413C20.3385 249.164 20.1015 248.864 19.802 248.515C19.5025 248.165 19.228 247.866 18.9785 247.616C21.7735 246.518 24.2066 245.059 26.2779 243.237C28.3492 241.415 29.8964 239.344 30.9196 237.023ZM25.2298 221.526L26.3902 219.991C27.2137 220.565 28.0372 221.239 28.8607 222.012C29.7092 222.761 30.3581 223.447 30.8073 224.071L29.572 225.831C29.1477 225.207 28.5239 224.495 27.7003 223.697C26.8768 222.873 26.0533 222.15 25.2298 221.526ZM32.2297 226.093L33.9516 225.381C34.5006 226.255 34.9873 227.203 35.4115 228.226C35.8607 229.224 36.1602 230.085 36.3099 230.809L34.4757 231.67C34.301 230.921 34.0015 230.023 33.5773 228.975C33.178 227.902 32.7288 226.941 32.2297 226.093ZM25.7164 228.675C26.8893 228.626 28.2244 228.551 29.7217 228.451C31.219 228.351 32.7912 228.251 34.4382 228.151L34.4757 230.06C32.9784 230.21 31.531 230.36 30.1335 230.51C28.736 230.634 27.4009 230.759 26.1281 230.884L25.7164 228.675ZM29.572 215.387L31.7805 216.248C31.2315 217.271 30.6575 218.344 30.0586 219.467C29.4597 220.565 28.8982 221.501 28.3741 222.274L26.8019 221.526C27.1264 220.977 27.4508 220.34 27.7752 219.617C28.1246 218.893 28.4615 218.157 28.7859 217.408C29.1103 216.659 29.3723 215.986 29.572 215.387ZM32.6789 219.13L34.7377 220.103C34.1138 221.176 33.4276 222.312 32.6789 223.51C31.9302 224.683 31.1816 225.831 30.4329 226.954C29.6843 228.052 28.9606 229.025 28.2618 229.873L26.6896 228.975C27.3634 228.126 28.0622 227.128 28.7859 225.98C29.5345 224.807 30.2458 223.622 30.9196 222.424C31.6183 221.226 32.2047 220.128 32.6789 219.13ZM12.5774 221.526L13.7379 219.991C14.5614 220.565 15.3849 221.239 16.2084 222.012C17.0569 222.761 17.6933 223.447 18.1175 224.071L16.9197 225.831C16.4954 225.207 15.8591 224.495 15.0106 223.697C14.1871 222.873 13.376 222.15 12.5774 221.526ZM19.0533 226.317L20.7752 225.681C21.2744 226.529 21.7235 227.465 22.1228 228.488C22.5221 229.511 22.7841 230.385 22.9089 231.109L21.0373 231.895C20.9375 231.146 20.7004 230.248 20.3261 229.199C19.9517 228.151 19.5275 227.191 19.0533 226.317ZM12.6897 229.125C13.8626 229.05 15.1977 228.962 16.6951 228.863C18.2173 228.738 19.802 228.626 21.449 228.526L21.4865 230.51C19.9892 230.684 18.5293 230.834 17.1068 230.959C15.6844 231.084 14.3493 231.208 13.1015 231.333L12.6897 229.125ZM16.9197 215.387L19.0908 216.248C18.5418 217.271 17.9678 218.356 17.3689 219.504C16.7699 220.627 16.2209 221.576 15.7218 222.349L14.1122 221.601C14.4366 221.027 14.7735 220.378 15.1229 219.654C15.4723 218.93 15.8092 218.194 16.1336 217.446C16.458 216.672 16.72 215.986 16.9197 215.387ZM20.0266 219.13L22.048 220.103C21.3991 221.201 20.6879 222.374 19.9143 223.622C19.1656 224.845 18.392 226.03 17.5935 227.178C16.8198 228.326 16.0712 229.337 15.3475 230.21L13.7753 229.349C14.474 228.451 15.2102 227.403 15.9838 226.205C16.7575 225.007 17.4936 223.784 18.1924 222.536C18.9161 221.289 19.5275 220.153 20.0266 219.13ZM1.94651 223.135H13.2887V225.756H1.94651V223.135ZM6.66305 215.012H9.20849V249.413H6.66305V215.012ZM6.58819 224.708L8.23523 225.232C7.98568 226.679 7.66126 228.214 7.26198 229.836C6.86269 231.433 6.4135 233.005 5.91439 234.552C5.41529 236.1 4.87875 237.535 4.30478 238.857C3.75576 240.18 3.16932 241.315 2.54544 242.264C2.3957 241.914 2.17111 241.515 1.87164 241.066C1.59714 240.617 1.36006 240.23 1.16042 239.905C1.73439 239.057 2.28341 238.046 2.80747 236.873C3.35648 235.7 3.86806 234.428 4.34221 233.055C4.84132 231.683 5.27804 230.285 5.65236 228.863C6.05165 227.415 6.36359 226.03 6.58819 224.708ZM9.05876 227.178C9.2584 227.428 9.54538 227.864 9.91971 228.488C10.319 229.087 10.7557 229.761 11.2299 230.51C11.704 231.233 12.1283 231.92 12.5026 232.568C12.9019 233.192 13.1764 233.642 13.3261 233.916L11.8662 235.975C11.6915 235.526 11.4295 234.939 11.0801 234.216C10.7308 233.492 10.344 232.743 9.91971 231.97C9.52043 231.171 9.13362 230.447 8.75929 229.798C8.38496 229.125 8.09798 228.601 7.89834 228.226L9.05876 227.178ZM8.5347 272.814V278.429H29.0853V272.814H8.5347ZM6.10156 270.868H31.5933V280.376H6.10156V270.868ZM12.2406 266.825H25.3046V268.847H12.2406V266.825ZM17.4063 271.467H19.7646V279.29H17.4063V271.467ZM18.5293 262.258C17.4312 263.406 16.0337 264.567 14.3368 265.74C12.6648 266.913 10.8306 268.023 8.83416 269.071C6.83774 270.119 4.80389 271.043 2.7326 271.841C2.58287 271.517 2.37075 271.142 2.09624 270.718C1.82173 270.269 1.54723 269.895 1.27272 269.595C3.39391 268.872 5.4652 267.998 7.48657 266.975C9.50795 265.927 11.3422 264.804 12.9892 263.606C14.6612 262.408 16.0213 261.21 17.0694 260.012H19.7271C21.1246 261.36 22.7342 262.633 24.556 263.831C26.4027 265.003 28.3367 266.052 30.3581 266.975C32.3794 267.898 34.3509 268.647 36.2725 269.221C35.973 269.52 35.6735 269.895 35.3741 270.344C35.0746 270.793 34.8251 271.205 34.6254 271.579C33.2529 271.08 31.8179 270.494 30.3206 269.82C28.8483 269.146 27.3884 268.397 25.941 267.574C24.4936 266.75 23.1335 265.889 21.8608 264.991C20.5881 264.093 19.4776 263.182 18.5293 262.258ZM10.7807 273.9L12.8395 273.226C13.3136 273.9 13.7503 274.636 14.1496 275.435C14.5739 276.208 14.8733 276.895 15.048 277.494L12.9143 278.28C12.7646 277.681 12.4901 276.97 12.0908 276.146C11.6915 275.322 11.2548 274.574 10.7807 273.9ZM24.2565 273.077L26.6522 273.863C26.228 274.661 25.7913 275.46 25.3421 276.258C24.8929 277.057 24.4811 277.731 24.1068 278.28L22.1603 277.606C22.5096 276.982 22.884 276.233 23.2832 275.36C23.7075 274.486 24.0319 273.725 24.2565 273.077ZM8.3101 282.135H29.4971V294.376H26.6522V284.157H11.0801V294.451H8.3101V282.135ZM9.95714 286.665H27.8501V288.686H9.95714V286.665ZM9.99458 291.269H27.8875V293.253H9.99458V291.269ZM12.016 306.697H35.2618V308.831H12.016V306.697ZM16.1336 314.034H31.0319V315.494H16.1336V314.034ZM16.1336 317.103H31.0319V318.601H16.1336V317.103ZM14.6737 310.777H32.4169V321.183H29.7591V312.424H17.2191V321.183H14.6737V310.777ZM10.9678 320.248H35.9356V325.301H33.3527V322.044H13.401V325.301H10.9678V320.248ZM15.7967 323.167L17.6683 324.216C17.1692 324.914 16.5703 325.663 15.8715 326.461C15.1977 327.235 14.4241 327.896 13.5507 328.445L11.8288 326.986C12.6274 326.536 13.376 325.962 14.0748 325.264C14.7735 324.54 15.3475 323.841 15.7967 323.167ZM18.0052 323.055H20.3635V325.413C20.3635 325.763 20.4508 325.987 20.6255 326.087C20.8002 326.187 21.212 326.237 21.8608 326.237C22.0105 326.237 22.285 326.237 22.6843 326.237C23.1086 326.237 23.5702 326.237 24.0693 326.237C24.5684 326.237 25.0426 326.237 25.4918 326.237C25.941 326.237 26.2654 326.237 26.465 326.237C26.9142 326.237 27.2137 326.15 27.3634 325.975C27.5132 325.775 27.613 325.314 27.6629 324.59C27.8875 324.715 28.187 324.839 28.5613 324.964C28.9606 325.064 29.2975 325.151 29.572 325.226C29.4721 326.299 29.2226 327.023 28.8233 327.397C28.449 327.772 27.7752 327.959 26.8019 327.959C26.6522 327.959 26.3278 327.959 25.8287 327.959C25.3545 327.959 24.818 327.959 24.2191 327.959C23.6201 327.959 23.0711 327.959 22.572 327.959C22.0979 327.959 21.7735 327.959 21.5988 327.959C20.6505 327.959 19.9143 327.896 19.3902 327.772C18.8911 327.622 18.5293 327.372 18.3047 327.023C18.105 326.649 18.0052 326.112 18.0052 325.413V323.055ZM20.7378 322.269L22.3474 321.146C23.0711 321.52 23.8073 321.982 24.556 322.531C25.3046 323.055 25.8786 323.554 26.2779 324.028L24.5934 325.264C24.2191 324.789 23.6576 324.265 22.9089 323.691C22.1603 323.117 21.4366 322.643 20.7378 322.269ZM28.9356 324.066L30.7324 323.018C31.5559 323.642 32.3794 324.365 33.203 325.189C34.0265 325.987 34.6504 326.711 35.0746 327.36L33.203 328.483C32.8037 327.834 32.1923 327.098 31.3687 326.274C30.5702 325.426 29.7591 324.69 28.9356 324.066ZM19.9517 327.173L22.6095 327.734C21.3866 329.032 19.9018 330.267 18.1549 331.44C16.433 332.613 14.3992 333.674 12.0534 334.622C11.8787 334.322 11.6291 333.998 11.3047 333.649C10.9803 333.299 10.6808 333.037 10.4063 332.862C12.6024 332.089 14.5115 331.203 16.1336 330.205C17.7806 329.182 19.0533 328.171 19.9517 327.173ZM29.6468 329.568H30.2083L30.695 329.456L32.4917 330.429C30.8946 332.75 28.3242 334.672 24.7806 336.194C21.2369 337.716 16.8448 338.827 11.6042 339.526C11.4794 339.226 11.2798 338.864 11.0053 338.44C10.7308 338.041 10.4687 337.704 10.2192 337.429C15.2102 336.855 19.3778 335.92 22.7218 334.622C26.0907 333.324 28.3991 331.789 29.6468 330.018V329.568ZM17.8555 330.579C18.9785 331.852 20.4758 332.95 22.3474 333.873C24.244 334.797 26.3902 335.533 28.7859 336.082C31.1816 336.631 33.7145 337.018 36.3848 337.242C36.1102 337.542 35.8108 337.916 35.4864 338.365C35.1869 338.814 34.9498 339.226 34.7751 339.6C32.055 339.276 29.4597 338.764 26.9891 338.066C24.5435 337.392 22.3474 336.506 20.4009 335.408C18.4544 334.31 16.8323 332.987 15.5346 331.44L17.8555 330.579ZM18.5293 329.568H30.4329V331.365H16.6951L18.5293 329.568ZM21.8608 307.67L24.9677 308.007C24.6932 308.731 24.4187 309.43 24.1442 310.103C23.8947 310.777 23.6576 311.376 23.433 311.9L20.9998 311.488C21.1745 310.889 21.3367 310.241 21.4865 309.542C21.6612 308.843 21.7859 308.219 21.8608 307.67ZM8.72186 305.2L11.3047 305.911C10.606 308.082 9.76998 310.228 8.79673 312.349C7.84843 314.47 6.81278 316.479 5.6898 318.376C4.56681 320.248 3.38144 321.907 2.13367 323.355C2.05881 323.13 1.93403 322.843 1.75935 322.494C1.58466 322.119 1.39749 321.757 1.19785 321.408C0.99821 321.034 0.823523 320.734 0.673792 320.51C1.77182 319.237 2.81994 317.79 3.81815 316.167C4.81636 314.52 5.72723 312.761 6.55075 310.889C7.39923 309.018 8.12293 307.121 8.72186 305.2ZM5.6898 314.371L8.3101 311.788L8.38496 311.863V339.451H5.6898V314.371ZM22.1228 368.093H24.9303V379.846C24.9303 380.395 25.0301 380.757 25.2298 380.932C25.4544 381.082 25.916 381.157 26.6148 381.157C26.7895 381.157 27.0889 381.157 27.5132 381.157C27.9374 381.157 28.3991 381.157 28.8982 381.157C29.4222 381.157 29.9089 381.157 30.3581 381.157C30.8322 381.157 31.1691 381.157 31.3687 381.157C31.8429 381.157 32.1923 381.032 32.4169 380.782C32.6664 380.508 32.8286 379.971 32.9035 379.173C33.0033 378.374 33.0782 377.164 33.1281 375.542C33.3277 375.691 33.5773 375.854 33.8768 376.028C34.2012 376.178 34.5256 376.315 34.85 376.44C35.1744 376.54 35.4614 376.627 35.711 376.702C35.6111 378.599 35.424 380.071 35.1495 381.119C34.8999 382.142 34.4882 382.854 33.9142 383.253C33.3652 383.652 32.5916 383.852 31.5933 383.852C31.4187 383.852 31.0818 383.852 30.5827 383.852C30.0836 383.852 29.5345 383.852 28.9356 383.852C28.3367 383.852 27.7877 383.852 27.2886 383.852C26.8144 383.852 26.49 383.852 26.3153 383.852C25.1923 383.852 24.3314 383.727 23.7324 383.477C23.1335 383.253 22.7093 382.841 22.4597 382.242C22.2351 381.668 22.1228 380.87 22.1228 379.846V368.093ZM2.28341 366.109H35.1869V368.841H2.28341V366.109ZM8.45983 355.852H32.4917V358.547H8.45983V355.852ZM12.1283 368.205H15.048C14.8733 370.101 14.5739 371.886 14.1496 373.558C13.7503 375.23 13.1389 376.764 12.3154 378.162C11.4919 379.535 10.3689 380.77 8.94646 381.868C7.54896 382.966 5.75219 383.889 3.55612 384.638C3.4563 384.388 3.29409 384.114 3.0695 383.814C2.86985 383.54 2.65773 383.253 2.43314 382.953C2.20854 382.679 1.98394 382.454 1.75935 382.28C3.80568 381.631 5.47768 380.845 6.77535 379.921C8.07302 378.998 9.08371 377.937 9.80741 376.74C10.5311 375.517 11.0552 374.194 11.3796 372.772C11.729 371.349 11.9785 369.827 12.1283 368.205ZM9.20849 350.873L12.0534 351.472C11.6541 352.895 11.1675 354.38 10.5935 355.927C10.0445 357.474 9.39565 358.984 8.64699 360.456C7.92329 361.904 7.12472 363.176 6.25129 364.274C6.05165 364.125 5.8021 363.975 5.50263 363.825C5.20317 363.65 4.90371 363.488 4.60424 363.339C4.32974 363.164 4.06771 363.039 3.81815 362.964C4.69159 361.891 5.4652 360.668 6.13899 359.296C6.83774 357.898 7.44914 356.476 7.9732 355.028C8.49726 353.556 8.90902 352.171 9.20849 350.873ZM17.294 350.012H20.1389V367.007H17.294V350.012ZM8.4224 405.494H35.0746V407.814H8.4224V405.494ZM8.94646 416.424H30.3955V418.745H8.94646V416.424ZM14.4491 402.237H17.1443V411.782H26.2404V402.237H29.0105V414.028H14.4491V402.237ZM29.6468 416.424H30.2083L30.695 416.312L32.4543 417.248C31.4311 419.194 30.096 420.879 28.449 422.301C26.8019 423.698 24.9303 424.871 22.8341 425.82C20.7378 426.768 18.4918 427.529 16.0961 428.103C13.7004 428.702 11.2299 429.151 8.68443 429.451C8.60956 429.126 8.44735 428.727 8.1978 428.253C7.9732 427.779 7.73613 427.392 7.48657 427.092C9.85732 426.843 12.1782 426.481 14.4491 426.007C16.72 425.508 18.8412 424.846 20.8127 424.023C22.8091 423.199 24.5684 422.201 26.0907 421.028C27.613 419.855 28.7984 418.458 29.6468 416.836V416.424ZM15.6095 418.371C16.8074 420.043 18.417 421.477 20.4383 422.675C22.4847 423.873 24.8305 424.834 27.4757 425.558C30.121 426.281 32.9534 426.793 35.973 427.092C35.7983 427.292 35.5987 427.542 35.3741 427.841C35.1744 428.141 34.9748 428.428 34.7751 428.702C34.6005 429.001 34.4507 429.276 34.3259 429.526C31.2565 429.126 28.3741 428.49 25.679 427.616C22.9838 426.768 20.5631 425.657 18.417 424.285C16.2958 422.887 14.5614 421.228 13.2138 419.306L15.6095 418.371ZM18.3795 395.012H21.2619V400.141H18.3795V395.012ZM5.91439 398.718H35.2992V401.264H5.91439V398.718ZM4.52938 398.718H7.22454V409.536C7.22454 410.984 7.17463 412.568 7.07481 414.29C6.99995 416.012 6.82526 417.772 6.55075 419.568C6.3012 421.365 5.92687 423.112 5.42777 424.809C4.95362 426.506 4.30478 428.066 3.48126 429.488C3.33153 429.338 3.10693 429.151 2.80747 428.927C2.53296 428.727 2.24597 428.527 1.94651 428.328C1.672 428.153 1.40997 428.028 1.16042 427.953C1.93403 426.606 2.54544 425.158 2.99463 423.611C3.44382 422.039 3.78072 420.429 4.00532 418.782C4.22991 417.135 4.36717 415.526 4.41708 413.953C4.49195 412.356 4.52938 410.884 4.52938 409.536V398.718Z" fill="#232323"/>
<path d="M50.1936 92.3697H76.2169V94.3462H50.1936V92.3697ZM61.9026 89.4949H64.2084V93.328H61.9026V89.4949ZM51.5412 104.079H73.7913V105.995H53.7272V117.075H51.5412V104.079ZM72.8629 104.079H75.1089V114.38C75.1089 114.999 75.0191 115.488 74.8394 115.848C74.6797 116.207 74.3602 116.476 73.8811 116.656C73.402 116.836 72.7431 116.936 71.9046 116.956C71.0861 116.996 70.048 117.015 68.7902 117.015C68.7503 116.696 68.6605 116.337 68.5207 115.937C68.381 115.538 68.2312 115.189 68.0715 114.889C69.0498 114.909 69.9182 114.919 70.6768 114.919C71.4555 114.939 71.9645 114.939 72.2041 114.919C72.4636 114.899 72.6333 114.849 72.7132 114.77C72.813 114.69 72.8629 114.55 72.8629 114.35V104.079ZM57.5304 107.942H59.5069V115.818H57.5304V107.942ZM58.5785 107.942H68.94V114.29H58.5785V112.643H66.9336V109.589H58.5785V107.942ZM57.3208 97.6702V100.545H69.0597V97.6702H57.3208ZM55.1647 96.0231H71.3057V102.222H55.1647V96.0231Z" fill="#232323"/>
<path d="M73.8212 509.992L75.5581 511.728C74.2205 512.128 72.7032 512.507 71.0063 512.866C69.3093 513.206 67.5525 513.515 65.7357 513.795C63.919 514.054 62.1521 514.274 60.4352 514.454C60.3953 514.214 60.3054 513.915 60.1657 513.555C60.0259 513.196 59.8962 512.896 59.7764 512.657C61.0341 512.517 62.3118 512.357 63.6095 512.178C64.9072 511.978 66.1849 511.758 67.4426 511.519C68.7004 511.279 69.8783 511.04 70.9763 510.8C72.0743 510.541 73.0226 510.271 73.8212 509.992ZM59.1775 512.028L61.3635 512.747V530.325H59.1775V512.028ZM57.1411 529.936C58.5785 529.716 60.2855 529.437 62.2619 529.097C64.2384 528.758 66.2448 528.399 68.2811 528.019L68.4009 530.026C66.5243 530.405 64.6377 530.774 62.7411 531.134C60.8445 531.473 59.1475 531.782 57.6502 532.062L57.1411 529.936ZM60.4053 519.485H76.9656V521.551H60.4053V519.485ZM67.3528 512.687H69.5988C69.6187 514.943 69.7186 517.099 69.8982 519.155C70.0979 521.191 70.3574 523.068 70.6768 524.785C71.0162 526.502 71.3956 527.989 71.8148 529.247C72.254 530.485 72.7232 531.453 73.2223 532.152C73.7214 532.851 74.2205 533.2 74.7196 533.2C75.039 533.2 75.2686 532.871 75.4084 532.212C75.5681 531.553 75.6779 530.495 75.7378 529.037C75.9773 529.277 76.2668 529.507 76.6062 529.726C76.9656 529.926 77.275 530.086 77.5345 530.205C77.4347 531.543 77.265 532.591 77.0255 533.35C76.8059 534.108 76.4964 534.637 76.0971 534.937C75.6978 535.236 75.1788 535.386 74.5399 535.386C73.6415 535.386 72.813 534.987 72.0544 534.188C71.3157 533.39 70.6669 532.282 70.1079 530.864C69.5489 529.447 69.0697 527.78 68.6704 525.863C68.2712 523.947 67.9617 521.87 67.7421 519.634C67.5225 517.398 67.3927 515.082 67.3528 512.687ZM58.0395 533.769H70.7966V535.775H58.0395V533.769ZM56.1529 509.123L58.2791 509.752C57.6402 511.449 56.8816 513.126 56.0032 514.783C55.1247 516.42 54.1764 517.967 53.1583 519.425C52.1401 520.882 51.082 522.17 49.984 523.288C49.9241 523.108 49.8143 522.878 49.6545 522.599C49.5148 522.319 49.3551 522.04 49.1754 521.76C49.0157 521.461 48.866 521.231 48.7262 521.072C49.7244 520.093 50.6827 518.965 51.6011 517.688C52.5194 516.41 53.3679 515.042 54.1465 513.585C54.9251 512.108 55.5939 510.62 56.1529 509.123ZM53.0385 516.819L55.1647 514.693L55.1946 514.723V536.494H53.0385V516.819Z" fill="#232323"/>
<path d="M122.9 552.185L124.637 553.922C123.299 554.321 121.782 554.7 120.085 555.06C118.388 555.399 116.631 555.709 114.814 555.988C112.998 556.248 111.231 556.467 109.514 556.647C109.474 556.407 109.384 556.108 109.244 555.749C109.105 555.389 108.975 555.09 108.855 554.85C110.113 554.71 111.39 554.551 112.688 554.371C113.986 554.171 115.264 553.952 116.521 553.712C117.779 553.473 118.957 553.233 120.055 552.993C121.153 552.734 122.101 552.464 122.9 552.185ZM108.256 554.221L110.442 554.94V572.518H108.256V554.221ZM106.22 572.129C107.657 571.91 109.364 571.63 111.341 571.291C113.317 570.951 115.323 570.592 117.36 570.213L117.48 572.219C115.603 572.598 113.716 572.968 111.82 573.327C109.923 573.666 108.226 573.976 106.729 574.255L106.22 572.129ZM109.484 561.678H126.044V563.744H109.484V561.678ZM116.431 554.88H118.677C118.697 557.136 118.797 559.292 118.977 561.348C119.176 563.385 119.436 565.261 119.755 566.978C120.095 568.695 120.474 570.183 120.893 571.44C121.333 572.678 121.802 573.646 122.301 574.345C122.8 575.044 123.299 575.393 123.798 575.393C124.118 575.393 124.347 575.064 124.487 574.405C124.647 573.746 124.756 572.688 124.816 571.231C125.056 571.47 125.345 571.7 125.685 571.92C126.044 572.119 126.354 572.279 126.613 572.399C126.513 573.736 126.344 574.784 126.104 575.543C125.884 576.302 125.575 576.831 125.176 577.13C124.776 577.43 124.257 577.579 123.619 577.579C122.72 577.579 121.892 577.18 121.133 576.382C120.394 575.583 119.745 574.475 119.186 573.057C118.627 571.64 118.148 569.973 117.749 568.056C117.35 566.14 117.04 564.064 116.821 561.828C116.601 559.592 116.471 557.276 116.431 554.88ZM107.118 575.962H119.875V577.969H107.118V575.962ZM105.232 551.316L107.358 551.945C106.719 553.642 105.96 555.319 105.082 556.976C104.203 558.613 103.255 560.161 102.237 561.618C101.219 563.075 100.161 564.363 99.0626 565.481C99.0027 565.301 98.8929 565.072 98.7332 564.792C98.5934 564.513 98.4337 564.233 98.254 563.954C98.0943 563.654 97.9446 563.425 97.8048 563.265C98.803 562.287 99.7613 561.159 100.68 559.881C101.598 558.603 102.447 557.236 103.225 555.778C104.004 554.301 104.673 552.814 105.232 551.316ZM102.117 559.013L104.243 556.886L104.273 556.916V578.687H102.117V559.013Z" fill="#232323"/>
<path d="M519.299 554.042H545.322V556.018H519.299V554.042ZM531.008 551.167H533.313V555H531.008V551.167ZM520.646 565.751H542.896V567.667H522.832V578.747H520.646V565.751ZM541.968 565.751H544.214V576.052C544.214 576.671 544.124 577.16 543.944 577.519C543.785 577.879 543.465 578.148 542.986 578.328C542.507 578.508 541.848 578.608 541.01 578.627C540.191 578.667 539.153 578.687 537.895 578.687C537.855 578.368 537.765 578.009 537.626 577.609C537.486 577.21 537.336 576.861 537.177 576.561C538.155 576.581 539.023 576.591 539.782 576.591C540.56 576.611 541.07 576.611 541.309 576.591C541.569 576.571 541.738 576.521 541.818 576.441C541.918 576.362 541.968 576.222 541.968 576.022V565.751ZM526.635 569.614H528.612V577.49H526.635V569.614ZM527.684 569.614H538.045V575.962H527.684V574.315H536.039V571.261H527.684V569.614ZM526.426 559.342V562.217H538.165V559.342H526.426ZM524.27 557.695H540.411V563.894H524.27V557.695Z" fill="#232323"/>
</svg>
