<svg width="622" height="660" viewBox="0 0 622 660" fill="none" xmlns="http://www.w3.org/2000/svg">
<path d="M390.6 74.0342L389.768 523.645" stroke="#848484" stroke-width="0.831842" stroke-dasharray="11.65 11.65"/>
<path d="M615.197 298.631L165.586 298.631" stroke="#848484" stroke-width="0.831842" stroke-dasharray="11.65 11.65"/>
<rect x="165.587" y="74.4501" width="451.69" height="451.69" stroke="#232323" stroke-width="0.831842"/>
<rect x="190.5" y="418" width="79.8568" height="79.8568" rx="39.9284" fill="#631515"/>
<path d="M214.204 468.929V446.003H216.98V456.212H229.204V446.003H231.98V468.929H229.204V458.675H216.98V468.929H214.204ZM245.195 446.003V468.929H242.419V448.914H242.285L236.688 452.63V449.809L242.419 446.003H245.195Z" fill="white"/>
<rect x="190.5" y="260" width="79.8568" height="79.8568" rx="39.9284" fill="#923F3F"/>
<path d="M211.704 310.929V288.003H214.48V298.212H226.704V288.003H229.48V310.929H226.704V300.675H214.48V310.929H211.704ZM234.635 310.929V308.914L242.203 300.63C243.091 299.66 243.822 298.817 244.397 298.1C244.971 297.376 245.397 296.697 245.673 296.063C245.956 295.421 246.098 294.75 246.098 294.048C246.098 293.242 245.904 292.544 245.516 291.955C245.135 291.365 244.613 290.91 243.949 290.589C243.285 290.268 242.538 290.108 241.71 290.108C240.829 290.108 240.061 290.291 239.404 290.656C238.755 291.015 238.251 291.518 237.893 292.167C237.542 292.817 237.367 293.578 237.367 294.451H234.725C234.725 293.108 235.035 291.929 235.654 290.914C236.273 289.899 237.117 289.108 238.184 288.541C239.258 287.973 240.464 287.69 241.8 287.69C243.143 287.69 244.333 287.973 245.37 288.541C246.408 289.108 247.221 289.873 247.811 290.835C248.4 291.798 248.695 292.869 248.695 294.048C248.695 294.891 248.542 295.716 248.236 296.522C247.938 297.32 247.415 298.212 246.669 299.197C245.93 300.175 244.904 301.369 243.591 302.779L238.441 308.287V308.466H249.098V310.929H234.635Z" fill="white"/>
<rect x="349.5" y="418" width="79.8568" height="79.8568" rx="39.9284" fill="#923F3F"/>
<path d="M370.704 468.929V446.003H373.48V456.212H385.704V446.003H388.48V468.929H385.704V458.675H373.48V468.929H370.704ZM393.635 468.929V466.914L401.203 458.63C402.091 457.66 402.822 456.817 403.397 456.1C403.971 455.376 404.397 454.697 404.673 454.063C404.956 453.421 405.098 452.75 405.098 452.048C405.098 451.242 404.904 450.544 404.516 449.955C404.135 449.365 403.613 448.91 402.949 448.589C402.285 448.268 401.538 448.108 400.71 448.108C399.829 448.108 399.061 448.291 398.404 448.656C397.755 449.015 397.251 449.518 396.893 450.167C396.542 450.817 396.367 451.578 396.367 452.451H393.725C393.725 451.108 394.035 449.929 394.654 448.914C395.273 447.899 396.117 447.108 397.184 446.541C398.258 445.973 399.464 445.69 400.8 445.69C402.143 445.69 403.333 445.973 404.37 446.541C405.408 447.108 406.221 447.873 406.811 448.835C407.4 449.798 407.695 450.869 407.695 452.048C407.695 452.891 407.542 453.716 407.236 454.522C406.938 455.32 406.415 456.212 405.669 457.197C404.93 458.175 403.904 459.369 402.591 460.779L397.441 466.287V466.466H408.098V468.929H393.635Z" fill="white"/>
<rect x="190.5" y="102" width="79.8568" height="79.8568" rx="39.9284" fill="#E27F7F"/>
<path d="M211.204 152.929V130.003H213.98V140.212H226.204V130.003H228.98V152.929H226.204V142.675H213.98V152.929H211.204ZM241.882 153.242C240.404 153.242 239.087 152.988 237.93 152.481C236.781 151.973 235.867 151.268 235.188 150.365C234.516 149.455 234.15 148.399 234.091 147.197H236.911C236.971 147.936 237.225 148.574 237.673 149.112C238.12 149.641 238.706 150.052 239.43 150.343C240.154 150.634 240.956 150.779 241.837 150.779C242.822 150.779 243.695 150.608 244.456 150.265C245.217 149.921 245.814 149.444 246.247 148.832C246.68 148.22 246.897 147.511 246.897 146.705C246.897 145.862 246.688 145.119 246.27 144.477C245.852 143.828 245.24 143.32 244.434 142.955C243.628 142.589 242.643 142.406 241.479 142.406H239.643V139.944H241.479C242.389 139.944 243.188 139.779 243.874 139.451C244.568 139.123 245.109 138.66 245.497 138.063C245.893 137.466 246.091 136.765 246.091 135.959C246.091 135.182 245.919 134.507 245.576 133.932C245.232 133.358 244.747 132.91 244.12 132.589C243.501 132.268 242.77 132.108 241.926 132.108C241.135 132.108 240.389 132.253 239.688 132.544C238.994 132.828 238.426 133.242 237.986 133.787C237.546 134.324 237.307 134.973 237.27 135.735H234.583C234.628 134.533 234.99 133.481 235.669 132.578C236.348 131.667 237.236 130.959 238.333 130.451C239.438 129.944 240.65 129.69 241.971 129.69C243.389 129.69 244.605 129.977 245.62 130.552C246.635 131.119 247.415 131.869 247.96 132.802C248.505 133.735 248.777 134.742 248.777 135.824C248.777 137.115 248.438 138.216 247.758 139.126C247.087 140.037 246.173 140.668 245.016 141.018V141.197C246.464 141.436 247.594 142.052 248.408 143.044C249.221 144.029 249.628 145.25 249.628 146.705C249.628 147.951 249.288 149.07 248.609 150.063C247.938 151.048 247.02 151.824 245.855 152.391C244.691 152.959 243.367 153.242 241.882 153.242Z" fill="white"/>
<rect x="508.5" y="418" width="79.8568" height="79.8568" rx="39.9284" fill="#E27F7F"/>
<path d="M529.204 468.929V446.003H531.98V456.212H544.204V446.003H546.98V468.929H544.204V458.675H531.98V468.929H529.204ZM559.882 469.242C558.404 469.242 557.087 468.988 555.93 468.481C554.781 467.973 553.867 467.268 553.188 466.365C552.516 465.455 552.15 464.399 552.091 463.197H554.911C554.971 463.936 555.225 464.574 555.673 465.112C556.12 465.641 556.706 466.052 557.43 466.343C558.154 466.634 558.956 466.779 559.837 466.779C560.822 466.779 561.695 466.608 562.456 466.265C563.217 465.921 563.814 465.444 564.247 464.832C564.68 464.22 564.897 463.511 564.897 462.705C564.897 461.862 564.688 461.119 564.27 460.477C563.852 459.828 563.24 459.32 562.434 458.955C561.628 458.589 560.643 458.406 559.479 458.406H557.643V455.944H559.479C560.389 455.944 561.188 455.779 561.874 455.451C562.568 455.123 563.109 454.66 563.497 454.063C563.893 453.466 564.091 452.765 564.091 451.959C564.091 451.182 563.919 450.507 563.576 449.932C563.232 449.358 562.747 448.91 562.12 448.589C561.501 448.268 560.77 448.108 559.926 448.108C559.135 448.108 558.389 448.253 557.688 448.544C556.994 448.828 556.426 449.242 555.986 449.787C555.546 450.324 555.307 450.973 555.27 451.735H552.583C552.628 450.533 552.99 449.481 553.669 448.578C554.348 447.667 555.236 446.959 556.333 446.451C557.438 445.944 558.65 445.69 559.971 445.69C561.389 445.69 562.605 445.977 563.62 446.552C564.635 447.119 565.415 447.869 565.96 448.802C566.505 449.735 566.777 450.742 566.777 451.824C566.777 453.115 566.438 454.216 565.758 455.126C565.087 456.037 564.173 456.668 563.016 457.018V457.197C564.464 457.436 565.594 458.052 566.408 459.044C567.221 460.029 567.628 461.25 567.628 462.705C567.628 463.951 567.288 465.07 566.609 466.063C565.938 467.048 565.02 467.824 563.855 468.391C562.691 468.959 561.367 469.242 559.882 469.242Z" fill="white"/>
<rect x="193" y="542" width="56.7305" height="56.7305" rx="28.3652" fill="#232323"/>
<path d="M224.832 561.111V579.865H220.309V565.342H220.199L216.005 567.906V563.987L220.629 561.111H224.832Z" fill="white"/>
<rect x="85" y="439" width="56.7305" height="56.7305" rx="28.3652" fill="#232323"/>
<path d="M116.832 458.111V476.865H112.309V462.342H112.199L108.005 464.906V460.987L112.629 458.111H116.832Z" fill="white"/>
<rect x="302" y="542" width="56.7305" height="56.7305" rx="28.3652" fill="#848484"/>
<path d="M325.161 579.865V576.605L332.001 570.616C332.514 570.153 332.95 569.728 333.31 569.344C333.671 568.953 333.945 568.562 334.135 568.172C334.324 567.775 334.418 567.344 334.418 566.88C334.418 566.361 334.306 565.919 334.08 565.553C333.854 565.18 333.542 564.893 333.146 564.692C332.749 564.49 332.294 564.39 331.781 564.39C331.262 564.39 330.807 564.496 330.417 564.71C330.026 564.918 329.721 565.22 329.501 565.617C329.287 566.013 329.181 566.496 329.181 567.064H324.886C324.886 565.788 325.173 564.686 325.747 563.758C326.32 562.83 327.126 562.116 328.164 561.615C329.208 561.108 330.42 560.855 331.8 560.855C333.222 560.855 334.458 561.093 335.508 561.569C336.558 562.045 337.37 562.711 337.944 563.565C338.524 564.414 338.814 565.4 338.814 566.523C338.814 567.238 338.67 567.946 338.384 568.648C338.097 569.35 337.581 570.125 336.836 570.974C336.097 571.822 335.047 572.839 333.686 574.023L331.442 576.092V576.212H339.043V579.865H325.161Z" fill="white"/>
<rect x="85" y="340" width="56.7305" height="56.7305" rx="28.3652" fill="#848484"/>
<path d="M108.161 377.865V374.605L115.001 368.616C115.514 368.153 115.95 367.728 116.31 367.344C116.671 366.953 116.945 366.562 117.135 366.172C117.324 365.775 117.418 365.344 117.418 364.88C117.418 364.361 117.306 363.919 117.08 363.553C116.854 363.18 116.542 362.893 116.146 362.692C115.749 362.49 115.294 362.39 114.781 362.39C114.262 362.39 113.807 362.496 113.417 362.71C113.026 362.918 112.721 363.22 112.501 363.617C112.287 364.013 112.181 364.496 112.181 365.064H107.886C107.886 363.788 108.173 362.686 108.747 361.758C109.32 360.83 110.126 360.116 111.164 359.615C112.208 359.108 113.42 358.855 114.8 358.855C116.222 358.855 117.458 359.093 118.508 359.569C119.558 360.045 120.37 360.711 120.944 361.565C121.524 362.414 121.814 363.4 121.814 364.523C121.814 365.238 121.67 365.946 121.384 366.648C121.097 367.35 120.581 368.125 119.836 368.974C119.097 369.822 118.047 370.839 116.686 372.023L114.442 374.092V374.212H122.043V377.865H108.161Z" fill="white"/>
<rect x="411" y="542" width="56.7305" height="56.7305" rx="28.3652" fill="#C7C7C7"/>
<path d="M441.294 580.122C439.865 580.122 438.599 579.877 437.494 579.389C436.395 578.895 435.528 578.214 434.893 577.347C434.258 576.48 433.935 575.482 433.922 574.353H438.483C438.501 574.762 438.632 575.125 438.877 575.442C439.121 575.754 439.453 575.998 439.875 576.175C440.296 576.352 440.775 576.44 441.312 576.44C441.85 576.44 442.323 576.346 442.732 576.157C443.147 575.961 443.47 575.696 443.702 575.36C443.934 575.018 444.047 574.627 444.041 574.188C444.047 573.748 443.922 573.358 443.666 573.016C443.409 572.674 443.046 572.408 442.576 572.219C442.112 572.03 441.563 571.935 440.928 571.935H439.105V568.712H440.928C441.483 568.712 441.972 568.62 442.393 568.437C442.82 568.254 443.153 567.998 443.391 567.668C443.629 567.332 443.745 566.948 443.739 566.514C443.745 566.093 443.644 565.724 443.437 565.406C443.235 565.083 442.951 564.832 442.585 564.655C442.225 564.478 441.807 564.39 441.331 564.39C440.83 564.39 440.375 564.478 439.966 564.655C439.563 564.832 439.243 565.083 439.005 565.406C438.767 565.73 438.641 566.105 438.629 566.532H434.298C434.31 565.415 434.621 564.432 435.232 563.584C435.842 562.729 436.673 562.061 437.723 561.578C438.779 561.096 439.981 560.855 441.331 560.855C442.674 560.855 443.855 561.09 444.874 561.56C445.894 562.03 446.688 562.671 447.255 563.483C447.823 564.289 448.107 565.202 448.107 566.221C448.113 567.277 447.768 568.147 447.072 568.831C446.382 569.515 445.494 569.936 444.407 570.095V570.241C445.86 570.412 446.956 570.882 447.695 571.651C448.44 572.42 448.809 573.382 448.803 574.536C448.803 575.622 448.482 576.587 447.841 577.429C447.206 578.266 446.321 578.925 445.186 579.407C444.056 579.884 442.759 580.122 441.294 580.122Z" fill="white"/>
<rect x="87" y="224" width="56.7305" height="56.7305" rx="28.3652" fill="#C7C7C7"/>
<path d="M115.294 262.122C113.865 262.122 112.599 261.877 111.494 261.389C110.395 260.895 109.528 260.214 108.893 259.347C108.258 258.48 107.935 257.482 107.922 256.353H112.483C112.501 256.762 112.632 257.125 112.877 257.442C113.121 257.754 113.453 257.998 113.875 258.175C114.296 258.352 114.775 258.44 115.312 258.44C115.85 258.44 116.323 258.346 116.732 258.157C117.147 257.961 117.47 257.696 117.702 257.36C117.934 257.018 118.047 256.627 118.041 256.188C118.047 255.748 117.922 255.358 117.666 255.016C117.409 254.674 117.046 254.408 116.576 254.219C116.112 254.03 115.563 253.935 114.928 253.935H113.105V250.712H114.928C115.483 250.712 115.972 250.62 116.393 250.437C116.82 250.254 117.153 249.998 117.391 249.668C117.629 249.332 117.745 248.948 117.739 248.514C117.745 248.093 117.644 247.724 117.437 247.406C117.235 247.083 116.951 246.832 116.585 246.655C116.225 246.478 115.807 246.39 115.331 246.39C114.83 246.39 114.375 246.478 113.966 246.655C113.563 246.832 113.243 247.083 113.005 247.406C112.767 247.73 112.641 248.105 112.629 248.532H108.298C108.31 247.415 108.621 246.432 109.232 245.584C109.842 244.729 110.673 244.061 111.723 243.578C112.779 243.096 113.981 242.855 115.331 242.855C116.674 242.855 117.855 243.09 118.874 243.56C119.894 244.03 120.688 244.671 121.255 245.483C121.823 246.289 122.107 247.202 122.107 248.221C122.113 249.277 121.768 250.147 121.072 250.831C120.382 251.515 119.494 251.936 118.407 252.095V252.241C119.86 252.412 120.956 252.882 121.695 253.651C122.44 254.42 122.809 255.382 122.803 256.536C122.803 257.622 122.482 258.587 121.841 259.429C121.206 260.266 120.321 260.925 119.186 261.407C118.056 261.884 116.759 262.122 115.294 262.122Z" fill="white"/>
<rect x="520" y="542" width="56.7305" height="56.7305" rx="28.3652" fill="#D9D9D9"/>
<path d="M542.932 576.752V573.217L550.614 561.111H553.755V565.91H551.933L547.437 573.034V573.181H558.563V576.752H542.932ZM551.988 579.865V575.671L552.08 574.124V561.111H556.319V579.865H551.988Z" fill="white"/>
<rect x="90" y="123" width="56.7305" height="56.7305" rx="28.3652" fill="#D9D9D9"/>
<path d="M109.932 157.752V154.217L117.614 142.111H120.755V146.91H118.933L114.437 154.034V154.181H125.563V157.752H109.932ZM118.988 160.865V156.671L119.08 155.124V142.111H123.319V160.865H118.988Z" fill="white"/>
<path d="M13.0641 224.685H35.7858V227.005H13.0641V224.685ZM16.0213 230.599L17.5186 228.914C18.1674 229.264 18.8537 229.676 19.5774 230.15C20.3011 230.624 20.9749 231.098 21.5988 231.572C22.2476 232.046 22.7841 232.471 23.2084 232.845L21.6362 234.791C21.2369 234.392 20.7129 233.943 20.064 233.444C19.4401 232.945 18.7663 232.446 18.0426 231.947C17.3439 231.447 16.6701 230.998 16.0213 230.599ZM28.1495 222.513L29.4971 221.166C30.1959 221.54 30.9196 221.977 31.6682 222.476C32.4418 222.975 33.0408 223.437 33.465 223.861L32.0425 225.321C31.6183 224.897 31.0319 224.423 30.2832 223.898C29.5345 223.374 28.8233 222.913 28.1495 222.513ZM15.7967 225.77H18.3795C18.2298 227.692 17.9678 229.538 17.5935 231.31C17.2441 233.082 16.6826 234.704 15.909 236.176C15.1354 237.624 14.0373 238.872 12.6149 239.92C12.4402 239.62 12.1782 239.283 11.8288 238.909C11.5044 238.56 11.1924 238.273 10.893 238.048C12.1657 237.175 13.1265 236.089 13.7753 234.791C14.4491 233.494 14.9357 232.071 15.2352 230.524C15.5346 228.977 15.7218 227.392 15.7967 225.77ZM22.5346 205.594H25.0426C25.0176 209.312 25.105 212.806 25.3046 216.075C25.5043 219.319 25.8037 222.264 26.203 224.909C26.6023 227.529 27.1139 229.8 27.7378 231.722C28.3866 233.619 29.1228 235.078 29.9463 236.102C30.7698 237.1 31.6807 237.599 32.6789 237.599C33.2279 237.599 33.6147 237.312 33.8393 236.738C34.0639 236.164 34.2261 235.029 34.3259 233.332C34.6005 233.606 34.9249 233.856 35.2992 234.08C35.6735 234.305 36.0104 234.48 36.3099 234.604C36.1602 236.002 35.948 237.087 35.6735 237.861C35.399 238.66 35.0122 239.221 34.5131 239.545C34.014 239.895 33.3402 240.069 32.4917 240.069C30.9944 240.069 29.6843 239.483 28.5613 238.31C27.4633 237.162 26.5274 235.54 25.7538 233.444C25.0052 231.323 24.3938 228.827 23.9196 225.957C23.4455 223.087 23.0961 219.931 22.8715 216.487C22.6718 213.018 22.5595 209.387 22.5346 205.594ZM30.9196 227.567L33.3527 228.465C32.1299 231.061 30.408 233.332 28.187 235.278C25.9659 237.2 23.408 238.759 20.5132 239.957C20.3385 239.708 20.1015 239.408 19.802 239.059C19.5025 238.709 19.228 238.41 18.9785 238.16C21.7735 237.062 24.2066 235.603 26.2779 233.781C28.3492 231.959 29.8964 229.888 30.9196 227.567ZM25.2298 212.07L26.3902 210.535C27.2137 211.109 28.0372 211.783 28.8607 212.556C29.7092 213.305 30.3581 213.991 30.8073 214.615L29.572 216.374C29.1477 215.751 28.5239 215.039 27.7003 214.241C26.8768 213.417 26.0533 212.694 25.2298 212.07ZM32.2297 216.637L33.9516 215.925C34.5006 216.799 34.9873 217.747 35.4115 218.77C35.8607 219.768 36.1602 220.629 36.3099 221.353L34.4757 222.214C34.301 221.465 34.0015 220.567 33.5773 219.519C33.178 218.446 32.7288 217.485 32.2297 216.637ZM25.7164 219.219C26.8893 219.169 28.2244 219.095 29.7217 218.995C31.219 218.895 32.7912 218.795 34.4382 218.695L34.4757 220.604C32.9784 220.754 31.531 220.904 30.1335 221.054C28.736 221.178 27.4009 221.303 26.1281 221.428L25.7164 219.219ZM29.572 205.931L31.7805 206.792C31.2315 207.815 30.6575 208.888 30.0586 210.011C29.4597 211.109 28.8982 212.045 28.3741 212.818L26.8019 212.07C27.1264 211.521 27.4508 210.884 27.7752 210.161C28.1246 209.437 28.4615 208.701 28.7859 207.952C29.1103 207.203 29.3723 206.53 29.572 205.931ZM32.6789 209.674L34.7377 210.647C34.1138 211.72 33.4276 212.856 32.6789 214.054C31.9302 215.227 31.1816 216.374 30.4329 217.497C29.6843 218.596 28.9606 219.569 28.2618 220.417L26.6896 219.519C27.3634 218.67 28.0622 217.672 28.7859 216.524C29.5345 215.351 30.2458 214.166 30.9196 212.968C31.6183 211.77 32.2047 210.672 32.6789 209.674ZM12.5774 212.07L13.7379 210.535C14.5614 211.109 15.3849 211.783 16.2084 212.556C17.0569 213.305 17.6933 213.991 18.1175 214.615L16.9197 216.374C16.4954 215.751 15.8591 215.039 15.0106 214.241C14.1871 213.417 13.376 212.694 12.5774 212.07ZM19.0533 216.861L20.7752 216.225C21.2744 217.073 21.7235 218.009 22.1228 219.032C22.5221 220.055 22.7841 220.929 22.9089 221.653L21.0373 222.439C20.9375 221.69 20.7004 220.792 20.3261 219.743C19.9517 218.695 19.5275 217.735 19.0533 216.861ZM12.6897 219.669C13.8626 219.594 15.1977 219.506 16.6951 219.407C18.2173 219.282 19.802 219.169 21.449 219.07L21.4865 221.054C19.9892 221.228 18.5293 221.378 17.1068 221.503C15.6844 221.628 14.3493 221.752 13.1015 221.877L12.6897 219.669ZM16.9197 205.931L19.0908 206.792C18.5418 207.815 17.9678 208.9 17.3689 210.048C16.7699 211.171 16.2209 212.12 15.7218 212.893L14.1122 212.145C14.4366 211.571 14.7735 210.922 15.1229 210.198C15.4723 209.474 15.8092 208.738 16.1336 207.99C16.458 207.216 16.72 206.53 16.9197 205.931ZM20.0266 209.674L22.048 210.647C21.3991 211.745 20.6879 212.918 19.9143 214.166C19.1656 215.389 18.392 216.574 17.5935 217.722C16.8198 218.87 16.0712 219.881 15.3475 220.754L13.7753 219.893C14.474 218.995 15.2102 217.947 15.9838 216.749C16.7575 215.551 17.4936 214.328 18.1924 213.08C18.9161 211.833 19.5275 210.697 20.0266 209.674ZM1.94651 213.679H13.2887V216.3H1.94651V213.679ZM6.66305 205.556H9.20849V239.957H6.66305V205.556ZM6.58819 215.251L8.23523 215.776C7.98568 217.223 7.66126 218.758 7.26198 220.38C6.86269 221.977 6.4135 223.549 5.91439 225.096C5.41529 226.644 4.87875 228.078 4.30478 229.401C3.75576 230.724 3.16932 231.859 2.54544 232.808C2.3957 232.458 2.17111 232.059 1.87164 231.61C1.59714 231.16 1.36006 230.774 1.16042 230.449C1.73439 229.601 2.28341 228.59 2.80747 227.417C3.35648 226.244 3.86806 224.972 4.34221 223.599C4.84132 222.226 5.27804 220.829 5.65236 219.407C6.05165 217.959 6.36359 216.574 6.58819 215.251ZM9.05876 217.722C9.2584 217.972 9.54538 218.408 9.91971 219.032C10.319 219.631 10.7557 220.305 11.2299 221.054C11.704 221.777 12.1283 222.464 12.5026 223.112C12.9019 223.736 13.1764 224.185 13.3261 224.46L11.8662 226.519C11.6915 226.07 11.4295 225.483 11.0801 224.759C10.7308 224.036 10.344 223.287 9.91971 222.513C9.52043 221.715 9.13362 220.991 8.75929 220.342C8.38496 219.669 8.09798 219.145 7.89834 218.77L9.05876 217.722ZM8.5347 263.358V268.973H29.0853V263.358H8.5347ZM6.10156 261.412H31.5933V270.92H6.10156V261.412ZM12.2406 257.369H25.3046V259.391H12.2406V257.369ZM17.4063 262.011H19.7646V269.834H17.4063V262.011ZM18.5293 252.802C17.4312 253.95 16.0337 255.111 14.3368 256.284C12.6648 257.457 10.8306 258.567 8.83416 259.615C6.83774 260.663 4.80389 261.587 2.7326 262.385C2.58287 262.061 2.37075 261.686 2.09624 261.262C1.82173 260.813 1.54723 260.439 1.27272 260.139C3.39391 259.415 5.4652 258.542 7.48657 257.519C9.50795 256.471 11.3422 255.348 12.9892 254.15C14.6612 252.952 16.0213 251.754 17.0694 250.556H19.7271C21.1246 251.904 22.7342 253.177 24.556 254.375C26.4027 255.547 28.3367 256.596 30.3581 257.519C32.3794 258.442 34.3509 259.191 36.2725 259.765C35.973 260.064 35.6735 260.439 35.3741 260.888C35.0746 261.337 34.8251 261.749 34.6254 262.123C33.2529 261.624 31.8179 261.038 30.3206 260.364C28.8483 259.69 27.3884 258.941 25.941 258.118C24.4936 257.294 23.1335 256.433 21.8608 255.535C20.5881 254.637 19.4776 253.726 18.5293 252.802ZM10.7807 264.444L12.8395 263.77C13.3136 264.444 13.7503 265.18 14.1496 265.979C14.5739 266.752 14.8733 267.439 15.048 268.038L12.9143 268.824C12.7646 268.225 12.4901 267.513 12.0908 266.69C11.6915 265.866 11.2548 265.118 10.7807 264.444ZM24.2565 263.62L26.6522 264.407C26.228 265.205 25.7913 266.004 25.3421 266.802C24.8929 267.601 24.4811 268.275 24.1068 268.824L22.1603 268.15C22.5096 267.526 22.884 266.777 23.2832 265.904C23.7075 265.03 24.0319 264.269 24.2565 263.62ZM8.3101 272.679H29.4971V284.92H26.6522V274.701H11.0801V284.995H8.3101V272.679ZM9.95714 277.209H27.8501V279.23H9.95714V277.209ZM9.99458 281.813H27.8875V283.797H9.99458V281.813ZM12.016 297.241H35.2618V299.375H12.016V297.241ZM16.1336 304.578H31.0319V306.038H16.1336V304.578ZM16.1336 307.647H31.0319V309.145H16.1336V307.647ZM14.6737 301.321H32.4169V311.727H29.7591V302.968H17.2191V311.727H14.6737V301.321ZM10.9678 310.792H35.9356V315.845H33.3527V312.588H13.401V315.845H10.9678V310.792ZM15.7967 313.711L17.6683 314.759C17.1692 315.458 16.5703 316.207 15.8715 317.005C15.1977 317.779 14.4241 318.44 13.5507 318.989L11.8288 317.529C12.6274 317.08 13.376 316.506 14.0748 315.808C14.7735 315.084 15.3475 314.385 15.7967 313.711ZM18.0052 313.599H20.3635V315.957C20.3635 316.307 20.4508 316.531 20.6255 316.631C20.8002 316.731 21.212 316.781 21.8608 316.781C22.0105 316.781 22.285 316.781 22.6843 316.781C23.1086 316.781 23.5702 316.781 24.0693 316.781C24.5684 316.781 25.0426 316.781 25.4918 316.781C25.941 316.781 26.2654 316.781 26.465 316.781C26.9142 316.781 27.2137 316.693 27.3634 316.519C27.5132 316.319 27.613 315.857 27.6629 315.134C27.8875 315.259 28.187 315.383 28.5613 315.508C28.9606 315.608 29.2975 315.695 29.572 315.77C29.4721 316.843 29.2226 317.567 28.8233 317.941C28.449 318.316 27.7752 318.503 26.8019 318.503C26.6522 318.503 26.3278 318.503 25.8287 318.503C25.3545 318.503 24.818 318.503 24.2191 318.503C23.6201 318.503 23.0711 318.503 22.572 318.503C22.0979 318.503 21.7735 318.503 21.5988 318.503C20.6505 318.503 19.9143 318.44 19.3902 318.316C18.8911 318.166 18.5293 317.916 18.3047 317.567C18.105 317.193 18.0052 316.656 18.0052 315.957V313.599ZM20.7378 312.813L22.3474 311.69C23.0711 312.064 23.8073 312.526 24.556 313.075C25.3046 313.599 25.8786 314.098 26.2779 314.572L24.5934 315.808C24.2191 315.333 23.6576 314.809 22.9089 314.235C22.1603 313.661 21.4366 313.187 20.7378 312.813ZM28.9356 314.61L30.7324 313.562C31.5559 314.185 32.3794 314.909 33.203 315.733C34.0265 316.531 34.6504 317.255 35.0746 317.904L33.203 319.027C32.8037 318.378 32.1923 317.642 31.3687 316.818C30.5702 315.97 29.7591 315.234 28.9356 314.61ZM19.9517 317.717L22.6095 318.278C21.3866 319.576 19.9018 320.811 18.1549 321.984C16.433 323.157 14.3992 324.217 12.0534 325.166C11.8787 324.866 11.6291 324.542 11.3047 324.193C10.9803 323.843 10.6808 323.581 10.4063 323.406C12.6024 322.633 14.5115 321.747 16.1336 320.749C17.7806 319.726 19.0533 318.715 19.9517 317.717ZM29.6468 320.112H30.2083L30.695 320L32.4917 320.973C30.8946 323.294 28.3242 325.216 24.7806 326.738C21.2369 328.26 16.8448 329.371 11.6042 330.069C11.4794 329.77 11.2798 329.408 11.0053 328.984C10.7308 328.585 10.4687 328.248 10.2192 327.973C15.2102 327.399 19.3778 326.463 22.7218 325.166C26.0907 323.868 28.3991 322.333 29.6468 320.562V320.112ZM17.8555 321.123C18.9785 322.396 20.4758 323.494 22.3474 324.417C24.244 325.34 26.3902 326.077 28.7859 326.626C31.1816 327.175 33.7145 327.561 36.3848 327.786C36.1102 328.086 35.8108 328.46 35.4864 328.909C35.1869 329.358 34.9498 329.77 34.7751 330.144C32.055 329.82 29.4597 329.308 26.9891 328.61C24.5435 327.936 22.3474 327.05 20.4009 325.952C18.4544 324.854 16.8323 323.531 15.5346 321.984L17.8555 321.123ZM18.5293 320.112H30.4329V321.909H16.6951L18.5293 320.112ZM21.8608 298.214L24.9677 298.551C24.6932 299.275 24.4187 299.973 24.1442 300.647C23.8947 301.321 23.6576 301.92 23.433 302.444L20.9998 302.032C21.1745 301.433 21.3367 300.785 21.4865 300.086C21.6612 299.387 21.7859 298.763 21.8608 298.214ZM8.72186 295.744L11.3047 296.455C10.606 298.626 9.76998 300.772 8.79673 302.893C7.84843 305.014 6.81278 307.023 5.6898 308.92C4.56681 310.792 3.38144 312.451 2.13367 313.898C2.05881 313.674 1.93403 313.387 1.75935 313.038C1.58466 312.663 1.39749 312.301 1.19785 311.952C0.99821 311.578 0.823523 311.278 0.673792 311.054C1.77182 309.781 2.81994 308.333 3.81815 306.711C4.81636 305.064 5.72723 303.305 6.55075 301.433C7.39923 299.562 8.12293 297.665 8.72186 295.744ZM5.6898 304.915L8.3101 302.332L8.38496 302.407V329.995H5.6898V304.915ZM22.1228 358.636H24.9303V370.39C24.9303 370.939 25.0301 371.301 25.2298 371.476C25.4544 371.626 25.916 371.701 26.6148 371.701C26.7895 371.701 27.0889 371.701 27.5132 371.701C27.9374 371.701 28.3991 371.701 28.8982 371.701C29.4222 371.701 29.9089 371.701 30.3581 371.701C30.8322 371.701 31.1691 371.701 31.3687 371.701C31.8429 371.701 32.1923 371.576 32.4169 371.326C32.6664 371.052 32.8286 370.515 32.9035 369.717C33.0033 368.918 33.0782 367.708 33.1281 366.086C33.3277 366.235 33.5773 366.398 33.8768 366.572C34.2012 366.722 34.5256 366.859 34.85 366.984C35.1744 367.084 35.4614 367.171 35.711 367.246C35.6111 369.143 35.424 370.615 35.1495 371.663C34.8999 372.686 34.4882 373.397 33.9142 373.797C33.3652 374.196 32.5916 374.396 31.5933 374.396C31.4187 374.396 31.0818 374.396 30.5827 374.396C30.0836 374.396 29.5345 374.396 28.9356 374.396C28.3367 374.396 27.7877 374.396 27.2886 374.396C26.8144 374.396 26.49 374.396 26.3153 374.396C25.1923 374.396 24.3314 374.271 23.7324 374.021C23.1335 373.797 22.7093 373.385 22.4597 372.786C22.2351 372.212 22.1228 371.414 22.1228 370.39V358.636ZM2.28341 356.653H35.1869V359.385H2.28341V356.653ZM8.45983 346.396H32.4917V349.091H8.45983V346.396ZM12.1283 358.749H15.048C14.8733 360.645 14.5739 362.43 14.1496 364.102C13.7503 365.774 13.1389 367.308 12.3154 368.706C11.4919 370.078 10.3689 371.314 8.94646 372.412C7.54896 373.51 5.75219 374.433 3.55612 375.182C3.4563 374.932 3.29409 374.658 3.0695 374.358C2.86985 374.084 2.65773 373.797 2.43314 373.497C2.20854 373.223 1.98394 372.998 1.75935 372.824C3.80568 372.175 5.47768 371.389 6.77535 370.465C8.07302 369.542 9.08371 368.481 9.80741 367.283C10.5311 366.061 11.0552 364.738 11.3796 363.316C11.729 361.893 11.9785 360.371 12.1283 358.749ZM9.20849 341.417L12.0534 342.016C11.6541 343.439 11.1675 344.924 10.5935 346.471C10.0445 348.018 9.39565 349.528 8.64699 351C7.92329 352.448 7.12472 353.72 6.25129 354.818C6.05165 354.669 5.8021 354.519 5.50263 354.369C5.20317 354.194 4.90371 354.032 4.60424 353.882C4.32974 353.708 4.06771 353.583 3.81815 353.508C4.69159 352.435 5.4652 351.212 6.13899 349.84C6.83774 348.442 7.44914 347.02 7.9732 345.572C8.49726 344.1 8.90902 342.715 9.20849 341.417ZM17.294 340.556H20.1389V357.551H17.294V340.556ZM8.4224 396.038H35.0746V398.358H8.4224V396.038ZM8.94646 406.968H30.3955V409.289H8.94646V406.968ZM14.4491 392.781H17.1443V402.326H26.2404V392.781H29.0105V404.572H14.4491V392.781ZM29.6468 406.968H30.2083L30.695 406.856L32.4543 407.792C31.4311 409.738 30.096 411.423 28.449 412.845C26.8019 414.242 24.9303 415.415 22.8341 416.364C20.7378 417.312 18.4918 418.073 16.0961 418.647C13.7004 419.246 11.2299 419.695 8.68443 419.995C8.60956 419.67 8.44735 419.271 8.1978 418.797C7.9732 418.323 7.73613 417.936 7.48657 417.636C9.85732 417.387 12.1782 417.025 14.4491 416.551C16.72 416.052 18.8412 415.39 20.8127 414.567C22.8091 413.743 24.5684 412.745 26.0907 411.572C27.613 410.399 28.7984 409.002 29.6468 407.38V406.968ZM15.6095 408.914C16.8074 410.587 18.417 412.021 20.4383 413.219C22.4847 414.417 24.8305 415.378 27.4757 416.102C30.121 416.825 32.9534 417.337 35.973 417.636C35.7983 417.836 35.5987 418.086 35.3741 418.385C35.1744 418.684 34.9748 418.971 34.7751 419.246C34.6005 419.545 34.4507 419.82 34.3259 420.069C31.2565 419.67 28.3741 419.034 25.679 418.16C22.9838 417.312 20.5631 416.201 18.417 414.829C16.2958 413.431 14.5614 411.772 13.2138 409.85L15.6095 408.914ZM18.3795 385.556H21.2619V390.685H18.3795V385.556ZM5.91439 389.262H35.2992V391.808H5.91439V389.262ZM4.52938 389.262H7.22454V400.08C7.22454 401.528 7.17463 403.112 7.07481 404.834C6.99995 406.556 6.82526 408.316 6.55075 410.112C6.3012 411.909 5.92687 413.656 5.42777 415.353C4.95362 417.05 4.30478 418.61 3.48126 420.032C3.33153 419.882 3.10693 419.695 2.80747 419.471C2.53296 419.271 2.24597 419.071 1.94651 418.872C1.672 418.697 1.40997 418.572 1.16042 418.497C1.93403 417.15 2.54544 415.702 2.99463 414.155C3.44382 412.583 3.78072 410.973 4.00532 409.326C4.22991 407.679 4.36717 406.07 4.41708 404.497C4.49195 402.9 4.52938 401.428 4.52938 400.08V389.262Z" fill="#232323"/>
<path d="M284.594 622.326L285.866 620.38C286.74 620.605 287.663 620.891 288.636 621.241C289.61 621.565 290.545 621.915 291.444 622.289C292.367 622.638 293.128 622.963 293.727 623.262L292.492 625.471C291.893 625.121 291.144 624.76 290.246 624.385C289.348 624.011 288.399 623.637 287.401 623.262C286.403 622.888 285.467 622.576 284.594 622.326ZM282.722 630.225C284.069 629.875 285.679 629.439 287.551 628.915C289.447 628.391 291.356 627.866 293.278 627.342L293.577 629.588C291.905 630.137 290.208 630.686 288.487 631.235C286.79 631.76 285.242 632.234 283.845 632.658L282.722 630.225ZM298.818 622.289H313.829V624.423H297.171L298.818 622.289ZM313.117 622.289H313.567L314.016 622.177L315.925 622.738C315.401 623.711 314.802 624.685 314.128 625.658C313.479 626.631 312.818 627.442 312.144 628.091L309.898 627.305C310.472 626.706 311.059 625.995 311.658 625.171C312.256 624.323 312.743 623.499 313.117 622.701V622.289ZM303.46 623.075H306.043C305.818 624.398 305.481 625.583 305.032 626.631C304.608 627.654 303.984 628.565 303.16 629.364C302.362 630.162 301.314 630.849 300.016 631.423C298.718 631.972 297.121 632.433 295.224 632.808C295.1 632.508 294.9 632.159 294.626 631.76C294.351 631.36 294.102 631.036 293.877 630.786C295.599 630.512 297.034 630.15 298.182 629.701C299.355 629.252 300.29 628.727 300.989 628.129C301.713 627.505 302.262 626.781 302.636 625.957C303.035 625.109 303.31 624.148 303.46 623.075ZM305.93 623.711C306.105 624.51 306.379 625.296 306.754 626.07C307.153 626.818 307.74 627.53 308.513 628.203C309.287 628.877 310.335 629.464 311.658 629.963C313.005 630.462 314.727 630.861 316.823 631.161C316.574 631.435 316.299 631.809 316 632.284C315.7 632.733 315.488 633.132 315.363 633.481C313.142 633.082 311.321 632.558 309.898 631.909C308.476 631.235 307.353 630.474 306.529 629.626C305.706 628.752 305.069 627.842 304.62 626.893C304.196 625.92 303.859 624.947 303.609 623.973L305.93 623.711ZM299.417 619.556L301.925 619.931C301.301 621.303 300.49 622.663 299.492 624.011C298.519 625.334 297.308 626.556 295.861 627.679C295.611 627.43 295.274 627.168 294.85 626.893C294.451 626.619 294.077 626.419 293.727 626.294C295.125 625.321 296.298 624.235 297.246 623.038C298.194 621.815 298.918 620.654 299.417 619.556ZM290.508 639.096V641.679H309.374V639.096H290.508ZM290.508 643.476V646.096H309.374V643.476H290.508ZM290.508 634.754V637.262H309.374V634.754H290.508ZM287.775 632.845H312.182V647.968H287.775V632.845ZM302.861 649.914L305.144 648.492C306.517 648.916 307.902 649.365 309.299 649.84C310.697 650.314 312.019 650.788 313.267 651.262C314.515 651.761 315.588 652.223 316.486 652.647L313.342 654.069C312.568 653.67 311.62 653.233 310.497 652.759C309.374 652.285 308.164 651.799 306.866 651.299C305.568 650.825 304.233 650.364 302.861 649.914ZM294.027 648.38L296.61 649.54C295.586 650.139 294.413 650.725 293.091 651.299C291.793 651.873 290.446 652.397 289.048 652.872C287.651 653.346 286.328 653.758 285.08 654.107C284.93 653.907 284.731 653.67 284.481 653.396C284.232 653.146 283.97 652.884 283.695 652.61C283.446 652.36 283.209 652.16 282.984 652.011C284.282 651.736 285.604 651.412 286.952 651.037C288.324 650.663 289.622 650.251 290.845 649.802C292.068 649.353 293.128 648.879 294.027 648.38ZM332.021 621.391H354.032V623.936H332.021V621.391ZM331.085 621.391H333.818V631.647C333.818 633.294 333.755 635.079 333.631 637C333.531 638.922 333.306 640.881 332.957 642.877C332.607 644.849 332.096 646.783 331.422 648.679C330.773 650.551 329.887 652.273 328.764 653.845C328.615 653.695 328.39 653.52 328.091 653.321C327.816 653.121 327.529 652.934 327.23 652.759C326.93 652.585 326.668 652.447 326.444 652.348C327.492 650.85 328.328 649.228 328.952 647.481C329.575 645.709 330.037 643.913 330.337 642.091C330.661 640.244 330.861 638.435 330.935 636.663C331.035 634.866 331.085 633.194 331.085 631.647V621.391ZM338.534 635.503V638.834H349.989V635.503H338.534ZM338.534 630.187V633.444H349.989V630.187H338.534ZM335.989 628.016H352.609V641.005H335.989V628.016ZM337.336 643.064L339.844 643.701C339.271 645.198 338.547 646.683 337.673 648.155C336.8 649.603 335.914 650.838 335.016 651.861C334.841 651.711 334.616 651.537 334.342 651.337C334.067 651.162 333.793 650.988 333.518 650.813C333.244 650.638 332.994 650.488 332.77 650.364C333.718 649.44 334.579 648.33 335.353 647.032C336.151 645.734 336.812 644.412 337.336 643.064ZM347.93 643.738L350.326 642.765C350.925 643.538 351.511 644.374 352.085 645.273C352.659 646.146 353.183 647.02 353.657 647.893C354.156 648.767 354.531 649.54 354.78 650.214L352.197 651.374C351.973 650.701 351.636 649.927 351.187 649.053C350.737 648.155 350.226 647.244 349.652 646.321C349.078 645.398 348.504 644.537 347.93 643.738ZM342.877 623.412L345.946 623.973C345.647 624.947 345.347 625.945 345.048 626.968C344.773 627.991 344.499 628.84 344.224 629.514L341.754 628.952C341.978 628.153 342.19 627.23 342.39 626.182C342.615 625.134 342.777 624.211 342.877 623.412ZM342.727 640.144H345.422V651.075C345.422 651.749 345.335 652.285 345.16 652.684C344.985 653.084 344.648 653.383 344.149 653.583C343.65 653.758 342.976 653.87 342.128 653.92C341.304 653.97 340.269 653.982 339.021 653.957C338.971 653.608 338.871 653.209 338.721 652.759C338.572 652.31 338.41 651.911 338.235 651.561C339.133 651.586 339.944 651.599 340.668 651.599C341.392 651.599 341.878 651.599 342.128 651.599C342.527 651.574 342.727 651.374 342.727 651V640.144ZM321.69 621.915L323.299 619.931C324.048 620.255 324.821 620.654 325.62 621.129C326.419 621.603 327.167 622.089 327.866 622.588C328.565 623.063 329.139 623.524 329.588 623.973L327.903 626.219C327.479 625.745 326.918 625.259 326.219 624.76C325.52 624.235 324.772 623.724 323.973 623.225C323.199 622.726 322.438 622.289 321.69 621.915ZM319.855 632.022L321.428 629.963C322.176 630.262 322.95 630.637 323.748 631.086C324.572 631.51 325.333 631.959 326.032 632.433C326.755 632.882 327.342 633.319 327.791 633.743L326.144 635.989C325.72 635.565 325.158 635.116 324.46 634.642C323.761 634.143 323 633.669 322.176 633.219C321.378 632.745 320.604 632.346 319.855 632.022ZM320.641 651.898C321.19 650.9 321.789 649.74 322.438 648.417C323.112 647.07 323.786 645.647 324.46 644.15C325.158 642.652 325.782 641.193 326.331 639.77L328.577 641.342C328.078 642.665 327.517 644.037 326.893 645.46C326.294 646.882 325.67 648.28 325.021 649.652C324.372 651.025 323.748 652.298 323.149 653.471L320.641 651.898ZM367.882 621.241H391.128V623.375H367.882V621.241ZM371.999 628.578H386.898V630.038H371.999V628.578ZM371.999 631.647H386.898V633.145H371.999V631.647ZM370.539 625.321H388.283V635.727H385.625V626.968H373.085V635.727H370.539V625.321ZM366.834 634.792H391.801V639.845H389.218V636.588H369.267V639.845H366.834V634.792ZM371.662 637.711L373.534 638.759C373.035 639.458 372.436 640.207 371.737 641.005C371.063 641.779 370.29 642.44 369.416 642.989L367.695 641.529C368.493 641.08 369.242 640.506 369.941 639.808C370.639 639.084 371.213 638.385 371.662 637.711ZM373.871 637.599H376.229V639.957C376.229 640.307 376.317 640.531 376.491 640.631C376.666 640.731 377.078 640.781 377.727 640.781C377.876 640.781 378.151 640.781 378.55 640.781C378.974 640.781 379.436 640.781 379.935 640.781C380.434 640.781 380.908 640.781 381.358 640.781C381.807 640.781 382.131 640.781 382.331 640.781C382.78 640.781 383.079 640.693 383.229 640.519C383.379 640.319 383.479 639.857 383.529 639.134C383.753 639.259 384.053 639.383 384.427 639.508C384.826 639.608 385.163 639.695 385.438 639.77C385.338 640.843 385.088 641.567 384.689 641.941C384.315 642.316 383.641 642.503 382.668 642.503C382.518 642.503 382.194 642.503 381.694 642.503C381.22 642.503 380.684 642.503 380.085 642.503C379.486 642.503 378.937 642.503 378.438 642.503C377.964 642.503 377.639 642.503 377.465 642.503C376.516 642.503 375.78 642.44 375.256 642.316C374.757 642.166 374.395 641.916 374.17 641.567C373.971 641.193 373.871 640.656 373.871 639.957V637.599ZM376.604 636.813L378.213 635.69C378.937 636.064 379.673 636.526 380.422 637.075C381.17 637.599 381.744 638.098 382.144 638.572L380.459 639.808C380.085 639.333 379.523 638.809 378.775 638.235C378.026 637.661 377.302 637.187 376.604 636.813ZM384.801 638.61L386.598 637.562C387.422 638.185 388.245 638.909 389.069 639.733C389.892 640.531 390.516 641.255 390.94 641.904L389.069 643.027C388.669 642.378 388.058 641.642 387.234 640.818C386.436 639.97 385.625 639.234 384.801 638.61ZM375.817 641.717L378.475 642.278C377.252 643.576 375.768 644.811 374.021 645.984C372.299 647.157 370.265 648.217 367.919 649.166C367.744 648.866 367.495 648.542 367.17 648.193C366.846 647.843 366.547 647.581 366.272 647.406C368.468 646.633 370.377 645.747 371.999 644.749C373.646 643.726 374.919 642.715 375.817 641.717ZM385.513 644.112H386.074L386.561 644L388.357 644.973C386.76 647.294 384.19 649.216 380.646 650.738C377.103 652.26 372.711 653.371 367.47 654.069C367.345 653.77 367.146 653.408 366.871 652.984C366.597 652.585 366.334 652.248 366.085 651.973C371.076 651.399 375.243 650.463 378.588 649.166C381.956 647.868 384.265 646.333 385.513 644.562V644.112ZM373.721 645.123C374.844 646.396 376.342 647.494 378.213 648.417C380.11 649.34 382.256 650.077 384.652 650.626C387.047 651.175 389.58 651.561 392.251 651.786C391.976 652.086 391.677 652.46 391.352 652.909C391.053 653.358 390.816 653.77 390.641 654.144C387.921 653.82 385.325 653.308 382.855 652.61C380.409 651.936 378.213 651.05 376.267 649.952C374.32 648.854 372.698 647.531 371.4 645.984L373.721 645.123ZM374.395 644.112H386.299V645.909H372.561L374.395 644.112ZM377.727 622.214L380.833 622.551C380.559 623.275 380.284 623.973 380.01 624.647C379.76 625.321 379.523 625.92 379.299 626.444L376.866 626.032C377.04 625.433 377.202 624.785 377.352 624.086C377.527 623.387 377.652 622.763 377.727 622.214ZM364.588 619.744L367.17 620.455C366.472 622.626 365.636 624.772 364.662 626.893C363.714 629.014 362.679 631.023 361.556 632.92C360.433 634.792 359.247 636.451 357.999 637.898C357.925 637.674 357.8 637.387 357.625 637.038C357.45 636.663 357.263 636.301 357.064 635.952C356.864 635.578 356.689 635.278 356.54 635.054C357.638 633.781 358.686 632.333 359.684 630.711C360.682 629.064 361.593 627.305 362.416 625.433C363.265 623.562 363.989 621.665 364.588 619.744ZM361.556 628.915L364.176 626.332L364.251 626.407V653.995H361.556V628.915ZM415.421 637.636H418.229V649.39C418.229 649.939 418.329 650.301 418.528 650.476C418.753 650.626 419.215 650.701 419.913 650.701C420.088 650.701 420.388 650.701 420.812 650.701C421.236 650.701 421.698 650.701 422.197 650.701C422.721 650.701 423.207 650.701 423.657 650.701C424.131 650.701 424.468 650.701 424.667 650.701C425.142 650.701 425.491 650.576 425.715 650.326C425.965 650.052 426.127 649.515 426.202 648.717C426.302 647.918 426.377 646.708 426.427 645.086C426.626 645.235 426.876 645.398 427.175 645.572C427.5 645.722 427.824 645.859 428.149 645.984C428.473 646.084 428.76 646.171 429.01 646.246C428.91 648.143 428.723 649.615 428.448 650.663C428.199 651.686 427.787 652.397 427.213 652.797C426.664 653.196 425.89 653.396 424.892 653.396C424.717 653.396 424.38 653.396 423.881 653.396C423.382 653.396 422.833 653.396 422.234 653.396C421.635 653.396 421.086 653.396 420.587 653.396C420.113 653.396 419.789 653.396 419.614 653.396C418.491 653.396 417.63 653.271 417.031 653.021C416.432 652.797 416.008 652.385 415.758 651.786C415.534 651.212 415.421 650.414 415.421 649.39V637.636ZM395.582 635.653H428.486V638.385H395.582V635.653ZM401.758 625.396H425.79V628.091H401.758V625.396ZM405.427 637.749H408.347C408.172 639.645 407.872 641.43 407.448 643.102C407.049 644.774 406.438 646.308 405.614 647.706C404.791 649.078 403.668 650.314 402.245 651.412C400.848 652.51 399.051 653.433 396.855 654.182C396.755 653.932 396.593 653.658 396.368 653.358C396.168 653.084 395.956 652.797 395.732 652.497C395.507 652.223 395.283 651.998 395.058 651.824C397.104 651.175 398.776 650.389 400.074 649.465C401.372 648.542 402.382 647.481 403.106 646.283C403.83 645.061 404.354 643.738 404.678 642.316C405.028 640.893 405.277 639.371 405.427 637.749ZM402.507 620.417L405.352 621.016C404.953 622.439 404.466 623.924 403.892 625.471C403.343 627.018 402.694 628.528 401.946 630C401.222 631.448 400.423 632.72 399.55 633.818C399.35 633.669 399.101 633.519 398.801 633.369C398.502 633.194 398.202 633.032 397.903 632.882C397.628 632.708 397.366 632.583 397.117 632.508C397.99 631.435 398.764 630.212 399.438 628.84C400.136 627.442 400.748 626.02 401.272 624.572C401.796 623.1 402.208 621.715 402.507 620.417ZM410.593 619.556H413.438V636.551H410.593V619.556ZM439.154 630.038H465.806V632.358H439.154V630.038ZM439.678 640.968H461.127V643.289H439.678V640.968ZM445.181 626.781H447.876V636.326H456.972V626.781H459.742V638.572H445.181V626.781ZM460.378 640.968H460.94L461.426 640.856L463.186 641.792C462.163 643.738 460.828 645.423 459.18 646.845C457.533 648.242 455.662 649.415 453.566 650.364C451.469 651.312 449.223 652.073 446.828 652.647C444.432 653.246 441.961 653.695 439.416 653.995C439.341 653.67 439.179 653.271 438.929 652.797C438.705 652.323 438.468 651.936 438.218 651.636C440.589 651.387 442.91 651.025 445.181 650.551C447.452 650.052 449.573 649.39 451.544 648.567C453.541 647.743 455.3 646.745 456.822 645.572C458.344 644.399 459.53 643.002 460.378 641.38V640.968ZM446.341 642.914C447.539 644.587 449.148 646.021 451.17 647.219C453.216 648.417 455.562 649.378 458.207 650.102C460.852 650.825 463.685 651.337 466.704 651.636C466.53 651.836 466.33 652.086 466.106 652.385C465.906 652.684 465.706 652.971 465.507 653.246C465.332 653.545 465.182 653.82 465.057 654.069C461.988 653.67 459.106 653.034 456.41 652.16C453.715 651.312 451.295 650.201 449.148 648.829C447.027 647.431 445.293 645.772 443.945 643.85L446.341 642.914ZM449.111 619.556H451.993V624.685H449.111V619.556ZM436.646 623.262H466.031V625.808H436.646V623.262ZM435.261 623.262H437.956V634.08C437.956 635.528 437.906 637.112 437.806 638.834C437.731 640.556 437.557 642.316 437.282 644.112C437.033 645.909 436.658 647.656 436.159 649.353C435.685 651.05 435.036 652.61 434.213 654.032C434.063 653.882 433.838 653.695 433.539 653.471C433.264 653.271 432.977 653.071 432.678 652.872C432.403 652.697 432.141 652.572 431.892 652.497C432.666 651.15 433.277 649.702 433.726 648.155C434.175 646.583 434.512 644.973 434.737 643.326C434.961 641.679 435.099 640.07 435.149 638.497C435.223 636.9 435.261 635.428 435.261 634.08V623.262Z" fill="#232323"/>
</svg>
