<svg width="550" height="556" viewBox="0 0 550 556" fill="none" xmlns="http://www.w3.org/2000/svg">
<path d="M321.923 0.000976562L321.091 449.611" stroke="#848484" stroke-width="0.831842" stroke-dasharray="11.65 11.65"/>
<path d="M546.52 224.599L96.9089 224.599" stroke="#848484" stroke-width="0.831842" stroke-dasharray="11.65 11.65"/>
<rect x="96.9101" y="0.416897" width="451.69" height="451.69" stroke="#232323" stroke-width="0.831842"/>
<rect x="173.854" y="77.3633" width="73.2021" height="73.2021" rx="36.601" fill="#D9D9D9"/>
<path d="M214.929 101.765V125.964H209.092V107.224H208.951L203.539 110.532V105.475L209.506 101.765H214.929Z" fill="white"/>
<rect x="173.854" y="288.65" width="73.2021" height="73.2021" rx="36.601" fill="#D9D9D9"/>
<path d="M209.944 337.582C208.101 337.582 206.467 337.267 205.041 336.637C203.623 335.998 202.504 335.12 201.685 334.002C200.866 332.883 200.448 331.595 200.433 330.138H206.317C206.341 330.666 206.51 331.134 206.825 331.544C207.14 331.946 207.569 332.261 208.113 332.489C208.656 332.718 209.275 332.832 209.968 332.832C210.661 332.832 211.272 332.71 211.799 332.466C212.335 332.213 212.753 331.871 213.052 331.438C213.351 330.996 213.497 330.492 213.489 329.925C213.497 329.358 213.336 328.854 213.005 328.413C212.674 327.972 212.205 327.629 211.599 327.385C211 327.14 210.291 327.018 209.472 327.018H207.12V322.859H209.472C210.189 322.859 210.819 322.741 211.362 322.505C211.914 322.268 212.343 321.938 212.65 321.512C212.957 321.079 213.107 320.583 213.099 320.023C213.107 319.48 212.977 319.003 212.709 318.594C212.449 318.176 212.083 317.853 211.61 317.625C211.146 317.396 210.606 317.282 209.992 317.282C209.346 317.282 208.759 317.396 208.231 317.625C207.711 317.853 207.298 318.176 206.99 318.594C206.683 319.011 206.522 319.496 206.506 320.047H200.917C200.933 318.605 201.335 317.337 202.122 316.242C202.91 315.139 203.981 314.277 205.336 313.655C206.699 313.032 208.251 312.721 209.992 312.721C211.725 312.721 213.249 313.024 214.564 313.631C215.88 314.237 216.904 315.065 217.637 316.112C218.369 317.152 218.735 318.33 218.735 319.645C218.743 321.008 218.298 322.131 217.4 323.013C216.51 323.895 215.364 324.439 213.962 324.643V324.832C215.837 325.053 217.251 325.66 218.204 326.652C219.165 327.645 219.641 328.885 219.633 330.374C219.633 331.776 219.22 333.021 218.393 334.108C217.574 335.187 216.431 336.038 214.966 336.66C213.509 337.275 211.835 337.582 209.944 337.582Z" fill="white"/>
<rect x="392.629" y="77.3633" width="73.2021" height="73.2021" rx="36.601" fill="#D9D9D9"/>
<path d="M420.014 125.964V121.757L428.841 114.03C429.502 113.431 430.066 112.884 430.53 112.387C430.995 111.883 431.35 111.379 431.594 110.875C431.838 110.363 431.96 109.808 431.96 109.209C431.96 108.539 431.814 107.968 431.523 107.496C431.231 107.015 430.83 106.645 430.318 106.385C429.806 106.125 429.219 105.995 428.557 105.995C427.888 105.995 427.301 106.133 426.797 106.409C426.292 106.676 425.899 107.066 425.615 107.578C425.339 108.09 425.201 108.713 425.201 109.445H419.66C419.66 107.799 420.03 106.377 420.77 105.18C421.511 103.982 422.551 103.061 423.89 102.415C425.237 101.761 426.8 101.434 428.581 101.434C430.416 101.434 432.011 101.741 433.366 102.356C434.721 102.97 435.769 103.829 436.509 104.932C437.258 106.026 437.632 107.299 437.632 108.748C437.632 109.67 437.447 110.583 437.076 111.489C436.706 112.395 436.041 113.396 435.079 114.491C434.126 115.586 432.771 116.897 431.015 118.425L428.12 121.096V121.249H437.927V125.964H420.014Z" fill="white"/>
<rect x="392.629" y="288.65" width="73.2021" height="73.2021" rx="36.601" fill="#D9D9D9"/>
<path d="M419.219 333.234V328.673L429.132 313.052H433.185V319.243H430.834L425.032 328.436V328.625H439.389V333.234H419.219ZM430.905 337.251V331.839L431.023 329.842V313.052H436.494V337.251H430.905Z" fill="white"/>
<path d="M224.864 518.078L226.136 516.132C227.01 516.356 227.933 516.643 228.906 516.993C229.88 517.317 230.815 517.667 231.714 518.041C232.637 518.39 233.398 518.715 233.997 519.014L232.762 521.223C232.163 520.873 231.414 520.512 230.516 520.137C229.618 519.763 228.669 519.389 227.671 519.014C226.673 518.64 225.737 518.328 224.864 518.078ZM222.992 525.977C224.34 525.627 225.949 525.191 227.821 524.667C229.717 524.142 231.626 523.618 233.548 523.094L233.847 525.34C232.175 525.889 230.479 526.438 228.757 526.987C227.06 527.511 225.512 527.986 224.115 528.41L222.992 525.977ZM239.088 518.041H254.099V520.175H237.441L239.088 518.041ZM253.387 518.041H253.837L254.286 517.929L256.195 518.49C255.671 519.463 255.072 520.437 254.398 521.41C253.749 522.383 253.088 523.194 252.414 523.843L250.168 523.057C250.742 522.458 251.329 521.747 251.928 520.923C252.526 520.075 253.013 519.251 253.387 518.453V518.041ZM243.73 518.827H246.313C246.088 520.15 245.751 521.335 245.302 522.383C244.878 523.406 244.254 524.317 243.43 525.116C242.632 525.914 241.584 526.601 240.286 527.175C238.988 527.724 237.391 528.185 235.495 528.56C235.37 528.26 235.17 527.911 234.896 527.511C234.621 527.112 234.372 526.788 234.147 526.538C235.869 526.264 237.304 525.902 238.452 525.453C239.625 525.003 240.56 524.479 241.259 523.88C241.983 523.257 242.532 522.533 242.906 521.709C243.306 520.861 243.58 519.9 243.73 518.827ZM246.2 519.463C246.375 520.262 246.65 521.048 247.024 521.822C247.423 522.57 248.01 523.282 248.783 523.955C249.557 524.629 250.605 525.216 251.928 525.715C253.275 526.214 254.997 526.613 257.093 526.913C256.844 527.187 256.569 527.561 256.27 528.036C255.97 528.485 255.758 528.884 255.633 529.233C253.412 528.834 251.591 528.31 250.168 527.661C248.746 526.987 247.623 526.226 246.799 525.378C245.976 524.504 245.339 523.593 244.89 522.645C244.466 521.672 244.129 520.699 243.879 519.725L246.2 519.463ZM239.687 515.308L242.195 515.683C241.571 517.055 240.76 518.415 239.762 519.763C238.789 521.085 237.578 522.308 236.131 523.431C235.881 523.182 235.544 522.92 235.12 522.645C234.721 522.371 234.347 522.171 233.997 522.046C235.395 521.073 236.568 519.987 237.516 518.79C238.464 517.567 239.188 516.406 239.687 515.308ZM230.778 534.848V537.431H249.644V534.848H230.778ZM230.778 539.228V541.848H249.644V539.228H230.778ZM230.778 530.506V533.014H249.644V530.506H230.778ZM228.045 528.597H252.452V543.72H228.045V528.597ZM243.131 545.666L245.414 544.244C246.787 544.668 248.172 545.117 249.569 545.592C250.967 546.066 252.289 546.54 253.537 547.014C254.785 547.513 255.858 547.975 256.756 548.399L253.612 549.821C252.838 549.422 251.89 548.985 250.767 548.511C249.644 548.037 248.434 547.551 247.136 547.051C245.838 546.577 244.503 546.116 243.131 545.666ZM234.297 544.132L236.88 545.292C235.856 545.891 234.683 546.477 233.361 547.051C232.063 547.625 230.716 548.149 229.318 548.624C227.921 549.098 226.598 549.51 225.35 549.859C225.2 549.659 225.001 549.422 224.751 549.148C224.502 548.898 224.24 548.636 223.965 548.362C223.716 548.112 223.479 547.912 223.254 547.763C224.552 547.488 225.874 547.164 227.222 546.789C228.594 546.415 229.892 546.003 231.115 545.554C232.338 545.105 233.398 544.631 234.297 544.132ZM272.291 517.143H294.302V519.688H272.291V517.143ZM271.355 517.143H274.088V527.399C274.088 529.046 274.025 530.831 273.901 532.752C273.801 534.674 273.576 536.633 273.227 538.629C272.877 540.6 272.366 542.535 271.692 544.431C271.043 546.303 270.157 548.025 269.034 549.597C268.885 549.447 268.66 549.272 268.361 549.073C268.086 548.873 267.799 548.686 267.5 548.511C267.2 548.337 266.938 548.199 266.714 548.1C267.762 546.602 268.598 544.98 269.222 543.233C269.845 541.461 270.307 539.665 270.607 537.843C270.931 535.996 271.131 534.187 271.205 532.415C271.305 530.618 271.355 528.946 271.355 527.399V517.143ZM278.804 531.255V534.586H290.259V531.255H278.804ZM278.804 525.939V529.196H290.259V525.939H278.804ZM276.259 523.768H292.879V536.757H276.259V523.768ZM277.606 538.816L280.114 539.453C279.541 540.95 278.817 542.435 277.943 543.907C277.07 545.354 276.184 546.59 275.286 547.613C275.111 547.463 274.886 547.288 274.612 547.089C274.337 546.914 274.063 546.739 273.788 546.565C273.514 546.39 273.264 546.24 273.04 546.116C273.988 545.192 274.849 544.082 275.623 542.784C276.421 541.486 277.082 540.164 277.606 538.816ZM288.2 539.49L290.596 538.517C291.195 539.29 291.781 540.126 292.355 541.025C292.929 541.898 293.453 542.772 293.927 543.645C294.426 544.518 294.801 545.292 295.05 545.966L292.467 547.126C292.243 546.452 291.906 545.679 291.457 544.805C291.007 543.907 290.496 542.996 289.922 542.073C289.348 541.149 288.774 540.289 288.2 539.49ZM283.147 519.164L286.216 519.725C285.917 520.699 285.617 521.697 285.318 522.72C285.043 523.743 284.769 524.592 284.494 525.265L282.024 524.704C282.248 523.905 282.46 522.982 282.66 521.934C282.885 520.886 283.047 519.962 283.147 519.164ZM282.997 535.896H285.692V546.827C285.692 547.501 285.605 548.037 285.43 548.436C285.255 548.836 284.918 549.135 284.419 549.335C283.92 549.51 283.246 549.622 282.398 549.672C281.574 549.722 280.539 549.734 279.291 549.709C279.241 549.36 279.141 548.96 278.992 548.511C278.842 548.062 278.68 547.663 278.505 547.313C279.403 547.338 280.214 547.351 280.938 547.351C281.662 547.351 282.148 547.351 282.398 547.351C282.797 547.326 282.997 547.126 282.997 546.752V535.896ZM261.96 517.667L263.569 515.683C264.318 516.007 265.091 516.406 265.89 516.881C266.689 517.355 267.437 517.841 268.136 518.34C268.835 518.815 269.409 519.276 269.858 519.725L268.173 521.971C267.749 521.497 267.188 521.011 266.489 520.512C265.79 519.987 265.042 519.476 264.243 518.977C263.469 518.478 262.708 518.041 261.96 517.667ZM260.125 527.773L261.698 525.715C262.446 526.014 263.22 526.388 264.018 526.838C264.842 527.262 265.603 527.711 266.302 528.185C267.025 528.634 267.612 529.071 268.061 529.495L266.414 531.741C265.99 531.317 265.428 530.868 264.73 530.394C264.031 529.895 263.27 529.421 262.446 528.971C261.648 528.497 260.874 528.098 260.125 527.773ZM260.911 547.65C261.46 546.652 262.059 545.492 262.708 544.169C263.382 542.822 264.056 541.399 264.73 539.902C265.428 538.404 266.052 536.945 266.601 535.522L268.847 537.094C268.348 538.417 267.787 539.789 267.163 541.212C266.564 542.634 265.94 544.032 265.291 545.404C264.642 546.777 264.018 548.05 263.419 549.223L260.911 547.65ZM301.152 516.806H328.515V519.052H301.152V516.806ZM298.569 533.426H331.248V535.709H298.569V533.426ZM303.398 525.378H311.446V527.249H303.398V525.378ZM302.574 529.308H311.483V531.18H302.574V529.308ZM318.034 529.308H327.205V531.217H318.034V529.308ZM318.034 525.378H326.307V527.249H318.034V525.378ZM313.392 517.667H316.087V532.191H313.392V517.667ZM309.686 539.864H312.269V549.447H309.686V539.864ZM317.997 539.864H320.579V549.447H317.997V539.864ZM298.981 521.26H330.761V528.41H328.141V523.319H301.526V528.41H298.981V521.26ZM301.489 538.367H327.13V540.688H304.146V549.672H301.489V538.367ZM326.419 538.367H329.152V546.939C329.152 547.588 329.077 548.087 328.927 548.436C328.777 548.811 328.465 549.098 327.991 549.297C327.517 549.522 326.918 549.647 326.194 549.672C325.496 549.722 324.635 549.747 323.611 549.747C323.562 549.397 323.437 548.998 323.237 548.549C323.062 548.124 322.888 547.738 322.713 547.388C323.462 547.413 324.123 547.426 324.697 547.426C325.296 547.426 325.695 547.413 325.895 547.388C326.119 547.388 326.257 547.351 326.307 547.276C326.382 547.201 326.419 547.076 326.419 546.902V538.367ZM313.43 534.249L316.462 534.399C316.137 535.397 315.788 536.383 315.414 537.356C315.039 538.305 314.69 539.128 314.366 539.827L311.895 539.565C312.194 538.816 312.481 537.943 312.756 536.945C313.055 535.921 313.28 535.023 313.43 534.249ZM336.002 521.597H368.718V524.33H336.002V521.597ZM353.445 524.03C354.144 526.251 355.018 528.41 356.066 530.506C357.139 532.602 358.362 534.561 359.734 536.383C361.132 538.18 362.679 539.777 364.376 541.174C366.073 542.572 367.882 543.682 369.804 544.506C369.604 544.706 369.367 544.955 369.092 545.255C368.818 545.529 368.568 545.829 368.344 546.153C368.119 546.452 367.92 546.727 367.745 546.977C365.125 545.679 362.754 543.907 360.633 541.661C358.511 539.415 356.665 536.845 355.093 533.95C353.545 531.055 352.248 527.961 351.2 524.667L353.445 524.03ZM364.638 525.864L367.071 527.586C366.272 528.535 365.374 529.52 364.376 530.544C363.403 531.567 362.417 532.54 361.419 533.463C360.42 534.387 359.472 535.198 358.574 535.896L356.59 534.362C357.438 533.638 358.362 532.789 359.36 531.816C360.358 530.843 361.319 529.832 362.242 528.784C363.191 527.736 363.989 526.763 364.638 525.864ZM357.189 517.217L358.873 515.458C359.672 515.832 360.495 516.269 361.344 516.768C362.217 517.267 363.053 517.766 363.852 518.266C364.65 518.765 365.312 519.226 365.836 519.651L364.039 521.672C363.54 521.223 362.904 520.736 362.13 520.212C361.356 519.663 360.533 519.126 359.659 518.602C358.811 518.078 357.987 517.617 357.189 517.217ZM338.023 527.961L340.157 526.538C340.93 527.187 341.717 527.923 342.515 528.747C343.314 529.545 344.05 530.356 344.724 531.18C345.397 531.978 345.921 532.702 346.296 533.351L344.05 534.998C343.676 534.349 343.151 533.613 342.478 532.789C341.829 531.966 341.118 531.13 340.344 530.281C339.57 529.433 338.797 528.659 338.023 527.961ZM350.788 515.383H353.67V545.928C353.67 546.927 353.533 547.663 353.258 548.137C352.984 548.636 352.535 549.01 351.911 549.26C351.287 549.485 350.401 549.634 349.253 549.709C348.13 549.784 346.745 549.821 345.098 549.821C345.023 549.397 344.886 548.898 344.686 548.324C344.487 547.75 344.274 547.251 344.05 546.827C345.348 546.877 346.533 546.902 347.606 546.902C348.704 546.902 349.44 546.902 349.815 546.902C350.164 546.877 350.413 546.802 350.563 546.677C350.713 546.552 350.788 546.303 350.788 545.928V515.383ZM334.954 543.57C336.027 543.046 337.25 542.41 338.622 541.661C339.995 540.887 341.454 540.064 343.002 539.191C344.549 538.317 346.084 537.456 347.606 536.608L348.504 539.116C346.483 540.363 344.424 541.611 342.328 542.859C340.257 544.082 338.385 545.167 336.713 546.116L334.954 543.57Z" fill="#232323"/>
<path d="M4.11762 139.382H32.1174V142.152H6.92508V165.435H4.11762V139.382ZM30.7324 139.382H33.5399V161.767C33.5399 162.64 33.4276 163.326 33.203 163.825C32.9784 164.325 32.5541 164.686 31.9302 164.911C31.2814 165.136 30.408 165.273 29.3099 165.323C28.2119 165.373 26.8768 165.398 25.3046 165.398C25.2547 165.148 25.1798 164.849 25.08 164.499C24.9802 164.15 24.8554 163.8 24.7057 163.451C24.5809 163.102 24.4437 162.79 24.2939 162.515C25.1175 162.54 25.9035 162.553 26.6522 162.553C27.4258 162.578 28.0996 162.578 28.6736 162.553C29.2476 162.553 29.6468 162.553 29.8714 162.553C30.2208 162.553 30.4454 162.49 30.5452 162.366C30.67 162.241 30.7324 162.041 30.7324 161.767V139.382ZM10.6684 132.681H18.679V135.189H10.6684V132.681ZM16.7325 132.681H19.8394C19.9642 135.376 20.2387 137.86 20.6629 140.13C21.0872 142.401 21.6986 144.46 22.4972 146.307C23.3207 148.129 24.3688 149.701 25.6415 151.023C26.9142 152.321 28.4739 153.369 30.3206 154.168C30.121 154.342 29.8839 154.58 29.6094 154.879C29.3599 155.153 29.1228 155.453 28.8982 155.777C28.6736 156.077 28.4739 156.351 28.2993 156.601C26.4276 155.653 24.818 154.467 23.4704 153.045C22.1478 151.597 21.0622 149.925 20.2138 148.029C19.3653 146.107 18.704 143.986 18.2298 141.665C17.7806 139.319 17.4812 136.786 17.3314 134.066H16.7325V132.681ZM17.0694 140.093L19.6897 140.542C19.0658 144.41 17.9179 147.692 16.2459 150.387C14.5739 153.082 12.2156 155.216 9.17105 156.788C9.07123 156.563 8.89655 156.314 8.64699 156.039C8.4224 155.765 8.18532 155.49 7.93577 155.216C7.68622 154.941 7.46162 154.729 7.26198 154.58C10.1069 153.207 12.3279 151.335 13.925 148.965C15.5222 146.569 16.5703 143.612 17.0694 140.093ZM22.4597 178.205H33.6896V180.863H25.1923V210.435H22.4597V178.205ZM2.508 180.152H20.4009V182.66H2.508V180.152ZM1.57218 190.521H20.925V193.066H1.57218V190.521ZM10.032 176.147H12.7646V181.649H10.032V176.147ZM4.86627 183.933L7.22454 183.446C7.62383 184.369 7.98568 185.405 8.3101 186.553C8.63452 187.676 8.84664 188.637 8.94646 189.435L6.43845 190.072C6.36359 189.223 6.17642 188.237 5.87696 187.114C5.5775 185.966 5.2406 184.906 4.86627 183.933ZM15.5721 183.184L18.2672 183.82C17.868 184.918 17.4437 186.054 16.9945 187.227C16.5703 188.375 16.1585 189.36 15.7592 190.184L13.4758 189.548C13.7254 188.974 13.9749 188.312 14.2245 187.564C14.499 186.815 14.7486 186.054 14.9731 185.28C15.2227 184.507 15.4223 183.808 15.5721 183.184ZM5.05344 205.756H17.3689V208.264H5.05344V205.756ZM4.08018 196.36H18.8287V210.285H16.0961V198.831H6.70048V210.472H4.08018V196.36ZM32.9784 178.205H33.5024L33.9891 178.093L36.0104 179.403C35.2618 181.175 34.4258 183.072 33.5024 185.093C32.5791 187.114 31.6807 188.986 30.8073 190.708C32.08 191.881 33.0532 193.004 33.727 194.077C34.4008 195.125 34.875 196.123 35.1495 197.072C35.424 198.02 35.5612 198.943 35.5612 199.842C35.5612 201.014 35.4115 202.025 35.112 202.874C34.8126 203.697 34.3384 204.334 33.6896 204.783C33.0407 205.207 32.2297 205.481 31.2565 205.606C30.7573 205.656 30.2208 205.681 29.6468 205.681C29.0978 205.681 28.5363 205.669 27.9624 205.644C27.9374 205.244 27.8625 204.783 27.7378 204.259C27.613 203.735 27.4258 203.273 27.1763 202.874C27.7502 202.924 28.2868 202.961 28.7859 202.986C29.285 202.986 29.7217 202.973 30.096 202.948C30.4204 202.924 30.7199 202.886 30.9944 202.836C31.2689 202.761 31.5185 202.661 31.7431 202.537C32.1424 202.287 32.4169 201.9 32.5666 201.376C32.7413 200.852 32.8286 200.241 32.8286 199.542C32.8037 198.369 32.4543 197.084 31.7805 195.687C31.1067 194.264 29.809 192.729 27.8875 191.082C28.3866 190.134 28.8732 189.123 29.3474 188.05C29.8215 186.952 30.2832 185.867 30.7324 184.794C31.1816 183.696 31.5933 182.66 31.9677 181.687C32.342 180.713 32.6789 179.852 32.9784 179.104V178.205ZM18.8287 231.852H32.2671V234.323H18.8287V231.852ZM16.171 238.328H35.3366V240.911H16.171V238.328ZM23.8073 220.997H26.6148V226.499H23.8073V220.997ZM15.6095 225.264H35.3741V231.74H32.7163V227.697H18.1924V231.74H15.6095V225.264ZM23.9945 239.526H26.6896V252.366C26.6896 253.089 26.6023 253.651 26.4276 254.05C26.2529 254.474 25.9035 254.799 25.3795 255.023C24.8804 255.223 24.2191 255.335 23.3955 255.36C22.597 255.41 21.6112 255.435 20.4383 255.435C20.3884 255.061 20.2761 254.636 20.1015 254.162C19.9268 253.688 19.7521 253.251 19.5774 252.852C20.4508 252.877 21.2369 252.89 21.9357 252.89C22.6594 252.915 23.146 252.915 23.3955 252.89C23.6201 252.865 23.7699 252.815 23.8447 252.74C23.9446 252.69 23.9945 252.553 23.9945 252.328V239.526ZM18.5293 243.195L21.0747 243.793C20.5756 245.416 19.9268 247.025 19.1282 248.622C18.3296 250.194 17.4812 251.53 16.5828 252.628C16.433 252.478 16.2209 252.316 15.9464 252.141C15.6969 251.941 15.4223 251.742 15.1229 251.542C14.8484 251.342 14.5988 251.193 14.3742 251.093C15.2976 250.095 16.1086 248.897 16.8074 247.499C17.5061 246.077 18.0801 244.642 18.5293 243.195ZM29.4597 244.055L31.7431 243.082C32.317 243.931 32.8785 244.854 33.4276 245.852C34.0015 246.85 34.5131 247.824 34.9623 248.772C35.4365 249.695 35.8108 250.531 36.0853 251.28L33.6147 252.403C33.3652 251.629 33.0158 250.768 32.5666 249.82C32.1174 248.847 31.6183 247.861 31.0693 246.863C30.5452 245.84 30.0087 244.904 29.4597 244.055ZM7.29941 220.997L9.76998 222.008C9.29583 222.881 8.79673 223.817 8.27267 224.815C7.7486 225.813 7.21207 226.774 6.66305 227.697C6.13899 228.621 5.62741 229.419 5.1283 230.093L3.21923 229.232C3.69338 228.508 4.18 227.672 4.67911 226.724C5.17821 225.751 5.66484 224.765 6.13899 223.767C6.61314 222.744 6.99995 221.82 7.29941 220.997ZM11.5293 225.264L13.8876 226.35C13.0391 227.772 12.0908 229.282 11.0427 230.879C10.0195 232.476 8.98389 234.011 7.93577 235.483C6.88765 236.956 5.88944 238.253 4.94114 239.376L3.21923 238.403C3.91797 237.555 4.64168 236.594 5.39033 235.521C6.16395 234.423 6.9126 233.287 7.63631 232.114C8.38496 230.917 9.08371 229.731 9.73255 228.558C10.4063 227.36 11.0053 226.262 11.5293 225.264ZM1.42245 228.895L2.8449 227.024C3.54365 227.597 4.24239 228.246 4.94114 228.97C5.66484 229.669 6.32616 230.368 6.92508 231.066C7.52401 231.74 7.98568 232.351 8.3101 232.9L6.77535 235.034C6.45093 234.46 5.98926 233.811 5.39033 233.088C4.81636 232.339 4.18 231.603 3.48126 230.879C2.78251 230.155 2.09624 229.494 1.42245 228.895ZM10.1817 233.986L12.1657 233.162C12.6897 233.961 13.1888 234.835 13.663 235.783C14.1371 236.706 14.5489 237.617 14.8983 238.515C15.2726 239.389 15.5471 240.175 15.7218 240.874L13.5881 241.809C13.4384 241.111 13.1764 240.312 12.802 239.414C12.4527 238.515 12.0534 237.592 11.6042 236.644C11.155 235.671 10.6808 234.785 10.1817 233.986ZM1.27272 237.767C2.91976 237.717 4.8538 237.642 7.07481 237.542C9.29583 237.442 11.5917 237.343 13.9625 237.243L13.925 239.526C11.704 239.676 9.50795 239.826 7.33684 239.975C5.16574 240.1 3.2317 240.225 1.53475 240.35L1.27272 237.767ZM11.155 242.783L13.2138 242.146C13.7129 243.17 14.1746 244.305 14.5988 245.553C15.048 246.776 15.36 247.836 15.5346 248.735L13.401 249.483C13.2263 248.56 12.9268 247.474 12.5026 246.227C12.0783 244.979 11.6291 243.831 11.155 242.783ZM3.40639 242.408L5.8021 242.82C5.55254 244.592 5.20317 246.339 4.75397 248.061C4.30478 249.758 3.78072 251.205 3.18179 252.403C3.00711 252.278 2.78251 252.153 2.508 252.029C2.25845 251.904 1.98394 251.779 1.68448 251.654C1.40997 251.505 1.16042 251.392 0.935822 251.317C1.58466 250.17 2.09624 248.809 2.47057 247.237C2.86985 245.64 3.18179 244.031 3.40639 242.408ZM7.41171 238.815H9.91971V255.51H7.41171V238.815ZM1.60961 271.088H20.3635V273.633H1.60961V271.088ZM9.50795 266.147H12.2406V272.248H9.50795V266.147ZM6.13899 274.868L8.79673 275.542C8.17284 277.089 7.37428 278.612 6.40102 280.109C5.45272 281.606 4.49194 282.867 3.51869 283.89C3.36896 283.74 3.15684 283.565 2.88233 283.366C2.60782 283.141 2.32084 282.929 2.02138 282.729C1.74687 282.53 1.49731 282.367 1.27272 282.243C2.27093 281.294 3.19427 280.171 4.04275 278.874C4.89123 277.576 5.58998 276.241 6.13899 274.868ZM13.2138 281.644L15.9838 282.28C14.786 286.248 13.1389 289.779 11.0427 292.874C8.97141 295.943 6.5258 298.476 3.70585 300.472C3.58108 300.273 3.38144 300.036 3.10693 299.761C2.85738 299.487 2.59535 299.212 2.32084 298.938C2.04633 298.688 1.79678 298.476 1.57218 298.301C4.39212 296.53 6.77535 294.209 8.72186 291.339C10.6684 288.469 12.1657 285.237 13.2138 281.644ZM12.8395 276.029L14.9731 274.831C15.5222 275.405 16.0712 276.041 16.6202 276.74C17.1692 277.439 17.6683 278.125 18.1175 278.799C18.5917 279.473 18.941 280.084 19.1656 280.633L16.9197 281.981C16.6951 281.432 16.3582 280.82 15.909 280.146C15.4847 279.448 14.9981 278.736 14.4491 278.013C13.925 277.289 13.3885 276.628 12.8395 276.029ZM4.52938 284.676L6.58819 283.029C7.98568 284.177 9.40813 285.462 10.8555 286.884C12.3279 288.282 13.6755 289.679 14.8983 291.077C16.1211 292.449 17.0943 293.722 17.818 294.895L15.5346 296.804C14.8609 295.656 13.925 294.371 12.7272 292.948C11.5293 291.501 10.2067 290.054 8.75929 288.606C7.33684 287.159 5.92687 285.849 4.52938 284.676ZM22.6469 272.959H35.973V275.58H22.6469V272.959ZM23.7699 265.997L26.5399 266.409C26.1157 268.804 25.5916 271.138 24.9677 273.409C24.3688 275.679 23.6701 277.788 22.8715 279.735C22.0729 281.681 21.1496 283.403 20.1015 284.9C19.9517 284.726 19.7396 284.526 19.4651 284.301C19.2155 284.052 18.941 283.802 18.6416 283.553C18.3671 283.303 18.105 283.116 17.8555 282.991C18.8786 281.644 19.7646 280.072 20.5132 278.275C21.2619 276.453 21.8982 274.494 22.4223 272.398C22.9713 270.302 23.4205 268.168 23.7699 265.997ZM30.9196 274.419L33.6896 274.681C33.0907 278.998 32.2048 282.792 31.0319 286.061C29.859 289.33 28.2618 292.15 26.2404 294.521C24.244 296.891 21.6736 298.888 18.5293 300.51C18.4544 300.285 18.3172 300.023 18.1175 299.724C17.9179 299.424 17.7057 299.125 17.4812 298.825C17.2815 298.526 17.0819 298.276 16.8822 298.077C19.8519 296.679 22.2726 294.895 24.1442 292.724C26.0408 290.553 27.5132 287.945 28.5613 284.9C29.6344 281.856 30.4204 278.362 30.9196 274.419ZM24.1068 275.28C24.6558 278.699 25.4294 281.918 26.4276 284.938C27.4258 287.957 28.7235 290.603 30.3206 292.874C31.9178 295.145 33.8518 296.904 36.1227 298.152C35.9231 298.326 35.6985 298.538 35.4489 298.788C35.1994 299.063 34.9623 299.35 34.7377 299.649C34.5131 299.948 34.3259 300.223 34.1762 300.472C31.8055 299 29.7966 297.054 28.1495 294.633C26.5025 292.187 25.1549 289.355 24.1068 286.136C23.0836 282.916 22.2726 279.423 21.6736 275.654L24.1068 275.28Z" fill="#232323"/>
<path d="M50.1936 8.35505H76.2169V10.3315H50.1936V8.35505ZM61.9026 5.4802H64.2084V9.31333H61.9026V5.4802ZM51.5412 20.064H73.7913V21.9806H53.7272V33.0607H51.5412V20.064ZM72.8629 20.064H75.1089V30.3656C75.1089 30.9845 75.0191 31.4736 74.8394 31.8329C74.6797 32.1923 74.3602 32.4618 73.8811 32.6415C73.402 32.8212 72.7431 32.921 71.9046 32.941C71.0861 32.9809 70.048 33.0009 68.7902 33.0009C68.7503 32.6814 68.6605 32.3221 68.5207 31.9228C68.381 31.5235 68.2312 31.1741 68.0715 30.8747C69.0498 30.8946 69.9182 30.9046 70.6768 30.9046C71.4555 30.9246 71.9645 30.9246 72.2041 30.9046C72.4636 30.8846 72.6333 30.8347 72.7132 30.7549C72.813 30.675 72.8629 30.5353 72.8629 30.3356V20.064ZM57.5304 23.9271H59.5069V31.803H57.5304V23.9271ZM58.5785 23.9271H68.94V30.2757H58.5785V28.6287H66.9336V25.5742H58.5785V23.9271ZM57.3208 13.6555V16.5304H69.0597V13.6555H57.3208ZM55.1647 12.0085H71.3057V18.2074H55.1647V12.0085Z" fill="#232323"/>
<path d="M73.8212 425.977L75.5581 427.714C74.2205 428.113 72.7032 428.492 71.0063 428.852C69.3093 429.191 67.5525 429.501 65.7357 429.78C63.919 430.04 62.1521 430.259 60.4352 430.439C60.3953 430.199 60.3054 429.9 60.1657 429.541C60.0259 429.181 59.8962 428.882 59.7764 428.642C61.0341 428.502 62.3118 428.343 63.6095 428.163C64.9072 427.963 66.1849 427.744 67.4426 427.504C68.7004 427.265 69.8783 427.025 70.9763 426.785C72.0743 426.526 73.0226 426.256 73.8212 425.977ZM59.1775 428.013L61.3635 428.732V446.31H59.1775V428.013ZM57.1411 445.921C58.5785 445.702 60.2855 445.422 62.2619 445.083C64.2384 444.743 66.2448 444.384 68.2811 444.005L68.4009 446.011C66.5243 446.39 64.6377 446.76 62.7411 447.119C60.8445 447.458 59.1475 447.768 57.6502 448.047L57.1411 445.921ZM60.4053 435.47H76.9656V437.536H60.4053V435.47ZM67.3528 428.672H69.5988C69.6187 430.928 69.7186 433.084 69.8982 435.14C70.0979 437.177 70.3574 439.053 70.6768 440.77C71.0162 442.487 71.3956 443.975 71.8148 445.232C72.254 446.47 72.7232 447.438 73.2223 448.137C73.7214 448.836 74.2205 449.185 74.7196 449.185C75.039 449.185 75.2686 448.856 75.4084 448.197C75.5681 447.538 75.6779 446.48 75.7378 445.023C75.9773 445.262 76.2668 445.492 76.6062 445.712C76.9656 445.911 77.275 446.071 77.5345 446.191C77.4347 447.528 77.265 448.576 77.0255 449.335C76.8059 450.094 76.4964 450.623 76.0971 450.922C75.6978 451.222 75.1788 451.371 74.5399 451.371C73.6415 451.371 72.813 450.972 72.0544 450.174C71.3157 449.375 70.6669 448.267 70.1079 446.849C69.5489 445.432 69.0697 443.765 68.6704 441.848C68.2712 439.932 67.9617 437.856 67.7421 435.62C67.5225 433.384 67.3927 431.068 67.3528 428.672ZM58.0395 449.754H70.7966V451.761H58.0395V449.754ZM56.1529 425.108L58.2791 425.737C57.6402 427.434 56.8816 429.111 56.0032 430.768C55.1247 432.405 54.1764 433.953 53.1583 435.41C52.1401 436.867 51.082 438.155 49.984 439.273C49.9241 439.093 49.8143 438.864 49.6545 438.584C49.5148 438.305 49.3551 438.025 49.1754 437.746C49.0157 437.446 48.866 437.217 48.7262 437.057C49.7244 436.079 50.6827 434.951 51.6011 433.673C52.5194 432.395 53.3679 431.028 54.1465 429.57C54.9251 428.093 55.5939 426.606 56.1529 425.108ZM53.0385 432.805L55.1647 430.678L55.1946 430.708V452.479H53.0385V432.805Z" fill="#232323"/>
<path d="M122.9 468.471L124.637 470.208C123.299 470.607 121.782 470.987 120.085 471.346C118.388 471.685 116.631 471.995 114.814 472.274C112.998 472.534 111.231 472.753 109.514 472.933C109.474 472.693 109.384 472.394 109.244 472.035C109.105 471.675 108.975 471.376 108.855 471.136C110.113 470.997 111.39 470.837 112.688 470.657C113.986 470.457 115.264 470.238 116.521 469.998C117.779 469.759 118.957 469.519 120.055 469.28C121.153 469.02 122.101 468.751 122.9 468.471ZM108.256 470.507L110.442 471.226V488.805H108.256V470.507ZM106.22 488.415C107.657 488.196 109.364 487.916 111.341 487.577C113.317 487.237 115.323 486.878 117.36 486.499L117.48 488.505C115.603 488.884 113.716 489.254 111.82 489.613C109.923 489.953 108.226 490.262 106.729 490.541L106.22 488.415ZM109.484 477.964H126.044V480.03H109.484V477.964ZM116.431 471.166H118.677C118.697 473.422 118.797 475.578 118.977 477.635C119.176 479.671 119.436 481.548 119.755 483.265C120.095 484.981 120.474 486.469 120.893 487.727C121.333 488.964 121.802 489.933 122.301 490.631C122.8 491.33 123.299 491.679 123.798 491.679C124.118 491.679 124.347 491.35 124.487 490.691C124.647 490.032 124.756 488.974 124.816 487.517C125.056 487.756 125.345 487.986 125.685 488.206C126.044 488.405 126.354 488.565 126.613 488.685C126.513 490.022 126.344 491.071 126.104 491.829C125.884 492.588 125.575 493.117 125.176 493.416C124.776 493.716 124.257 493.865 123.619 493.865C122.72 493.865 121.892 493.466 121.133 492.668C120.394 491.869 119.745 490.761 119.186 489.344C118.627 487.926 118.148 486.259 117.749 484.343C117.35 482.426 117.04 480.35 116.821 478.114C116.601 475.878 116.471 473.562 116.431 471.166ZM107.118 492.248H119.875V494.255H107.118V492.248ZM105.232 467.603L107.358 468.231C106.719 469.928 105.96 471.605 105.082 473.262C104.203 474.9 103.255 476.447 102.237 477.904C101.219 479.362 100.161 480.649 99.0626 481.767C99.0027 481.588 98.8929 481.358 98.7332 481.078C98.5934 480.799 98.4337 480.519 98.254 480.24C98.0943 479.94 97.9446 479.711 97.8048 479.551C98.803 478.573 99.7613 477.445 100.68 476.167C101.598 474.89 102.447 473.522 103.225 472.065C104.004 470.587 104.673 469.1 105.232 467.603ZM102.117 475.299L104.243 473.173L104.273 473.203V494.974H102.117V475.299Z" fill="#232323"/>
<path d="M519.299 470.328H545.322V472.304H519.299V470.328ZM531.008 467.453H533.313V471.286H531.008V467.453ZM520.646 482.037H542.896V483.953H522.832V495.033H520.646V482.037ZM541.968 482.037H544.214V492.338C544.214 492.957 544.124 493.446 543.944 493.806C543.785 494.165 543.465 494.434 542.986 494.614C542.507 494.794 541.848 494.894 541.01 494.914C540.191 494.954 539.153 494.974 537.895 494.974C537.855 494.654 537.765 494.295 537.626 493.895C537.486 493.496 537.336 493.147 537.177 492.847C538.155 492.867 539.023 492.877 539.782 492.877C540.56 492.897 541.07 492.897 541.309 492.877C541.569 492.857 541.738 492.807 541.818 492.728C541.918 492.648 541.968 492.508 541.968 492.308V482.037ZM526.635 485.9H528.612V493.776H526.635V485.9ZM527.684 485.9H538.045V492.248H527.684V490.601H536.039V487.547H527.684V485.9ZM526.426 475.628V478.503H538.165V475.628H526.426ZM524.27 473.981H540.411V480.18H524.27V473.981Z" fill="#232323"/>
</svg>
