<svg width="537" height="585" viewBox="0 0 537 585" fill="none" xmlns="http://www.w3.org/2000/svg">
<path d="M309.445 0.000976562L308.613 449.611" stroke="#848484" stroke-width="0.831842" stroke-dasharray="11.65 11.65"/>
<path d="M534.042 224.599L84.4314 224.599" stroke="#848484" stroke-width="0.831842" stroke-dasharray="11.65 11.65"/>
<rect x="84.4315" y="0.416897" width="451.69" height="451.69" stroke="#232323" stroke-width="0.831842"/>
<rect x="160.546" y="75.6992" width="73.2021" height="73.2021" rx="36.601" fill="#D9D9D9"/>
<path d="M201.621 100.101V124.3H195.784V105.56H195.642L190.23 108.868V103.811L196.197 100.101H201.621Z" fill="white"/>
<rect x="160.546" y="286.986" width="73.2021" height="73.2021" rx="36.601" fill="#D9D9D9"/>
<path d="M196.636 335.918C194.793 335.918 193.158 335.603 191.732 334.972C190.314 334.334 189.196 333.456 188.376 332.338C187.557 331.219 187.14 329.931 187.124 328.474H193.008C193.032 329.002 193.201 329.47 193.516 329.88C193.831 330.282 194.261 330.597 194.804 330.825C195.348 331.054 195.966 331.168 196.659 331.168C197.353 331.168 197.963 331.046 198.491 330.801C199.027 330.549 199.444 330.207 199.743 329.773C200.043 329.332 200.188 328.828 200.181 328.261C200.188 327.694 200.027 327.19 199.696 326.749C199.365 326.307 198.897 325.965 198.29 325.721C197.691 325.476 196.982 325.354 196.163 325.354H193.812V321.195H196.163C196.88 321.195 197.51 321.077 198.054 320.841C198.605 320.604 199.034 320.273 199.342 319.848C199.649 319.415 199.799 318.919 199.791 318.359C199.799 317.816 199.669 317.339 199.401 316.93C199.141 316.512 198.774 316.189 198.302 315.961C197.837 315.732 197.297 315.618 196.683 315.618C196.037 315.618 195.45 315.732 194.922 315.961C194.403 316.189 193.989 316.512 193.682 316.93C193.375 317.347 193.213 317.832 193.197 318.383H187.608C187.624 316.941 188.026 315.673 188.814 314.578C189.601 313.475 190.673 312.613 192.028 311.99C193.39 311.368 194.942 311.057 196.683 311.057C198.416 311.057 199.94 311.36 201.256 311.967C202.571 312.573 203.595 313.401 204.328 314.448C205.061 315.488 205.427 316.666 205.427 317.981C205.435 319.344 204.99 320.466 204.092 321.349C203.202 322.231 202.055 322.775 200.653 322.979V323.168C202.528 323.389 203.942 323.995 204.895 324.988C205.856 325.981 206.333 327.221 206.325 328.71C206.325 330.112 205.911 331.357 205.084 332.444C204.265 333.523 203.123 334.374 201.658 334.996C200.2 335.611 198.526 335.918 196.636 335.918Z" fill="white"/>
<rect x="379.32" y="75.6992" width="73.2021" height="73.2021" rx="36.601" fill="#D9D9D9"/>
<path d="M406.705 124.3V120.093L415.532 112.366C416.193 111.767 416.757 111.22 417.221 110.723C417.686 110.219 418.041 109.715 418.285 109.211C418.529 108.699 418.651 108.143 418.651 107.545C418.651 106.875 418.505 106.304 418.214 105.832C417.922 105.351 417.521 104.981 417.009 104.721C416.497 104.461 415.91 104.331 415.248 104.331C414.578 104.331 413.992 104.469 413.487 104.744C412.983 105.012 412.589 105.402 412.306 105.914C412.03 106.426 411.892 107.049 411.892 107.781H406.351C406.351 106.135 406.721 104.713 407.461 103.516C408.202 102.318 409.242 101.397 410.581 100.751C411.928 100.097 413.491 99.7699 415.272 99.7699C417.107 99.7699 418.702 100.077 420.057 100.692C421.412 101.306 422.46 102.165 423.2 103.267C423.948 104.362 424.323 105.635 424.323 107.084C424.323 108.006 424.138 108.919 423.767 109.825C423.397 110.731 422.731 111.732 421.77 112.827C420.817 113.921 419.462 115.233 417.706 116.761L414.811 119.432V119.585H424.618V124.3H406.705Z" fill="white"/>
<rect x="379.32" y="286.986" width="73.2021" height="73.2021" rx="36.601" fill="#D9D9D9"/>
<path d="M405.91 331.569V327.009L415.823 311.388H419.876V317.579H417.525L411.723 326.772V326.961H426.08V331.569H405.91ZM417.596 335.587V330.175L417.714 328.178V311.388H423.185V335.587H417.596Z" fill="white"/>
<path d="M36.8835 6.69098H62.9069V8.66744H36.8835V6.69098ZM48.5925 3.81614H50.8984V7.64927H48.5925V3.81614ZM38.2311 18.4H60.4812V20.3165H40.4172V31.3967H38.2311V18.4ZM59.5529 18.4H61.7988V28.7015C61.7988 29.3204 61.709 29.8095 61.5293 30.1689C61.3696 30.5282 61.0502 30.7978 60.571 30.9774C60.0919 31.1571 59.4331 31.2569 58.5946 31.2769C57.7761 31.3168 56.7379 31.3368 55.4802 31.3368C55.4402 31.0174 55.3504 30.658 55.2107 30.2587C55.0709 29.8594 54.9212 29.5101 54.7615 29.2106C55.7397 29.2306 56.6081 29.2405 57.3668 29.2405C58.1454 29.2605 58.6545 29.2605 58.894 29.2405C59.1536 29.2206 59.3233 29.1707 59.4031 29.0908C59.503 29.011 59.5529 28.8712 59.5529 28.6716V18.4ZM44.2204 22.2631H46.1968V30.1389H44.2204V22.2631ZM45.2685 22.2631H55.6299V28.6117H45.2685V26.9646H53.6235V23.9101H45.2685V22.2631ZM44.0107 11.9915V14.8663H55.7497V11.9915H44.0107ZM41.8546 10.3444H57.9957V16.5433H41.8546V10.3444Z" fill="#232323"/>
<path d="M60.5112 424.313L62.248 426.05C60.9104 426.449 59.3932 426.828 57.6962 427.188C55.9992 427.527 54.2424 427.837 52.4257 428.116C50.6089 428.376 48.8421 428.595 47.1252 428.775C47.0852 428.535 46.9954 428.236 46.8556 427.876C46.7159 427.517 46.5861 427.218 46.4663 426.978C47.7241 426.838 49.0018 426.679 50.2995 426.499C51.5971 426.299 52.8748 426.08 54.1326 425.84C55.3903 425.601 56.5682 425.361 57.6663 425.121C58.7643 424.862 59.7126 424.592 60.5112 424.313ZM45.8674 426.349L48.0535 427.068V444.646H45.8674V426.349ZM43.8311 444.257C45.2685 444.037 46.9754 443.758 48.9519 443.419C50.9283 443.079 52.9347 442.72 54.9711 442.341L55.0909 444.347C53.2142 444.726 51.3276 445.096 49.431 445.455C47.5344 445.794 45.8375 446.104 44.3401 446.383L43.8311 444.257ZM47.0952 433.806H63.6555V435.872H47.0952V433.806ZM54.0427 427.008H56.2887C56.3087 429.264 56.4085 431.42 56.5882 433.476C56.7878 435.513 57.0474 437.389 57.3668 439.106C57.7062 440.823 58.0855 442.311 58.5047 443.568C58.944 444.806 59.4131 445.774 59.9122 446.473C60.4113 447.172 60.9104 447.521 61.4095 447.521C61.729 447.521 61.9586 447.192 62.0983 446.533C62.258 445.874 62.3678 444.816 62.4277 443.359C62.6673 443.598 62.9568 443.828 63.2962 444.047C63.6555 444.247 63.965 444.407 64.2245 444.527C64.1247 445.864 63.955 446.912 63.7154 447.671C63.4958 448.43 63.1864 448.959 62.7871 449.258C62.3878 449.558 61.8687 449.707 61.2299 449.707C60.3315 449.707 59.503 449.308 58.7443 448.509C58.0056 447.711 57.3568 446.603 56.7978 445.185C56.2388 443.768 55.7597 442.101 55.3604 440.184C54.9611 438.268 54.6517 436.192 54.4321 433.956C54.2124 431.72 54.0827 429.404 54.0427 427.008ZM44.7295 448.09H57.4866V450.097H44.7295V448.09ZM42.8428 423.444L44.969 424.073C44.3302 425.77 43.5715 427.447 42.6931 429.104C41.8147 430.741 40.8664 432.289 39.8482 433.746C38.83 435.203 37.7719 436.491 36.6739 437.609C36.614 437.429 36.5042 437.2 36.3445 436.92C36.2047 436.641 36.045 436.361 35.8653 436.082C35.7056 435.782 35.5559 435.553 35.4162 435.393C36.4144 434.415 37.3726 433.287 38.291 432.009C39.2094 430.731 40.0578 429.364 40.8364 427.906C41.615 426.429 42.2838 424.942 42.8428 423.444ZM39.7284 431.141L41.8546 429.014L41.8846 429.044V450.815H39.7284V431.141Z" fill="#232323"/>
<path d="M109.59 466.808L111.327 468.545C109.989 468.944 108.472 469.323 106.775 469.683C105.078 470.022 103.321 470.332 101.504 470.611C99.6875 470.871 97.9207 471.09 96.2038 471.27C96.1638 471.03 96.074 470.731 95.9343 470.372C95.7945 470.012 95.6647 469.713 95.5449 469.473C96.8027 469.333 98.0804 469.174 99.3781 468.994C100.676 468.794 101.953 468.575 103.211 468.335C104.469 468.096 105.647 467.856 106.745 467.616C107.843 467.357 108.791 467.087 109.59 466.808ZM94.946 468.844L97.1321 469.563V487.141H94.946V468.844ZM92.9097 486.752C94.3471 486.533 96.054 486.253 98.0305 485.914C100.007 485.574 102.013 485.215 104.05 484.836L104.169 486.842C102.293 487.221 100.406 487.591 98.5096 487.95C96.613 488.289 94.9161 488.599 93.4188 488.878L92.9097 486.752ZM96.1738 476.301H112.734V478.367H96.1738V476.301ZM103.121 469.503H105.367C105.387 471.759 105.487 473.915 105.667 475.972C105.866 478.008 106.126 479.884 106.445 481.601C106.785 483.318 107.164 484.806 107.583 486.063C108.023 487.301 108.492 488.269 108.991 488.968C109.49 489.667 109.989 490.016 110.488 490.016C110.808 490.016 111.037 489.687 111.177 489.028C111.337 488.369 111.446 487.311 111.506 485.854C111.746 486.093 112.035 486.323 112.375 486.543C112.734 486.742 113.044 486.902 113.303 487.022C113.203 488.359 113.034 489.407 112.794 490.166C112.574 490.925 112.265 491.454 111.866 491.753C111.466 492.053 110.947 492.202 110.308 492.202C109.41 492.202 108.582 491.803 107.823 491.005C107.084 490.206 106.435 489.098 105.876 487.681C105.317 486.263 104.838 484.596 104.439 482.679C104.04 480.763 103.73 478.687 103.511 476.451C103.291 474.215 103.161 471.899 103.121 469.503ZM93.8081 490.585H106.565V492.592H93.8081V490.585ZM91.9214 465.94L94.0476 466.568C93.4088 468.265 92.6501 469.942 91.7717 471.599C90.8933 473.236 89.945 474.784 88.9268 476.241C87.9086 477.698 86.8505 478.986 85.7525 480.104C85.6926 479.924 85.5828 479.695 85.4231 479.415C85.2834 479.136 85.1236 478.856 84.944 478.577C84.7842 478.277 84.6345 478.048 84.4948 477.888C85.493 476.91 86.4513 475.782 87.3696 474.504C88.288 473.226 89.1364 471.859 89.915 470.402C90.6936 468.924 91.3625 467.437 91.9214 465.94ZM88.807 473.636L90.9332 471.51L90.9632 471.539V493.31H88.807V473.636Z" fill="#232323"/>
<path d="M505.989 468.665H532.012V470.641H505.989V468.665ZM517.698 465.79H520.003V469.623H517.698V465.79ZM507.336 480.374H529.586V482.29H509.522V493.37H507.336V480.374ZM528.658 480.374H530.904V490.675C530.904 491.294 530.814 491.783 530.634 492.143C530.475 492.502 530.155 492.771 529.676 492.951C529.197 493.131 528.538 493.231 527.7 493.251C526.881 493.29 525.843 493.31 524.585 493.31C524.545 492.991 524.455 492.632 524.316 492.232C524.176 491.833 524.026 491.484 523.866 491.184C524.845 491.204 525.713 491.214 526.472 491.214C527.25 491.234 527.759 491.234 527.999 491.214C528.259 491.194 528.428 491.144 528.508 491.064C528.608 490.985 528.658 490.845 528.658 490.645V480.374ZM513.325 484.237H515.302V492.113H513.325V484.237ZM514.373 484.237H524.735V490.585H514.373V488.938H522.728V485.884H514.373V484.237ZM513.116 473.965V476.84H524.855V473.965H513.116ZM510.96 472.318H527.101V478.517H510.96V472.318Z" fill="#232323"/>
<path d="M244.619 558.378V571.629H241.887V560.998H237.133V558.378H244.619ZM244.619 570.468C245.493 571.841 246.74 572.864 248.362 573.538C249.985 574.212 251.894 574.598 254.09 574.698C255.138 574.723 256.41 574.748 257.908 574.773C259.405 574.773 260.977 574.773 262.624 574.773C264.271 574.748 265.869 574.711 267.416 574.661C268.963 574.611 270.298 574.549 271.421 574.474C271.321 574.673 271.209 574.935 271.084 575.26C270.959 575.584 270.847 575.921 270.747 576.27C270.647 576.62 270.573 576.944 270.523 577.244C269.475 577.269 268.227 577.294 266.779 577.319C265.357 577.368 263.872 577.393 262.325 577.393C260.778 577.418 259.28 577.418 257.833 577.393C256.386 577.368 255.15 577.344 254.127 577.319C251.657 577.219 249.548 576.819 247.801 576.121C246.054 575.422 244.594 574.336 243.421 572.864C242.598 573.663 241.749 574.461 240.876 575.26C240.027 576.083 239.141 576.907 238.218 577.73L236.758 574.96C237.582 574.361 238.468 573.675 239.416 572.901C240.389 572.103 241.3 571.292 242.149 570.468H244.619ZM237.507 546.1L239.641 544.527C240.414 545.101 241.188 545.75 241.961 546.474C242.76 547.198 243.484 547.921 244.133 548.645C244.806 549.369 245.33 550.042 245.705 550.666L243.421 552.426C243.072 551.802 242.573 551.116 241.924 550.367C241.275 549.593 240.564 548.845 239.79 548.121C239.042 547.372 238.28 546.698 237.507 546.1ZM261.314 543.966L264.309 544.602C263.785 545.8 263.211 547.035 262.587 548.308C261.963 549.581 261.377 550.654 260.828 551.527L258.544 550.816C258.869 550.192 259.205 549.481 259.555 548.682C259.904 547.884 260.229 547.073 260.528 546.249C260.853 545.401 261.115 544.64 261.314 543.966ZM252.368 549.431H269.999V551.902H252.368V569.72H249.635V551.565L251.731 549.431H252.368ZM251.132 555.795H269.025V558.153H251.132V555.795ZM251.132 562.121H268.95V564.479H251.132V562.121ZM249.635 568.559H270.598V570.992H249.635V568.559ZM258.918 550.554H261.614V569.533H258.918V550.554ZM252.929 543.666L255.737 544.49C255.013 546.237 254.152 547.934 253.154 549.581C252.156 551.228 251.083 552.763 249.935 554.185C248.787 555.607 247.589 556.855 246.341 557.928C246.191 557.729 245.979 557.504 245.705 557.255C245.455 556.98 245.193 556.706 244.919 556.431C244.644 556.157 244.395 555.932 244.17 555.757C246.017 554.335 247.701 552.563 249.223 550.442C250.771 548.296 252.006 546.037 252.929 543.666ZM281.378 545.875H291.972V548.72H281.378V545.875ZM290.549 545.875H293.394C293.394 546.973 293.444 548.271 293.544 549.768C293.644 551.265 293.856 552.875 294.18 554.597C294.505 556.294 295.004 558.066 295.678 559.912C296.351 561.759 297.262 563.606 298.41 565.452C299.558 567.274 300.993 569.046 302.715 570.768C304.462 572.49 306.571 574.074 309.041 575.522C308.841 575.696 308.579 575.921 308.255 576.196C307.956 576.495 307.669 576.795 307.394 577.094C307.145 577.418 306.932 577.693 306.758 577.917C304.262 576.395 302.116 574.723 300.319 572.901C298.547 571.055 297.063 569.133 295.865 567.137C294.692 565.14 293.744 563.144 293.02 561.148C292.321 559.126 291.785 557.18 291.41 555.308C291.061 553.411 290.824 551.652 290.699 550.03C290.599 548.408 290.549 547.023 290.549 545.875ZM289.464 553.212L292.646 553.773C291.747 557.566 290.574 560.985 289.127 564.03C287.704 567.074 285.97 569.757 283.924 572.078C281.902 574.374 279.507 576.333 276.737 577.955C276.587 577.755 276.35 577.518 276.025 577.244C275.726 576.969 275.401 576.682 275.052 576.383C274.728 576.108 274.441 575.884 274.191 575.709C278.359 573.513 281.665 570.543 284.111 566.8C286.556 563.032 288.341 558.502 289.464 553.212ZM313.121 562.869H327.907V565.041H313.121V562.869ZM311.849 567.586H328.806V569.869H311.849V567.586ZM312.036 547.073H328.881V549.356H312.036V547.073ZM315.667 543.592H318.137V551.864H315.667V543.592ZM322.854 543.592H325.324V551.864H322.854V543.592ZM319.148 553.399H321.506V559.613H319.148V553.399ZM315.292 554.672V558.527H325.437V554.672H315.292ZM313.046 552.688H327.795V560.549H313.046V552.688ZM320.421 569.944C320.795 570.144 321.344 570.493 322.068 570.992C322.791 571.467 323.565 571.991 324.389 572.565C325.237 573.114 326.011 573.638 326.709 574.137C327.408 574.636 327.92 574.998 328.244 575.222L326.56 577.543C326.16 577.169 325.624 576.707 324.95 576.158C324.276 575.609 323.553 575.035 322.779 574.436C322.005 573.837 321.269 573.276 320.57 572.752C319.872 572.203 319.285 571.766 318.811 571.442L320.421 569.944ZM319.036 559.276H321.656V565.677C321.656 566.725 321.556 567.811 321.357 568.934C321.157 570.057 320.77 571.167 320.196 572.265C319.647 573.363 318.811 574.411 317.688 575.409C316.59 576.433 315.118 577.344 313.271 578.142C313.071 577.868 312.797 577.531 312.447 577.131C312.123 576.757 311.811 576.445 311.512 576.196C313.209 575.547 314.556 574.786 315.554 573.912C316.553 573.039 317.301 572.128 317.8 571.18C318.3 570.206 318.624 569.246 318.774 568.297C318.948 567.349 319.036 566.463 319.036 565.64V559.276ZM331.538 558.34H345.65V560.773H331.538V558.34ZM331.538 565.864H345.65V568.297H331.538V565.864ZM331.463 573.5H346.324V576.083H331.463V573.5ZM333.185 543.592L335.768 544.19C335.294 546.037 334.72 547.859 334.046 549.656C333.372 551.452 332.636 553.149 331.838 554.747C331.064 556.319 330.241 557.716 329.367 558.939C329.217 558.789 329.005 558.602 328.731 558.378C328.481 558.153 328.219 557.928 327.945 557.704C327.67 557.479 327.433 557.304 327.233 557.18C328.082 556.057 328.868 554.771 329.592 553.324C330.34 551.852 331.014 550.292 331.613 548.645C332.237 546.973 332.761 545.288 333.185 543.592ZM340.148 543.966L342.843 544.64C342.369 545.962 341.845 547.322 341.271 548.72C340.697 550.117 340.148 551.303 339.624 552.276L337.34 551.64C337.69 550.966 338.039 550.18 338.388 549.281C338.738 548.358 339.062 547.435 339.362 546.511C339.686 545.563 339.948 544.715 340.148 543.966ZM333.223 550.741H345.875V553.287H333.223V578.067H330.64V553.399L333.11 550.741H333.223ZM337.902 551.864H340.447V574.848H337.902V551.864ZM356.132 554.073H382.784V556.394H356.132V554.073ZM356.656 565.003H378.105V567.324H356.656V565.003ZM362.158 550.816H364.854V560.361H373.95V550.816H376.72V562.607H362.158V550.816ZM377.356 565.003H377.918L378.404 564.891L380.164 565.827C379.14 567.773 377.805 569.458 376.158 570.88C374.511 572.278 372.64 573.45 370.543 574.399C368.447 575.347 366.201 576.108 363.805 576.682C361.41 577.281 358.939 577.73 356.394 578.03C356.319 577.705 356.157 577.306 355.907 576.832C355.682 576.358 355.445 575.971 355.196 575.672C357.567 575.422 359.887 575.06 362.158 574.586C364.429 574.087 366.55 573.426 368.522 572.602C370.518 571.778 372.278 570.78 373.8 569.607C375.322 568.434 376.508 567.037 377.356 565.415V565.003ZM363.319 566.95C364.517 568.622 366.126 570.057 368.148 571.254C370.194 572.452 372.54 573.413 375.185 574.137C377.83 574.86 380.663 575.372 383.682 575.672C383.508 575.871 383.308 576.121 383.083 576.42C382.884 576.72 382.684 577.007 382.484 577.281C382.31 577.581 382.16 577.855 382.035 578.105C378.966 577.705 376.083 577.069 373.388 576.196C370.693 575.347 368.272 574.237 366.126 572.864C364.005 571.467 362.271 569.807 360.923 567.885L363.319 566.95ZM366.089 543.592H368.971V548.72H366.089V543.592ZM353.624 547.297H383.008V549.843H353.624V547.297ZM352.239 547.297H354.934V558.115C354.934 559.563 354.884 561.148 354.784 562.869C354.709 564.591 354.535 566.351 354.26 568.148C354.01 569.944 353.636 571.691 353.137 573.388C352.663 575.085 352.014 576.645 351.191 578.067C351.041 577.917 350.816 577.73 350.517 577.506C350.242 577.306 349.955 577.106 349.656 576.907C349.381 576.732 349.119 576.607 348.87 576.532C349.643 575.185 350.255 573.737 350.704 572.19C351.153 570.618 351.49 569.008 351.715 567.361C351.939 565.714 352.076 564.105 352.126 562.533C352.201 560.935 352.239 559.463 352.239 558.115V547.297Z" fill="#232323"/>
<path d="M17.1068 136.633H20.1015V143.67H17.1068V136.633ZM17.1443 144.531H20.064V171.371H17.1443V144.531ZM1.90908 142.023H35.5987V144.756H1.90908V142.023ZM5.72723 149.847H30.3206V152.579H8.5347V166.617H5.72723V149.847ZM29.2351 149.847H32.1174V163.061C32.1174 163.859 32.0051 164.483 31.7805 164.932C31.5809 165.381 31.1566 165.731 30.5078 165.98C29.8839 166.205 29.023 166.342 27.9249 166.392C26.8518 166.442 25.5167 166.467 23.9196 166.467C23.8697 166.043 23.7324 165.581 23.5078 165.082C23.3082 164.558 23.121 164.096 22.9464 163.697C23.7948 163.722 24.5934 163.747 25.3421 163.772C26.0907 163.772 26.7271 163.772 27.2511 163.772C27.8001 163.772 28.187 163.772 28.4116 163.772C28.736 163.747 28.9481 163.684 29.0479 163.585C29.1727 163.46 29.2351 163.273 29.2351 163.023V149.847ZM12.3903 197.205H35.973V199.638H12.3903V197.205ZM16.6202 202.258H32.9035V204.579H16.6202V202.258ZM18.417 198.103L20.8875 198.74C19.9143 200.811 18.6291 202.733 17.032 204.504C15.4598 206.251 13.8127 207.711 12.0908 208.884C11.966 208.734 11.7789 208.547 11.5293 208.323C11.3047 208.098 11.0677 207.873 10.8181 207.649C10.5685 207.424 10.344 207.262 10.1443 207.162C11.8662 206.114 13.4634 204.804 14.9357 203.232C16.433 201.659 17.5935 199.95 18.417 198.103ZM32.3794 202.258H35.0372C35.0372 202.258 35.0247 202.408 34.9997 202.708C34.9997 202.982 34.9873 203.207 34.9623 203.381C34.7627 205.977 34.5505 208.073 34.3259 209.67C34.1263 211.267 33.9017 212.49 33.6522 213.339C33.4026 214.187 33.1031 214.798 32.7538 215.173C32.4543 215.522 32.1299 215.759 31.7805 215.884C31.4311 216.009 31.0319 216.084 30.5827 216.109C30.1834 216.158 29.6468 216.183 28.973 216.183C28.3242 216.183 27.6255 216.158 26.8768 216.109C26.8768 215.759 26.8144 215.36 26.6896 214.911C26.5649 214.486 26.4151 214.112 26.2404 213.788C26.9392 213.863 27.5756 213.913 28.1495 213.937C28.7235 213.962 29.1477 213.975 29.4222 213.975C29.6718 213.975 29.8839 213.95 30.0586 213.9C30.2582 213.85 30.4204 213.738 30.5452 213.563C30.8197 213.314 31.0568 212.802 31.2565 212.028C31.481 211.255 31.6807 210.119 31.8554 208.622C32.055 207.1 32.2297 205.128 32.3794 202.708V202.258ZM18.6041 190.018V192.975H30.6575V190.018H18.6041ZM18.6041 185.039V187.996H30.6575V185.039H18.6041ZM16.0587 182.943H33.2778V195.109H16.0587V182.943ZM1.98394 189.906H13.0641V192.601H1.98394V189.906ZM6.36359 182.12H9.02132V205.141H6.36359V182.12ZM1.27272 206.601C2.22102 206.201 3.31905 205.727 4.56681 205.178C5.81457 204.629 7.14968 204.03 8.57213 203.381C9.99458 202.733 11.417 202.096 12.8395 201.472L13.4384 203.943C11.5168 204.891 9.58282 205.852 7.63631 206.825C5.6898 207.774 3.93045 208.634 2.35827 209.408L1.27272 206.601ZM27.6255 202.708L29.572 203.756C29.1228 205.328 28.4864 206.925 27.6629 208.547C26.8394 210.169 25.916 211.667 24.8929 213.039C23.8697 214.412 22.7966 215.535 21.6736 216.408C21.4241 216.134 21.0997 215.847 20.7004 215.547C20.3261 215.248 19.9517 214.998 19.5774 214.798C20.7503 214 21.8608 212.952 22.9089 211.654C23.982 210.356 24.9178 208.921 25.7164 207.349C26.5399 205.777 27.1763 204.23 27.6255 202.708ZM21.7485 202.782L23.695 203.905C23.0462 205.253 22.2102 206.626 21.187 208.023C20.1888 209.396 19.0783 210.668 17.8555 211.841C16.6327 213.014 15.4099 214 14.1871 214.798C13.9625 214.499 13.6755 214.187 13.3261 213.863C13.0017 213.538 12.6648 213.264 12.3154 213.039C13.5382 212.365 14.761 211.479 15.9838 210.381C17.2066 209.283 18.3172 208.073 19.3154 206.75C20.3385 205.428 21.1496 204.105 21.7485 202.782ZM17.818 238.574H19.8769V243.964H17.818V238.574ZM16.5828 243.852C17.4312 243.627 18.4045 243.34 19.5025 242.991C20.6006 242.642 21.7735 242.28 23.0212 241.906L23.3581 243.74C22.31 244.089 21.2868 244.451 20.2886 244.825C19.2904 245.175 18.3172 245.512 17.3689 245.836L16.5828 243.852ZM14.8234 252.237H32.2297V254.296H14.8234V252.237ZM14.8234 257.627H32.2297V259.873H14.8234V257.627ZM11.4919 229.89H22.6469V231.986H11.4919V229.89ZM12.3528 235.317H22.6095V237.451H12.3528V235.317ZM13.5133 246.922H33.6522V261.109H30.9196V249.13H16.1336V261.258H13.5133V246.922ZM16.433 226.932H18.7539V232.996C18.7539 234.119 18.6665 235.305 18.4918 236.553C18.3421 237.8 18.0052 239.048 17.4812 240.296C16.982 241.544 16.2209 242.766 15.1977 243.964C14.1995 245.137 12.8644 246.223 11.1924 247.221C11.0177 246.971 10.7807 246.672 10.4812 246.323C10.1817 245.973 9.90723 245.699 9.65768 245.499C11.2049 244.626 12.4277 243.665 13.3261 242.617C14.2494 241.569 14.9232 240.483 15.3475 239.36C15.7967 238.237 16.0837 237.127 16.2084 236.029C16.3582 234.931 16.433 233.92 16.433 232.996V226.932ZM11.7914 232.884L13.8127 233.071C13.638 234.07 13.4384 235.118 13.2138 236.216C12.9892 237.289 12.7771 238.225 12.5774 239.023L10.5561 238.686C10.7807 237.888 10.9928 236.952 11.1924 235.879C11.417 234.806 11.6167 233.808 11.7914 232.884ZM23.8447 229.89H35.3741V231.986H23.8447V229.89ZM24.2939 235.317H35.7858V237.451H24.2939V235.317ZM28.5613 226.932H30.9196V233.259C30.9196 234.307 30.8322 235.43 30.6575 236.627C30.5078 237.8 30.1959 238.986 29.7217 240.184C29.2725 241.381 28.5987 242.542 27.7003 243.665C26.8019 244.763 25.6041 245.786 24.1068 246.734C23.957 246.485 23.72 246.185 23.3955 245.836C23.0961 245.487 22.8091 245.212 22.5346 245.012C23.9321 244.214 25.0301 243.328 25.8287 242.355C26.6273 241.356 27.2137 240.333 27.588 239.285C27.9873 238.212 28.2493 237.152 28.3741 236.103C28.4989 235.055 28.5613 234.107 28.5613 233.259V226.932ZM24.0319 232.884L26.0533 233.034C25.9285 234.057 25.7663 235.105 25.5667 236.178C25.392 237.251 25.2048 238.187 25.0052 238.986L23.0212 238.649C23.2209 237.85 23.408 236.927 23.5827 235.879C23.7574 234.806 23.9071 233.808 24.0319 232.884ZM3.03206 229.216L4.64168 227.232C5.36538 227.531 6.10156 227.906 6.85022 228.355C7.59887 228.779 8.3101 229.228 8.98389 229.702C9.65768 230.152 10.2067 230.588 10.6309 231.013L8.94646 233.259C8.54717 232.834 8.01064 232.385 7.33684 231.911C6.68801 231.412 5.97678 230.925 5.20317 230.451C4.45451 229.977 3.73081 229.565 3.03206 229.216ZM1.42245 239.323L2.9572 237.264C3.70585 237.538 4.47947 237.875 5.27804 238.275C6.0766 238.674 6.81278 239.086 7.48657 239.51C8.18532 239.934 8.74682 240.346 9.17105 240.745L7.56144 243.028C7.1372 242.629 6.57571 242.205 5.87696 241.756C5.20317 241.307 4.46699 240.87 3.66842 240.446C2.89481 240.021 2.14615 239.647 1.42245 239.323ZM2.17111 259.274C2.69517 258.301 3.25666 257.153 3.85559 255.831C4.47947 254.508 5.09087 253.11 5.6898 251.638C6.31368 250.141 6.87517 248.706 7.37428 247.333L9.62025 248.793C9.17105 250.091 8.65947 251.451 8.0855 252.873C7.53649 254.271 6.97499 255.656 6.40102 257.028C5.82705 258.376 5.26556 259.624 4.71654 260.772L2.17111 259.274ZM28.973 238.537H31.0693V242.804C31.0693 243.103 31.1067 243.303 31.1816 243.403C31.2565 243.478 31.4436 243.515 31.7431 243.515C31.8429 243.515 32.0176 243.515 32.2671 243.515C32.5167 243.515 32.7662 243.515 33.0158 243.515C33.2903 243.515 33.4899 243.515 33.6147 243.515C33.8144 243.515 33.9641 243.453 34.0639 243.328C34.1637 243.203 34.2386 242.916 34.2885 242.467C34.3634 242.018 34.4133 241.307 34.4382 240.333C34.6379 240.508 34.9249 240.67 35.2992 240.82C35.6985 240.97 36.0354 241.094 36.3099 241.194C36.26 242.342 36.1477 243.241 35.973 243.889C35.7983 244.513 35.5488 244.95 35.2243 245.2C34.8999 245.424 34.4632 245.536 33.9142 245.536C33.7894 245.536 33.5523 245.536 33.203 245.536C32.8785 245.536 32.5416 245.536 32.1923 245.536C31.8679 245.536 31.6308 245.536 31.481 245.536C30.4579 245.536 29.7841 245.349 29.4597 244.975C29.1353 244.601 28.973 243.889 28.973 242.841V238.537ZM3.10693 279.98H32.1548V282.863H3.10693V279.98ZM31.0693 279.98H33.9516C33.9516 279.98 33.9516 280.08 33.9516 280.28C33.9516 280.48 33.9391 280.692 33.9142 280.916C33.9142 281.141 33.9017 281.328 33.8768 281.478C33.6771 285.346 33.465 288.64 33.2404 291.36C33.0408 294.08 32.8037 296.326 32.5292 298.098C32.2796 299.845 31.9926 301.23 31.6682 302.253C31.3687 303.251 31.0069 303.975 30.5827 304.424C30.1335 304.973 29.6593 305.347 29.1602 305.547C28.6861 305.747 28.0871 305.884 27.3634 305.959C26.7395 306.009 25.8661 306.021 24.7431 305.996C23.6451 305.971 22.5221 305.934 21.3742 305.884C21.3492 305.46 21.2494 304.973 21.0747 304.424C20.925 303.875 20.7004 303.401 20.4009 303.002C21.6986 303.101 22.884 303.176 23.957 303.226C25.0551 303.251 25.8412 303.264 26.3153 303.264C26.7146 303.264 27.039 303.226 27.2886 303.151C27.5631 303.077 27.8126 302.914 28.0372 302.665C28.3866 302.34 28.6985 301.704 28.973 300.756C29.2725 299.782 29.5345 298.435 29.7591 296.713C30.0087 294.966 30.2333 292.77 30.4329 290.125C30.6575 287.479 30.8696 284.298 31.0693 280.579V279.98ZM15.3475 271.895H18.2672V278.371C18.2672 280.093 18.1924 281.914 18.0426 283.836C17.8929 285.733 17.5685 287.679 17.0694 289.676C16.5703 291.647 15.8092 293.618 14.786 295.59C13.7628 297.561 12.3903 299.47 10.6684 301.317C8.94646 303.139 6.77535 304.836 4.15505 306.408C4.00532 306.158 3.80568 305.896 3.55612 305.622C3.30657 305.347 3.04454 305.073 2.77003 304.798C2.49552 304.549 2.23349 304.349 1.98394 304.199C4.47947 302.702 6.53828 301.105 8.16037 299.408C9.80741 297.711 11.1051 295.964 12.0534 294.167C13.0266 292.346 13.7379 290.524 14.1871 288.702C14.6612 286.881 14.9732 285.096 15.1229 283.349C15.2726 281.603 15.3475 279.943 15.3475 278.371V271.895Z" fill="#232323"/>
</svg>
